<svg width="25" height="24" viewBox="0 0 25 24" fill="none" xmlns="http://www.w3.org/2000/svg">
<path d="M21.6042 9.80492L17.125 2.52555C16.6449 1.74556 16.0055 1.10856 15.2611 0.668815C14.5168 0.229069 13.6896 -0.00038636 12.85 4.8834e-07H8.85417C7.79794 0.00405288 6.76752 0.369937 5.89835 1.04956C5.02918 1.72917 4.36195 2.69072 3.98438 3.80778L1.82604 10.2532C1.26368 10.6856 0.803288 11.2672 0.485002 11.9474C0.166717 12.6276 0.00020873 13.3856 0 14.1553L0 15.9247C0.000855051 16.6043 0.208513 17.2627 0.587991 17.7892C0.967468 18.3156 1.49557 18.6778 2.08333 18.8148V19.4636C2.08333 20.5586 2.46745 21.6087 3.15117 22.383C3.8349 23.1572 4.76223 23.5922 5.72917 23.5922C6.6961 23.5922 7.62343 23.1572 8.30716 22.383C8.99089 21.6087 9.375 20.5586 9.375 19.4636V18.8738H15.625V19.4636C15.625 20.5586 16.0091 21.6087 16.6928 22.383C17.3766 23.1572 18.3039 23.5922 19.2708 23.5922C20.2378 23.5922 21.1651 23.1572 21.8488 22.383C22.5326 21.6087 22.9167 20.5586 22.9167 19.4636V18.8148C23.5044 18.6778 24.0325 18.3156 24.412 17.7892C24.7915 17.2627 24.9991 16.6043 25 15.9247V15.3349C24.9985 14.1313 24.6725 12.9568 24.0657 11.9686C23.4589 10.9804 22.6001 10.2255 21.6042 9.80492ZM15.4167 3.87384L18.8375 9.43688H11.4583V2.35922H12.85C13.354 2.35861 13.8506 2.49602 14.2975 2.75976C14.7444 3.02349 15.1284 3.40572 15.4167 3.87384ZM5.9375 4.64413C6.16364 3.97474 6.56316 3.39838 7.08364 2.99063C7.60413 2.58289 8.22128 2.36279 8.85417 2.35922H9.375V9.43688H4.32708L5.9375 4.64413ZM7.29167 19.4636C7.29167 19.9329 7.12705 20.3829 6.83402 20.7147C6.541 21.0466 6.14357 21.233 5.72917 21.233C5.31477 21.233 4.91734 21.0466 4.62431 20.7147C4.33129 20.3829 4.16667 19.9329 4.16667 19.4636V18.8738H7.29167V19.4636ZM19.2708 21.233C18.8564 21.233 18.459 21.0466 18.166 20.7147C17.873 20.3829 17.7083 19.9329 17.7083 19.4636V18.8738H20.8333V19.4636C20.8333 19.9329 20.6687 20.3829 20.3757 20.7147C20.0827 21.0466 19.6852 21.233 19.2708 21.233ZM22.9167 15.9247C22.9167 16.0812 22.8618 16.2312 22.7641 16.3418C22.6664 16.4524 22.534 16.5145 22.3958 16.5145H2.60417C2.46603 16.5145 2.33356 16.4524 2.23588 16.3418C2.13821 16.2312 2.08333 16.0812 2.08333 15.9247V14.1553C2.08333 13.5296 2.30283 12.9295 2.69353 12.4871C3.08423 12.0447 3.61413 11.7961 4.16667 11.7961H19.7917C20.6205 11.7961 21.4153 12.1689 22.0014 12.8326C22.5874 13.4963 22.9167 14.3964 22.9167 15.3349V15.9247Z" fill="white"/>
</svg>
