<svg width="100%" height="100%" viewBox="0 0 24 24" fill="currentColor" xmlns="http://www.w3.org/2000/svg">
<path d="M18.0001 12.0001C17.9952 11.474 17.7832 10.971 17.4101 10.6001L13.1201 6.30007C12.9327 6.11382 12.6793 6.00928 12.4151 6.00928C12.1509 6.00928 11.8974 6.11382 11.7101 6.30007C11.6163 6.39303 11.542 6.50363 11.4912 6.62549C11.4404 6.74735 11.4143 6.87806 11.4143 7.01007C11.4143 7.14208 11.4404 7.27279 11.4912 7.39465C11.542 7.5165 11.6163 7.62711 11.7101 7.72007L15.0001 11.0001H5.00008C4.73486 11.0001 4.48051 11.1054 4.29297 11.293C4.10543 11.4805 4.00008 11.7348 4.00008 12.0001C4.00008 12.2653 4.10543 12.5196 4.29297 12.7072C4.48051 12.8947 4.73486 13.0001 5.00008 13.0001H15.0001L11.7101 16.2901C11.5218 16.477 11.4155 16.7312 11.4145 16.9965C11.4136 17.2619 11.5181 17.5168 11.7051 17.7051C11.8921 17.8934 12.1462 17.9997 12.4115 18.0006C12.6769 18.0016 12.9318 17.897 13.1201 17.7101L17.4101 13.4101C17.7857 13.0367 17.9978 12.5296 18.0001 12.0001Z" />
</svg>
