<svg width="20" height="20" viewBox="0 0 20 20" fill="none" xmlns="http://www.w3.org/2000/svg">
<g clip-path="url(#clip0_240_918)">
<path d="M19.9166 9.53101C19.5892 7.01052 18.3143 4.70928 16.351 3.09504C14.3878 1.48079 11.8836 0.674681 9.34732 0.840545C6.81107 1.00641 4.43315 2.1318 2.69688 3.98799C0.960605 5.84417 -0.00371945 8.29184 -9.08762e-05 10.8335C-0.00489454 12.1939 0.270791 13.5407 0.809755 14.7899C1.34872 16.039 2.13939 17.1636 3.13241 18.0935C3.89186 18.7966 4.89254 19.1809 5.92741 19.1668H14.0666C15.1599 19.1694 16.2103 18.7416 16.9907 17.976C18.103 16.8939 18.9468 15.5667 19.4548 14.1004C19.9628 12.6341 20.121 11.0693 19.9166 9.53101ZM15.8257 16.781C15.3569 17.243 14.7248 17.5014 14.0666 17.5002H5.92741C5.31847 17.5127 4.72782 17.2917 4.27658 16.8827C3.4493 16.1078 2.79059 15.1707 2.34154 14.1299C1.89248 13.0892 1.66272 11.967 1.66658 10.8335C1.6674 9.66037 1.91555 8.50059 2.39486 7.42984C2.87416 6.35909 3.57384 5.40143 4.44824 4.61934C5.96753 3.24926 7.94244 2.49382 9.98824 2.50017C10.3151 2.50031 10.6417 2.51867 10.9666 2.55517C12.5296 2.7367 14.0092 3.35731 15.234 4.34511C16.4589 5.33291 17.3788 6.64749 17.8873 8.13658C18.3958 9.62567 18.472 11.2283 18.1071 12.759C17.7423 14.2896 16.9513 15.6856 15.8257 16.7852V16.781ZM6.50574 14.4043C6.66377 14.559 6.75386 14.7702 6.75621 14.9913C6.75855 15.2125 6.67295 15.4255 6.51824 15.5835C6.36353 15.7415 6.15238 15.8316 5.93125 15.834C5.71011 15.8363 5.4971 15.7507 5.33908 15.596C4.39321 14.6695 3.74465 13.4823 3.47608 12.1858C3.20751 10.8893 3.33109 9.54212 3.83106 8.3161C4.33104 7.09008 5.18476 6.04071 6.28341 5.30174C7.38205 4.56277 8.67586 4.16768 9.99991 4.16684C10.3186 4.16675 10.6369 4.1893 10.9524 4.23434C11.0608 4.24996 11.165 4.28678 11.2591 4.34269C11.3532 4.3986 11.4354 4.4725 11.5009 4.56018C11.5665 4.64786 11.6141 4.7476 11.6411 4.85369C11.6681 4.95979 11.6739 5.07016 11.6582 5.17851C11.6439 5.28745 11.6079 5.39242 11.5524 5.48724C11.4969 5.58207 11.423 5.66484 11.335 5.73068C11.247 5.79652 11.1468 5.84411 11.0401 5.87064C10.9335 5.89717 10.8226 5.90211 10.7141 5.88517C9.67115 5.73621 8.60781 5.92047 7.67582 6.41167C6.74383 6.90288 5.9908 7.67591 5.52421 8.62047C5.05761 9.56502 4.90129 10.6328 5.07756 11.6715C5.25382 12.7101 5.75366 13.6666 6.50574 14.4043ZM16.5991 9.88101C16.6441 10.1965 16.6667 10.5148 16.6666 10.8335C16.6693 11.7216 16.493 12.6011 16.1482 13.4195C15.8034 14.2379 15.2973 14.9784 14.6599 15.5968C14.5017 15.7515 14.2884 15.8371 14.0671 15.8346C13.8459 15.8321 13.6346 15.7418 13.4799 15.5835C13.3252 15.4253 13.2397 15.212 13.2422 14.9907C13.2447 14.7694 13.335 14.5582 13.4932 14.4035C14.0563 13.8547 14.4815 13.1804 14.7341 12.4358C14.9867 11.6913 15.0595 10.8975 14.9466 10.1193C14.915 9.90042 14.9716 9.67792 15.1041 9.50078C15.2365 9.32363 15.4339 9.20636 15.6528 9.17476C15.8717 9.14315 16.0942 9.1998 16.2714 9.33225C16.4485 9.4647 16.5658 9.66209 16.5974 9.88101H16.5991ZM11.6049 10.4068C11.7052 10.7675 11.6832 11.1512 11.5424 11.498C11.4016 11.8448 11.1499 12.1352 10.8267 12.3239C10.5034 12.5126 10.1267 12.5889 9.75551 12.5409C9.38428 12.4929 9.0394 12.3234 8.77472 12.0587C8.51004 11.794 8.34047 11.4491 8.29249 11.0779C8.24451 10.7067 8.32082 10.33 8.5095 10.0067C8.69818 9.68347 8.98861 9.43178 9.33544 9.29098C9.68226 9.15019 10.0659 9.12822 10.4266 9.22851L13.5774 6.07767C13.6543 5.99808 13.7462 5.9346 13.8479 5.89092C13.9496 5.84725 14.0589 5.82426 14.1696 5.8233C14.2802 5.82234 14.39 5.84342 14.4924 5.88532C14.5948 5.92722 14.6878 5.9891 14.7661 6.06734C14.8443 6.14559 14.9062 6.23863 14.9481 6.34104C14.99 6.44346 15.0111 6.55319 15.0101 6.66384C15.0092 6.77449 14.9862 6.88384 14.9425 6.98551C14.8988 7.08718 14.8353 7.17913 14.7557 7.25601L11.6049 10.4068Z" fill="#E22D3A"/>
</g>
<defs>
<clipPath id="clip0_240_918">
<rect width="20" height="20" fill="white"/>
</clipPath>
</defs>
</svg>
