<svg width="19" height="19" viewBox="0 0 19 19" fill="none" xmlns="http://www.w3.org/2000/svg">
<g clip-path="url(#clip0_510_381)">
<path d="M17.6692 3.50788L6.7292 14.4471C6.65565 14.521 6.56824 14.5796 6.47198 14.6195C6.37573 14.6595 6.27253 14.6801 6.16831 14.6801C6.06408 14.6801 5.96088 14.6595 5.86463 14.6195C5.76837 14.5796 5.68096 14.521 5.60741 14.4471L1.37674 10.2125C1.30319 10.1387 1.21578 10.0801 1.11953 10.0401C1.02327 10.0001 0.920073 9.97953 0.815848 9.97953C0.711622 9.97953 0.608421 10.0001 0.512169 10.0401C0.415916 10.0801 0.328505 10.1387 0.254952 10.2125C0.181108 10.2861 0.122514 10.3735 0.0825338 10.4697C0.0425533 10.566 0.0219727 10.6692 0.0219727 10.7734C0.0219727 10.8776 0.0425533 10.9808 0.0825338 11.0771C0.122514 11.1733 0.181108 11.2607 0.254952 11.3343L4.4872 15.5658C4.93366 16.0114 5.53869 16.2617 6.16949 16.2617C6.8003 16.2617 7.40533 16.0114 7.85179 15.5658L18.791 4.62888C18.8648 4.55534 18.9233 4.46798 18.9632 4.3718C19.0031 4.27562 19.0236 4.17251 19.0236 4.06838C19.0236 3.96425 19.0031 3.86114 18.9632 3.76496C18.9233 3.66878 18.8648 3.58142 18.791 3.50788C18.7175 3.43404 18.6301 3.37544 18.5338 3.33546C18.4376 3.29548 18.3344 3.2749 18.2301 3.2749C18.1259 3.2749 18.0227 3.29548 17.9265 3.33546C17.8302 3.37544 17.7428 3.43404 17.6692 3.50788Z" fill="white"/>
</g>
<defs>
<clipPath id="clip0_510_381">
<rect width="19" height="19" fill="white"/>
</clipPath>
</defs>
</svg>
