<svg width="540" height="448" viewBox="0 0 540 448" fill="none" xmlns="http://www.w3.org/2000/svg">
<g filter="url(#filter0_f_234_861)">
<ellipse cx="269.967" cy="224.305" rx="107.967" ry="61.6955" fill="#6479BF"/>
</g>
<path d="M325.035 260.204L327.328 258.878C327.71 258.633 328.028 258.3 328.256 257.907C328.484 257.515 328.615 257.074 328.639 256.621V72.564C328.611 72.1118 328.478 71.6723 328.25 71.2805C328.023 70.8887 327.707 70.5553 327.328 70.3068L221.71 9.31757C221.304 9.10887 220.854 9 220.398 9C219.942 9 219.492 9.10887 219.087 9.31757L216.787 10.6433C216.403 10.8902 216.084 11.2252 215.856 11.6203C215.628 12.0154 215.497 12.4592 215.475 12.9149V196.986C215.501 197.441 215.633 197.883 215.861 198.278C216.089 198.672 216.406 199.008 216.787 199.258L322.412 260.204C322.818 260.412 323.268 260.521 323.724 260.521C324.18 260.521 324.629 260.412 325.035 260.204Z" fill="#1D2E66"/>
<path opacity="0.3" d="M325.035 260.204L327.328 258.878C327.71 258.633 328.028 258.3 328.256 257.907C328.484 257.515 328.615 257.074 328.639 256.621V72.564C328.611 72.1118 328.478 71.6723 328.25 71.2805C328.023 70.8887 327.707 70.5553 327.328 70.3068L221.71 9.31757C221.304 9.10887 220.854 9 220.398 9C219.942 9 219.492 9.10887 219.087 9.31757L216.787 10.6433C216.403 10.8902 216.084 11.2252 215.856 11.6203C215.628 12.0154 215.497 12.4592 215.475 12.9149V196.986C215.501 197.441 215.633 197.883 215.861 198.278C216.089 198.672 216.406 199.008 216.787 199.258L322.412 260.204C322.818 260.412 323.268 260.521 323.724 260.521C324.18 260.521 324.629 260.412 325.035 260.204Z" fill="black"/>
<path opacity="0.4" d="M215.497 12.6999C215.583 12.0263 216.134 11.7755 216.787 12.1553L322.412 73.1731C322.798 73.4147 323.116 73.75 323.337 74.1477L328.26 71.2813C328.036 70.8858 327.718 70.5512 327.335 70.3068L221.717 9.31757C221.311 9.10887 220.862 9 220.405 9C219.949 9 219.5 9.10887 219.094 9.31757L216.787 10.6433C216.436 10.8726 216.139 11.1752 215.916 11.5302C215.694 11.8852 215.55 12.2843 215.497 12.6999Z" fill="white"/>
<path opacity="0.15" d="M322.642 260.34H322.72L322.849 260.39H322.907C322.987 260.416 323.068 260.437 323.15 260.455C323.673 260.55 324.212 260.506 324.713 260.326C324.814 260.288 324.912 260.242 325.006 260.189L327.307 258.864C327.688 258.619 328.007 258.289 328.238 257.9C328.469 257.51 328.607 257.073 328.639 256.621V72.564C328.625 72.1087 328.494 71.6647 328.26 71.2742L323.337 74.1405C323.577 74.5314 323.711 74.9788 323.724 75.4376V259.487C323.744 259.742 323.673 259.996 323.523 260.204C323.439 260.308 323.326 260.384 323.199 260.424C323.071 260.463 322.934 260.464 322.806 260.426C322.748 260.403 322.693 260.375 322.642 260.34Z" fill="black"/>
<path d="M248.467 35.7814L248.66 35.6668L250.81 34.4127C251.603 33.9747 252.462 33.6697 253.354 33.5098C253.727 33.431 254.071 33.3307 254.364 33.2375C254.692 33.1245 255.012 32.9929 255.325 32.8434L255.16 32.6428L257.625 31.2096C257.829 31.0925 258.048 31.0056 258.277 30.9516C259.201 30.7295 260.592 31.2669 261.975 31.1092C262.478 31.0585 262.964 30.8989 263.4 30.6415C263.835 30.3842 264.21 30.0352 264.497 29.6187C265.335 28.4865 265.844 26.5016 266.589 24.8606L265.944 23.9003C266.01 23.8564 266.08 23.8181 266.152 23.7857L268.41 22.4815C268.791 22.2534 269.227 22.1344 269.671 22.1375C270.514 22.1819 271.33 22.4489 272.036 22.9114C277.446 26.0358 277.625 33.4525 279.574 38.3253C281.523 43.1982 284.282 44.7317 285.78 46.8385C287.277 48.9452 287.385 50.4859 290.71 55.0721C294.035 59.6583 294.171 60.8048 294.171 61.6433V68.4724L291.713 69.9056L247.449 44.3447L248.467 35.7814ZM289.055 62.109C289.635 62.4387 290.108 61.9944 290.108 61.1058C290.115 60.6805 290.024 60.2593 289.841 59.8752C289.658 59.4911 289.389 59.1544 289.055 58.8915C288.481 58.5547 288.016 59.0062 288.016 59.9019C288.008 60.3249 288.098 60.7439 288.278 61.1266C288.458 61.5093 288.724 61.8454 289.055 62.109ZM269.613 42.9402C269.893 43.1445 270.216 43.2809 270.557 43.3388C270.898 43.3966 271.248 43.3742 271.579 43.2734C271.91 43.1726 272.213 42.9961 272.464 42.7579C272.714 42.5197 272.906 42.2264 273.024 41.9011C274.737 42.2308 276.013 40.5754 276.013 37.7306C276.013 34.3697 274.243 30.6363 272.064 29.3751C271.785 29.1724 271.462 29.0375 271.121 28.9809C270.781 28.9243 270.431 28.9477 270.101 29.0492C269.771 29.1506 269.469 29.3274 269.219 29.5655C268.969 29.8036 268.778 30.0966 268.66 30.4213C266.941 30.0774 265.672 31.7327 265.672 34.5919C265.672 37.9455 267.428 41.6862 269.613 42.9402ZM254.916 42.3598C255.489 42.6965 255.955 42.2451 255.955 41.3637C255.963 40.9397 255.873 40.5197 255.693 40.1358C255.513 39.7519 255.247 39.4145 254.916 39.1494C254.329 38.8198 253.863 39.2712 253.863 40.1598C253.855 40.5832 253.946 41.0027 254.129 41.3847C254.311 41.7667 254.581 42.1006 254.916 42.3598Z" fill="#455A64"/>
<path opacity="0.5" d="M289.284 63.3345L294.042 60.5828C294.153 60.9251 294.207 61.2835 294.2 61.6433V68.4724L291.742 69.9056L289.284 68.4724V63.3345Z" fill="#37474F"/>
<path opacity="0.5" d="M284.361 54.8142L281.903 49.1316L285.809 46.8385C286.962 48.4222 287.292 49.7049 288.833 52.2273L284.361 54.8142Z" fill="#37474F"/>
<path opacity="0.5" d="M274.53 43.449L274.207 41.7937C275.296 41.335 276.02 39.866 276.02 37.7306C276.009 34.9064 274.94 32.1888 273.025 30.1132L276.436 28.1426C277.869 31.4532 278.428 35.3587 279.61 38.3254C279.844 38.9172 280.11 39.496 280.406 40.0595L274.53 43.449Z" fill="#37474F"/>
<path d="M248.467 35.7814L248.661 35.6667C249.386 35.337 250.149 35.0964 250.932 34.9501C252.222 34.7166 253.422 34.1314 254.401 33.259C254.645 33.0342 254.911 32.8349 255.196 32.6642C255.4 32.5418 255.623 32.4523 255.855 32.3991C257.346 32.0408 260.062 33.6603 262.011 31.1379L262.075 31.059C263.437 29.2246 263.931 25.1257 265.973 23.8931C266.039 23.8492 266.109 23.8109 266.181 23.7785C267.02 23.3843 268.116 23.456 269.614 24.3159C275.017 27.4403 275.203 34.8642 277.152 39.737C279.101 44.6098 281.86 46.1433 283.358 48.2501C284.856 50.3569 284.956 51.8976 288.288 56.4838C291.62 61.0699 291.742 62.2165 291.742 63.0549V69.884L247.478 44.3232V37.5012C247.445 37.1475 247.523 36.7923 247.7 36.4843C247.877 36.1764 248.145 35.9308 248.467 35.7814ZM286.604 63.5279C287.177 63.8575 287.65 63.4132 287.65 62.5246C287.657 62.0991 287.566 61.6778 287.384 61.2929C287.203 60.9079 286.936 60.5694 286.604 60.3032C286.024 59.9736 285.565 60.425 285.565 61.3136C285.556 61.7378 285.645 62.1584 285.825 62.5425C286.005 62.9266 286.272 63.2639 286.604 63.5279ZM269.614 42.9402C269.893 43.1444 270.216 43.2809 270.557 43.3387C270.898 43.3966 271.248 43.3742 271.579 43.2734C271.91 43.1725 272.213 42.996 272.464 42.7579C272.715 42.5197 272.907 42.2264 273.025 41.9011C273.409 41.0335 273.592 40.0905 273.562 39.1422C273.562 35.7886 271.792 32.0551 269.614 30.7939C269.318 30.6193 268.996 30.4935 268.661 30.4213C266.941 30.0773 265.673 31.7326 265.673 34.5919C265.673 37.9455 267.428 41.6861 269.614 42.9402ZM252.451 43.7929C253.039 44.1297 253.505 43.6782 253.505 42.7968C253.513 42.3714 253.422 41.9498 253.239 41.5655C253.056 41.1812 252.787 40.8447 252.451 40.5826C251.878 40.2529 251.412 40.6972 251.412 41.593C251.405 42.0149 251.495 42.4328 251.675 42.8144C251.855 43.1959 252.121 43.5308 252.451 43.7929Z" fill="#37474F"/>
<path d="M265.673 34.5919C265.673 37.9456 267.428 41.6862 269.614 42.9402C269.893 43.1445 270.216 43.281 270.557 43.3388C270.898 43.3966 271.248 43.3743 271.579 43.2734C271.91 43.1726 272.213 42.9961 272.464 42.7579C272.715 42.5198 272.907 42.2264 273.025 41.9012C272.685 41.8348 272.36 41.7086 272.065 41.5285C269.915 40.2673 268.123 36.5124 268.123 33.1731C268.094 32.2271 268.277 31.2867 268.661 30.4214C266.941 30.0774 265.673 31.7327 265.673 34.5919Z" fill="#263238"/>
<path d="M286.604 63.5279C287.177 63.8575 287.65 63.4132 287.65 62.5246C287.658 62.1 287.567 61.6794 287.386 61.2954C287.204 60.9114 286.937 60.5744 286.604 60.3104C286.024 59.9736 285.558 60.4322 285.558 61.3136C285.55 61.7383 285.64 62.1591 285.822 62.5432C286.003 62.9273 286.271 63.2642 286.604 63.5279Z" fill="#263238"/>
<path d="M252.459 43.7929C253.032 44.1226 253.505 43.6783 253.505 42.7897C253.512 42.3651 253.422 41.9445 253.24 41.5605C253.059 41.1765 252.791 40.8394 252.459 40.5754C251.878 40.2386 251.412 40.6972 251.412 41.5858C251.405 42.0094 251.496 42.429 251.677 42.8118C251.859 43.1946 252.126 43.5304 252.459 43.7929Z" fill="#263238"/>
<path d="M315.555 84.18L223.652 31.1163C223.408 30.9929 223.14 30.9286 222.867 30.9286C222.594 30.9286 222.325 30.9929 222.082 31.1163L221.194 31.6322C220.965 31.7818 220.775 31.9829 220.638 32.2193C220.501 32.4558 220.421 32.721 220.405 32.9937V191.905C220.421 192.178 220.501 192.443 220.638 192.68C220.775 192.916 220.965 193.117 221.194 193.267L313.097 246.331C313.34 246.454 313.609 246.518 313.881 246.518C314.154 246.518 314.423 246.454 314.666 246.331L315.555 245.822C315.784 245.673 315.975 245.472 316.112 245.236C316.249 244.999 316.328 244.733 316.343 244.46V85.5486C316.329 85.2745 316.25 85.0076 316.113 84.7698C315.976 84.5319 315.784 84.3298 315.555 84.18Z" fill="#F5F5F5"/>
<path d="M220.427 32.7573C220.527 32.4348 220.828 32.3345 221.186 32.5352L313.097 85.5988C313.328 85.7467 313.519 85.9483 313.656 86.1864L316.113 84.7533C315.981 84.5122 315.789 84.3097 315.555 84.1656L223.652 31.1235C223.409 30.9967 223.14 30.9304 222.867 30.9304C222.594 30.9304 222.324 30.9967 222.082 31.1235L221.194 31.6323C220.996 31.7577 220.826 31.9222 220.694 32.1157C220.562 32.3091 220.471 32.5275 220.427 32.7573Z" fill="#FAFAFA"/>
<path d="M313.283 246.417C313.378 246.451 313.477 246.478 313.577 246.495H313.727C313.884 246.513 314.043 246.513 314.2 246.495C314.3 246.478 314.398 246.451 314.494 246.417L314.673 246.331L315.555 245.822C315.784 245.673 315.975 245.472 316.112 245.236C316.249 244.999 316.328 244.733 316.343 244.46V85.5487C316.336 85.2749 316.257 85.0078 316.113 84.7748L313.656 86.208C313.794 86.4461 313.872 86.714 313.885 86.989V245.872C313.885 246.309 313.627 246.517 313.283 246.417Z" fill="#E0E0E0"/>
<path d="M241.108 50.9588L243.551 49.5256C243.937 49.3394 244.361 49.2486 244.789 49.2611C245.217 49.2736 245.635 49.3889 246.009 49.5973C248.876 50.8585 250.108 51.4246 251.584 52.048L252.645 52.478C253.225 52.7073 254.379 52.478 254.021 50.493L250.223 40.2672H250.28L252.688 38.8341C252.809 38.7621 252.943 38.7158 253.082 38.6979C253.173 38.6897 253.264 38.6897 253.354 38.6979C254.909 38.6979 255.346 28.6656 255.361 28.3288L255.468 28.2643L257.847 26.8956C258.263 26.6623 258.733 26.5436 259.209 26.5517C259.999 26.5824 260.77 26.801 261.459 27.1894C265.214 29.1601 268.969 34.9716 269.893 40.2099C270.474 43.4991 273.784 48.5725 275.698 50.4357C277.611 52.2988 277.747 53.8252 277.747 53.8252L279.238 62.2738L279.711 64.9682C280.062 66.989 282.133 68.9381 282.133 68.9381L289.836 74.7138C294.666 78.7268 296.027 82.7683 296.959 87.7773V87.8132C296.959 87.9923 296.959 88.1141 296.88 88.1571C296.867 88.1655 296.852 88.1699 296.837 88.1699C296.822 88.1699 296.807 88.1655 296.794 88.1571L295.805 87.5982L242.777 57.0068C242.528 56.8404 242.353 56.5834 242.29 56.2903C241.989 54.4629 241.108 51.0376 241.108 51.0376V50.9588ZM256.443 35.4804C257.009 38.6907 259.309 42.2737 261.624 43.4776C263.207 44.3017 264.368 43.7929 264.755 42.331C265.04 42.4432 265.348 42.4816 265.651 42.4428C265.954 42.404 266.243 42.2891 266.489 42.1089C267.206 41.5284 260.47 29.9268 259.925 30.1848C259.661 30.3219 259.432 30.5179 259.256 30.7577C259.079 30.9975 258.96 31.2747 258.908 31.5678C257.009 30.9945 255.898 32.5997 256.443 35.4804Z" fill="#455A64"/>
<path opacity="0.5" d="M289.284 80.3748L293.161 78.1462C295.404 81.0986 296.307 84.2014 296.973 87.7987V87.8346C296.973 88.0137 296.973 88.1355 296.894 88.1785C296.882 88.1869 296.867 88.1913 296.851 88.1913C296.836 88.1913 296.821 88.1869 296.808 88.1785L293.763 85.7636L289.284 80.3748Z" fill="#37474F"/>
<path opacity="0.5" d="M279.969 65.871L274.522 69.0168L272.065 54.8068L276.973 51.9404C277.369 52.5026 277.634 53.1467 277.747 53.8251L279.238 62.2737L279.711 64.9681C279.767 65.2768 279.853 65.5792 279.969 65.871Z" fill="#37474F"/>
<path opacity="0.5" d="M267.306 33.4094C268.554 35.5104 269.429 37.811 269.893 40.2099C270.28 41.9048 270.928 43.5293 271.814 45.0254L267.142 47.7198L264.82 42.3597C265.096 42.4603 265.393 42.4914 265.684 42.4502C265.975 42.4089 266.252 42.2966 266.489 42.1232C266.876 41.8222 265.271 38.6119 263.551 35.595L267.306 33.4094Z" fill="#37474F"/>
<path d="M241.072 50.9946H241.108C241.492 50.8112 241.914 50.7227 242.339 50.7364C242.764 50.7501 243.18 50.8657 243.551 51.0734C247.055 52.614 248.116 53.1228 250.194 53.9397C250.753 54.1691 251.871 53.9827 251.584 52.0909C251.588 52.048 251.588 52.0049 251.584 51.962L251.104 49.2604L249.778 41.901C249.778 41.901 249.478 40.7473 250.244 40.3102H250.302C250.492 40.2206 250.7 40.1741 250.911 40.174C251.361 40.1179 251.793 39.9596 252.173 39.7112C252.553 39.4628 252.871 39.1309 253.103 38.7408C253.514 38.1287 253.799 37.4407 253.94 36.7171C254.082 35.9936 254.078 35.2491 253.928 34.5273C253.376 31.3742 253.985 29.1671 255.361 28.3431L255.468 28.2714C256.371 27.7984 257.582 27.8773 259.001 28.6225C262.734 30.5788 266.511 36.3976 267.428 41.6144C268.016 44.9107 271.326 49.977 273.24 51.8473C275.153 53.7176 275.289 55.2583 275.289 55.2583L276.78 63.7141L277.253 66.4156C277.604 68.4364 279.675 70.3855 279.675 70.3855L287.378 76.1613C290.456 78.6061 292.677 81.9664 293.72 85.7565C293.72 85.7565 296.586 87.9994 296.794 88.1785L295.805 87.6196L242.613 57.0426C242.613 57.0426 242.003 56.7058 241.896 56.6198C241.788 56.5338 239.581 54.5417 239.581 54.5417C239.667 52.7717 240.176 51.532 241.072 50.9946ZM256.443 35.4803C257.009 38.6907 259.309 42.2736 261.624 43.4775C263.207 44.3016 264.368 43.7928 264.755 42.3309C264.926 41.5109 264.926 40.6644 264.755 39.8444C264.182 36.634 261.889 33.0511 259.56 31.8544C259.349 31.7388 259.129 31.6428 258.901 31.5677C257.009 30.9944 255.898 32.5996 256.443 35.4803Z" fill="#37474F"/>
<path d="M256.443 35.4803C257.009 38.6906 259.309 42.2736 261.624 43.4775C263.207 44.3015 264.368 43.7928 264.755 42.3309C264.523 42.2586 264.297 42.1651 264.082 42.0514C261.781 40.8476 259.46 37.2646 258.901 34.0543C258.723 33.2349 258.723 32.387 258.901 31.5677C257.009 30.9944 255.898 32.5996 256.443 35.4803Z" fill="#263238"/>
<path d="M258.657 31.7039C258.443 31.6921 258.229 31.7353 258.036 31.8293C257.842 31.9234 257.676 32.0652 257.554 32.2414C256.593 33.5957 257.511 37.0497 257.905 38.1532C258.456 39.6939 262.018 43.2984 263.007 43.2984C263.331 43.2448 263.64 43.1257 263.916 42.9482C264.192 42.7708 264.429 42.5388 264.612 42.2665C264.774 41.4745 264.774 40.6579 264.612 39.8659C264.053 36.6986 261.746 33.1658 259.503 31.9834C259.301 31.8738 259.09 31.7827 258.872 31.7111H258.657M258.657 31.5606H258.908C259.136 31.6357 259.357 31.7317 259.567 31.8472C261.875 33.0439 264.189 36.6269 264.762 39.8372C264.933 40.6573 264.933 41.5037 264.762 42.3238C264.565 42.6205 264.309 42.8731 264.009 43.0656C263.709 43.258 263.373 43.3861 263.021 43.4417C261.953 43.4417 258.363 39.8086 257.79 38.1962C257.217 36.5839 255.977 31.5463 258.686 31.5463L258.657 31.5606Z" fill="#263238"/>
<path d="M296.787 88.2216L242.605 57.0785L241.889 56.6628C241.753 56.584 239.61 54.5131 239.61 54.5131L293.749 85.7637C293.749 85.7637 297.002 88.3004 296.787 88.2216Z" fill="#263238"/>
<path d="M304.519 211.067L290.087 202.618L290.094 219.394L304.519 227.842V211.067Z" fill="#FAFAFA"/>
<path d="M303.91 211.411V226.803L290.682 219.057V203.657L303.91 211.411ZM304.512 228.437C304.615 228.439 304.717 228.412 304.806 228.358C304.897 228.307 304.973 228.232 305.026 228.141C305.078 228.05 305.106 227.947 305.107 227.842V211.067C305.106 210.963 305.079 210.861 305.028 210.77C304.976 210.68 304.902 210.604 304.813 210.551L290.381 202.102C290.29 202.052 290.187 202.025 290.083 202.026C289.979 202.027 289.877 202.054 289.786 202.106C289.696 202.158 289.621 202.233 289.568 202.323C289.515 202.412 289.487 202.514 289.485 202.618V219.394C289.485 219.499 289.513 219.602 289.566 219.692C289.619 219.783 289.695 219.858 289.786 219.91L304.218 228.358C304.31 228.409 304.414 228.437 304.519 228.437H304.512Z" fill="#455A64"/>
<path d="M282.828 199.014V200.225C282.828 200.884 282.362 201.157 281.796 200.827L230.588 171.268C230.287 171.071 230.037 170.807 229.857 170.496C229.678 170.184 229.575 169.835 229.556 169.476V168.258C229.556 167.599 230.015 167.333 230.588 167.663L281.796 197.23C282.096 197.426 282.345 197.689 282.524 197.999C282.704 198.309 282.807 198.657 282.828 199.014Z" fill="#E0E0E0"/>
<path d="M282.828 206.345V207.556C282.828 208.215 282.362 208.48 281.796 208.151L230.588 178.591C230.287 178.397 230.037 178.133 229.857 177.823C229.678 177.513 229.575 177.165 229.556 176.807V175.589C229.556 174.929 230.015 174.664 230.588 174.994L281.796 204.553C282.096 204.751 282.345 205.015 282.524 205.327C282.704 205.638 282.807 205.986 282.828 206.345Z" fill="#E0E0E0"/>
<path d="M282.828 213.625V214.836C282.828 215.496 282.362 215.761 281.796 215.431L230.588 185.872C230.288 185.676 230.038 185.413 229.859 185.103C229.68 184.793 229.576 184.445 229.556 184.087V182.869C229.556 182.21 230.015 181.945 230.588 182.267L281.796 211.834C282.096 212.031 282.345 212.296 282.524 212.607C282.704 212.918 282.807 213.267 282.828 213.625Z" fill="#E0E0E0"/>
<path d="M297.059 219.645L300.413 216.413L298.973 213.353L297.059 215.194L289.112 198.369L287.672 199.759L297.059 219.645Z" fill="#1D2E66"/>
<path d="M304.519 182.031L290.087 173.582L290.094 190.357L304.519 198.806V182.031Z" fill="#FAFAFA"/>
<path d="M303.91 182.375V197.767L290.682 190.021V174.621L303.91 182.375ZM304.512 199.401C304.615 199.403 304.717 199.375 304.806 199.322C304.897 199.271 304.974 199.196 305.027 199.105C305.079 199.014 305.107 198.911 305.107 198.806V182.031C305.106 181.927 305.078 181.825 305.027 181.734C304.975 181.644 304.902 181.569 304.813 181.515L290.381 173.066C290.29 173.015 290.187 172.989 290.083 172.99C289.979 172.99 289.877 173.018 289.786 173.07C289.696 173.122 289.621 173.196 289.568 173.286C289.515 173.376 289.486 173.478 289.485 173.582V190.357C289.485 190.462 289.513 190.565 289.566 190.656C289.619 190.747 289.695 190.822 289.786 190.873L304.218 199.293C304.306 199.358 304.41 199.395 304.519 199.401H304.512Z" fill="#455A64"/>
<path d="M282.828 169.978V171.196C282.828 171.848 282.362 172.12 281.796 171.791L230.588 142.231C230.287 142.035 230.037 141.771 229.857 141.459C229.678 141.148 229.575 140.799 229.556 140.44V139.221C229.556 138.562 230.015 138.297 230.588 138.627L281.796 168.193C282.096 168.389 282.345 168.653 282.524 168.963C282.704 169.273 282.807 169.62 282.828 169.978Z" fill="#E0E0E0"/>
<path d="M282.828 177.308V178.512C282.828 179.172 282.362 179.437 281.796 179.107L230.588 149.548C230.287 149.353 230.037 149.09 229.857 148.78C229.678 148.469 229.575 148.121 229.556 147.763V146.545C229.556 145.886 230.015 145.621 230.588 145.95L281.796 175.51C282.097 175.708 282.347 175.974 282.526 176.286C282.705 176.599 282.809 176.949 282.828 177.308Z" fill="#E0E0E0"/>
<path d="M282.828 184.596V185.807C282.828 186.466 282.362 186.732 281.796 186.402L230.588 156.842C230.287 156.648 230.037 156.385 229.857 156.074C229.678 155.764 229.575 155.416 229.556 155.058V153.84C229.556 153.181 230.015 152.915 230.588 153.245L281.796 182.812C282.095 183.008 282.344 183.272 282.523 183.582C282.702 183.892 282.806 184.239 282.828 184.596Z" fill="#E0E0E0"/>
<path d="M297.059 190.608L300.413 187.376L298.973 184.317L297.059 186.158L289.112 169.333L287.672 170.73L297.059 190.608Z" fill="#1D2E66"/>
<path d="M304.519 152.994L290.087 144.546L290.094 161.321L304.519 169.77V152.994Z" fill="#FAFAFA"/>
<path d="M303.91 153.338V168.731L290.682 160.984V145.585L303.91 153.338ZM304.512 170.372C304.615 170.37 304.716 170.343 304.806 170.293C304.897 170.24 304.974 170.164 305.026 170.072C305.079 169.98 305.107 169.876 305.107 169.77V152.994C305.107 152.891 305.079 152.79 305.028 152.701C304.976 152.611 304.902 152.537 304.813 152.486L290.381 144.037C290.29 143.984 290.188 143.956 290.083 143.956C289.979 143.956 289.876 143.984 289.786 144.037C289.695 144.089 289.62 144.165 289.567 144.255C289.514 144.345 289.486 144.448 289.485 144.553V161.314C289.486 161.418 289.514 161.52 289.567 161.609C289.62 161.698 289.695 161.772 289.786 161.823L304.218 170.286C304.308 170.342 304.413 170.372 304.519 170.372H304.512Z" fill="#455A64"/>
<path d="M282.828 140.941V142.159C282.828 142.819 282.362 143.084 281.796 142.754L230.588 113.195C230.287 112.999 230.037 112.734 229.857 112.423C229.678 112.111 229.575 111.762 229.556 111.403V110.185C229.556 109.533 230.015 109.261 230.588 109.59L281.796 139.157C282.095 139.353 282.344 139.617 282.524 139.927C282.703 140.236 282.807 140.584 282.828 140.941Z" fill="#E0E0E0"/>
<path d="M282.828 148.272V149.483C282.828 150.142 282.362 150.408 281.796 150.078L230.588 120.518C230.287 120.324 230.036 120.061 229.857 119.751C229.677 119.441 229.574 119.092 229.556 118.734V117.516C229.556 116.857 230.015 116.592 230.588 116.921L281.796 146.481C282.096 146.678 282.345 146.943 282.524 147.254C282.704 147.565 282.807 147.914 282.828 148.272Z" fill="#E0E0E0"/>
<path d="M282.828 155.581V156.792C282.828 157.452 282.362 157.717 281.796 157.387L230.588 127.828C230.287 127.633 230.037 127.37 229.857 127.06C229.678 126.75 229.575 126.401 229.556 126.043V124.825C229.556 124.166 230.015 123.901 230.588 124.23L281.796 153.79C282.096 153.987 282.345 154.252 282.524 154.563C282.704 154.874 282.807 155.223 282.828 155.581Z" fill="#E0E0E0"/>
<path d="M297.059 161.572L300.413 158.34L298.973 155.287L297.059 157.122L289.112 140.303L287.672 141.694L297.059 161.572Z" fill="#1D2E66"/>
<path d="M305.114 107.14V137.666C305.114 139.487 303.831 140.225 302.247 139.315L275.848 124.051C275.015 123.511 274.321 122.782 273.823 121.922C273.325 121.063 273.036 120.098 272.982 119.107V88.6014C272.982 86.7812 274.257 86.0431 275.848 86.9532L302.262 102.202C303.092 102.743 303.784 103.471 304.279 104.329C304.775 105.187 305.061 106.15 305.114 107.14Z" fill="#1D2E66"/>
<path opacity="0.7" d="M305.114 107.14V137.666C305.114 139.487 303.831 140.225 302.247 139.315L275.848 124.051C275.015 123.511 274.321 122.782 273.823 121.922C273.325 121.063 273.036 120.098 272.982 119.107V88.6014C272.982 86.7812 274.257 86.0431 275.848 86.9532L302.262 102.202C303.092 102.743 303.784 103.471 304.279 104.329C304.775 105.187 305.061 106.15 305.114 107.14Z" fill="white"/>
<path d="M289.055 99.0924C286.009 97.3367 283.544 98.7627 283.544 102.274C283.649 104.185 284.203 106.044 285.16 107.701C286.117 109.358 287.452 110.767 289.055 111.812C292.093 113.568 294.558 112.149 294.558 108.637C294.455 106.726 293.904 104.865 292.947 103.207C291.991 101.549 290.658 100.139 289.055 99.0924Z" fill="#FAFAFA"/>
<path d="M279.496 112.543C279.983 109.999 282.591 109.927 285.321 111.504L292.788 115.803C295.519 117.38 298.127 120.461 298.614 123.571L300.04 133.367L278.062 120.676L279.496 112.543Z" fill="#FAFAFA"/>
<path d="M269.721 97.8741V87.505C269.706 87.2081 269.62 86.9191 269.472 86.6614C269.324 86.4037 269.117 86.1845 268.869 86.0216L230.409 63.8073C229.936 63.535 229.556 63.7571 229.556 64.3017V74.6851C229.572 74.982 229.657 75.271 229.805 75.5287C229.954 75.7864 230.16 76.0056 230.409 76.1685L268.847 98.3829C269.341 98.6408 269.721 98.4187 269.721 97.8741Z" fill="#455A64"/>
<path d="M268.869 102.116L236.063 83.1625C235.59 82.8902 235.21 83.1123 235.21 83.6569V84.7677C235.225 85.0648 235.309 85.3542 235.458 85.6121C235.606 85.87 235.813 86.089 236.063 86.251L268.869 105.205C269.341 105.477 269.721 105.255 269.721 104.71V103.6C269.706 103.303 269.62 103.014 269.472 102.756C269.324 102.498 269.117 102.279 268.869 102.116Z" fill="#1D2E66"/>
<path d="M268.869 108.286L239.596 91.3747C239.123 91.1023 238.743 91.3245 238.743 91.8691V92.9798C238.757 93.2769 238.842 93.5664 238.991 93.8243C239.139 94.0822 239.346 94.3012 239.596 94.4632L268.869 111.389C269.341 111.661 269.721 111.439 269.721 110.895V109.777C269.706 109.479 269.621 109.189 269.473 108.93C269.325 108.671 269.118 108.45 268.869 108.286Z" fill="#1D2E66"/>
<path d="M268.869 114.477L245.637 101.063C245.164 100.791 244.777 101.013 244.777 101.557V102.675C244.794 102.972 244.881 103.261 245.03 103.519C245.18 103.777 245.387 103.996 245.637 104.159L268.869 117.602C269.341 117.874 269.721 117.659 269.721 117.107V115.997C269.711 115.694 269.629 115.397 269.48 115.133C269.332 114.869 269.122 114.644 268.869 114.477Z" fill="#1D2E66"/>
<path opacity="0.1" d="M215.475 196.986V138.383C222.491 139.358 229.628 137.294 233.884 131.984C233.927 131.934 233.963 131.884 234.006 131.841C234.195 131.606 234.423 131.404 234.68 131.246L234.787 131.181C235.504 130.794 236.221 131.138 236.758 132.256C243.766 148.1 258.098 163.908 267.428 167.67C268.134 167.956 268.767 168.394 269.284 168.953C269.969 169.649 270.365 170.578 270.395 171.554C270.889 186.008 266.045 206.703 255.877 221.859L216.787 199.293C216.401 199.04 216.081 198.699 215.853 198.298C215.625 197.896 215.496 197.447 215.475 196.986Z" fill="black"/>
<path d="M187.822 140.196C187.765 139.386 187.944 138.877 188.295 138.67H188.345C188.725 138.483 191.211 136.878 191.577 136.663H191.627C192.007 136.477 192.58 136.62 193.282 137.115C200.269 142.095 209.685 143.048 216.708 139.666C217.673 138.901 218.551 138.031 219.323 137.072C219.36 137.021 219.401 136.973 219.445 136.928C219.632 136.691 219.861 136.49 220.119 136.334C220.119 136.334 223.164 134.42 223.394 134.291L223.508 134.22C224.261 133.833 224.941 134.177 225.472 135.302C232.48 151.146 246.819 166.954 256.142 170.709C256.848 170.997 257.481 171.437 257.998 171.998C258.682 172.692 259.079 173.619 259.109 174.592C259.825 195.245 249.628 228.645 228.56 240.404C227.324 241.272 226.037 242.064 224.705 242.776C194.185 213.281 188.682 164.675 187.822 140.196Z" fill="#1D2E66"/>
<path opacity="0.4" d="M188.359 138.619C188.739 138.433 189.312 138.576 190.015 139.071C198.148 144.875 209.585 145.219 216.693 139.594C209.671 142.962 200.269 142.016 193.29 137.036C192.573 136.541 192.014 136.398 191.634 136.584H191.584C191.24 136.835 188.739 138.433 188.359 138.619Z" fill="white"/>
<path d="M220.248 136.183C221 135.796 221.681 136.14 222.211 137.258C229.22 153.109 243.559 168.91 252.881 172.672C253.588 172.956 254.222 173.394 254.737 173.955C255.021 174.26 255.262 174.602 255.454 174.972L258.722 172.93C258.531 172.562 258.29 172.222 258.005 171.92C257.489 171.359 256.855 170.918 256.149 170.63C246.833 166.875 232.501 151.067 225.479 135.223C224.977 134.098 224.268 133.754 223.508 134.141L223.401 134.212C223.293 134.27 222.684 134.671 221.968 135.108L220.248 136.183Z" fill="#1D2E66"/>
<path opacity="0.3" d="M228.618 240.29C249.65 228.523 259.825 195.144 259.123 174.514C259.111 173.961 258.971 173.419 258.714 172.93L255.447 174.972C255.707 175.46 255.845 176.003 255.848 176.556C256.514 196.105 247.442 227.061 228.618 240.29Z" fill="black"/>
<path d="M187.822 140.196C188.66 164.675 194.164 213.288 224.698 242.669C246.16 231.203 256.536 197.373 255.827 176.527C255.797 175.553 255.4 174.627 254.716 173.933C254.199 173.372 253.566 172.932 252.86 172.643C243.544 168.888 229.212 153.08 222.183 137.236C221.688 136.111 220.971 135.767 220.219 136.154L220.112 136.226C219.853 136.383 219.625 136.584 219.438 136.821C219.394 136.866 219.353 136.913 219.316 136.964C212.731 145.184 199.252 145.635 190 139.049C189.284 138.555 188.725 138.412 188.345 138.598H188.295C187.965 138.877 187.779 139.386 187.822 140.196Z" fill="#1D2E66"/>
<path opacity="0.1" d="M220.241 136.183C220.957 135.796 221.674 136.14 222.204 137.265C229.22 153.109 243.551 168.917 252.881 172.672C253.587 172.961 254.221 173.401 254.737 173.962C255.422 174.656 255.818 175.582 255.848 176.556C256.565 197.402 246.181 231.239 224.719 242.697C208.123 186.488 220.241 136.183 220.241 136.183Z" fill="black"/>
<path d="M233.046 206.381C232.709 202.245 232.594 198.095 232.702 193.948L221.237 187.584C221.002 183.313 221.03 179.032 221.323 174.764C216.966 172.428 215.088 171.447 210.574 169.125C210.13 173.254 209.907 177.405 209.907 181.558C205.443 179.222 204.024 178.476 199.424 176.155C199.707 180.541 200.301 184.902 201.201 189.204C205.873 191.554 206.174 191.705 210.688 194.034C211.405 198.985 212.014 202.016 213.003 206.667C217.109 208.817 219.08 209.885 223.15 212.206C222.253 208.116 221.611 203.973 221.229 199.802C225.393 202.21 228.876 204.102 233.046 206.381Z" fill="#FAFAFA"/>
<path d="M221.208 187.584L232.673 193.948C232.566 198.095 232.68 202.245 233.017 206.381C228.847 204.102 225.364 202.21 221.201 199.802C221.593 203.969 222.244 208.107 223.15 212.192C221 210.952 219.395 210.042 217.776 209.182C216.241 196.849 215.683 184.413 216.106 171.991C217.639 172.801 219.173 173.611 221.294 174.75C221.001 179.022 220.972 183.309 221.208 187.584Z" fill="#EBEBEB"/>
<path opacity="0.4" d="M209.492 147.577C202.19 149.727 195.561 146.703 191.763 144.911C191.763 144.911 192.365 188.136 208.195 215.574C201.588 193.948 202.046 189.462 201.072 173.295C200.119 157.409 204.046 151.733 209.492 147.577Z" fill="white"/>
<defs>
<filter id="filter0_f_234_861" x="0" y="0.609131" width="539.934" height="447.391" filterUnits="userSpaceOnUse" color-interpolation-filters="sRGB">
<feFlood flood-opacity="0" result="BackgroundImageFix"/>
<feBlend mode="normal" in="SourceGraphic" in2="BackgroundImageFix" result="shape"/>
<feGaussianBlur stdDeviation="81" result="effect1_foregroundBlur_234_861"/>
</filter>
</defs>
</svg>
