<svg width="18" height="18" viewBox="0 0 18 18" fill="none" xmlns="http://www.w3.org/2000/svg">
<g clip-path="url(#clip0_570_1294)">
<path d="M17.78 12.243C17.6394 12.1024 17.4487 12.0234 17.2498 12.0234C17.0509 12.0234 16.8602 12.1024 16.7195 12.243L12.4993 16.464L10.4833 14.4743C10.344 14.3316 10.1538 14.25 9.95444 14.2475C9.75507 14.2451 9.56288 14.3219 9.42016 14.4612C9.27744 14.6004 9.19588 14.7906 9.19342 14.99C9.19096 15.1894 9.2678 15.3816 9.40704 15.5243L11.465 17.5493C11.5941 17.6885 11.75 17.8001 11.9234 17.8774C12.0968 17.9547 12.284 17.9962 12.4738 17.9993H12.4985C12.6846 17.9999 12.8689 17.9635 13.0408 17.8923C13.2126 17.8211 13.3687 17.7165 13.4998 17.5845L17.78 13.3035C17.9206 13.1629 17.9996 12.9722 17.9996 12.7733C17.9996 12.5744 17.9206 12.3837 17.78 12.243Z" fill="#1D2E66"/>
<path d="M8.3175 16.4688C6.86928 16.3365 5.49077 15.7859 4.34979 14.8843C3.20882 13.9826 2.35459 12.7687 1.89111 11.3902C1.42762 10.0118 1.37488 8.52838 1.73929 7.12053C2.10371 5.71267 2.86956 4.44113 3.94362 3.46069C5.01768 2.48026 6.35361 1.83323 7.78877 1.59837C9.22393 1.36351 10.6964 1.55096 12.027 2.13789C13.3575 2.72482 14.4887 3.68592 15.2829 4.90417C16.0771 6.12243 16.4999 7.5453 16.5 8.99955C16.5 9.2298 16.4888 9.4578 16.4692 9.6828C16.4601 9.78113 16.4704 9.88031 16.4997 9.97464C16.5289 10.069 16.5765 10.1566 16.6397 10.2325C16.7029 10.3084 16.7805 10.371 16.868 10.4169C16.9555 10.4627 17.0511 10.4908 17.1495 10.4995C17.2478 10.5094 17.3471 10.4996 17.4415 10.4706C17.536 10.4416 17.6237 10.394 17.6995 10.3306C17.7753 10.2673 17.8377 10.1894 17.883 10.1016C17.9283 10.0138 17.9556 9.9178 17.9632 9.8193C17.9872 9.54705 18 9.2748 18 8.99955C17.9999 7.25438 17.4924 5.54689 16.5394 4.08494C15.5863 2.623 14.2288 1.46969 12.632 0.765413C11.0353 0.0611395 9.2682 -0.16371 7.54596 0.11824C5.82372 0.40019 4.2206 1.17678 2.93178 2.35345C1.64296 3.53012 0.724049 5.05612 0.286913 6.74565C-0.150223 8.43519 -0.0867208 10.2154 0.469687 11.8695C1.0261 13.5235 2.05141 14.9802 3.42079 16.062C4.79017 17.1439 6.44455 17.8043 8.1825 17.9628H8.25075C8.44966 17.9717 8.64394 17.9011 8.79086 17.7667C8.93777 17.6323 9.02527 17.4451 9.03413 17.2462C9.04298 17.0473 8.97245 16.853 8.83806 16.7061C8.70366 16.5592 8.51641 16.4717 8.3175 16.4628V16.4688Z" fill="#1D2E66"/>
<path d="M8.24993 5.25V8.68949L6.21969 10.7197C6.14806 10.7889 6.09092 10.8717 6.05161 10.9632C6.01231 11.0547 5.99162 11.1531 5.99075 11.2527C5.98989 11.3523 6.00886 11.451 6.04657 11.5432C6.08428 11.6354 6.13997 11.7191 6.21039 11.7895C6.28081 11.86 6.36455 11.9156 6.45672 11.9534C6.54889 11.9911 6.64765 12.01 6.74724 12.0092C6.84682 12.0083 6.94524 11.9876 7.03674 11.9483C7.12824 11.909 7.211 11.8519 7.28018 11.7802L9.53018 9.53024C9.67084 9.38962 9.74988 9.19889 9.74993 8.99999V5.25C9.74993 5.05109 9.67091 4.86032 9.53026 4.71967C9.38961 4.57902 9.19884 4.5 8.99993 4.5C8.80102 4.5 8.61025 4.57902 8.4696 4.71967C8.32895 4.86032 8.24993 5.05109 8.24993 5.25Z" fill="#1D2E66"/>
</g>
<defs>
<clipPath id="clip0_570_1294">
<rect width="18" height="18" fill="white"/>
</clipPath>
</defs>
</svg>
