<svg width="19" height="20" viewBox="0 0 19 20" fill="none" xmlns="http://www.w3.org/2000/svg">
<g clip-path="url(#clip0_148_350)">
<path d="M9.44186 0.906982C7.59284 0.906982 5.78533 1.45528 4.24793 2.48255C2.71052 3.50981 1.51225 4.9699 0.804662 6.67817C0.0970702 8.38645 -0.088068 10.2662 0.272659 12.0797C0.633386 13.8932 1.52378 15.559 2.83123 16.8664C4.13869 18.1739 5.8045 19.0643 7.61799 19.425C9.43149 19.7857 11.3112 19.6006 13.0195 18.893C14.7278 18.1854 16.1879 16.9872 17.2151 15.4498C18.2424 13.9123 18.7907 12.1048 18.7907 10.2558C18.788 7.77718 17.8022 5.40082 16.0495 3.64815C14.2969 1.89549 11.9205 0.909663 9.44186 0.906982V0.906982ZM9.44186 18.0465C7.90101 18.0465 6.39475 17.5896 5.11358 16.7335C3.83241 15.8775 2.83385 14.6608 2.24419 13.2372C1.65454 11.8136 1.50025 10.2472 1.80086 8.73593C2.10147 7.22468 2.84346 5.83651 3.93301 4.74696C5.02255 3.65742 6.41072 2.91542 7.92197 2.61482C9.43322 2.31421 10.9997 2.46849 12.4232 3.05815C13.8468 3.64781 15.0635 4.64637 15.9196 5.92754C16.7756 7.20871 17.2326 8.71497 17.2326 10.2558C17.2303 12.3213 16.4088 14.3016 14.9482 15.7622C13.4877 17.2227 11.5074 18.0443 9.44186 18.0465Z" fill="white"/>
<path d="M9.44174 5.58142C9.23512 5.58142 9.03696 5.6635 8.89085 5.8096C8.74475 5.95571 8.66267 6.15387 8.66267 6.36049V9.72996L6.03642 11.3754C5.8608 11.4851 5.73594 11.6601 5.68934 11.8618C5.64273 12.0636 5.67818 12.2756 5.7879 12.4512C5.89762 12.6269 6.07261 12.7517 6.27438 12.7983C6.47615 12.8449 6.68817 12.8095 6.8638 12.6998L9.85542 10.83C9.96846 10.7592 10.0614 10.6605 10.1254 10.5435C10.1894 10.4264 10.2222 10.2949 10.2208 10.1616V6.36049C10.2208 6.15387 10.1387 5.95571 9.99262 5.8096C9.84652 5.6635 9.64836 5.58142 9.44174 5.58142Z" fill="white"/>
</g>
<defs>
<clipPath id="clip0_148_350">
<rect width="18.6977" height="18.6977" fill="white" transform="translate(0.0930252 0.906982)"/>
</clipPath>
</defs>
</svg>
