<svg width="40" height="40" viewBox="0 0 40 40" fill="none" xmlns="http://www.w3.org/2000/svg">
<g clip-path="url(#clip0_245_979)">
<path d="M17.4997 28.3331C17.0615 28.3335 16.6274 28.2474 16.2225 28.0798C15.8175 27.9122 15.4496 27.6664 15.1397 27.3565L8.83307 21.1915C8.51702 20.882 8.33683 20.4597 8.33214 20.0175C8.32745 19.5752 8.49865 19.1492 8.80807 18.8331C9.11749 18.5171 9.53978 18.3369 9.98206 18.3322C10.4243 18.3275 10.8504 18.4987 11.1664 18.8081L17.4881 24.9865L28.8314 13.8198C29.1513 13.5383 29.5668 13.3901 29.9926 13.4055C30.4184 13.4209 30.8221 13.5988 31.1209 13.9026C31.4196 14.2064 31.5906 14.6131 31.5987 15.0391C31.6069 15.4651 31.4516 15.8781 31.1647 16.1931L19.8431 27.3715C19.5349 27.678 19.1693 27.9207 18.7672 28.0857C18.3651 28.2507 17.9344 28.3348 17.4997 28.3331ZM39.9997 31.6665V20.5665C40.0619 15.4289 38.1782 10.4579 34.7269 6.65174C31.2756 2.84553 26.5122 0.485849 21.3931 0.0464529C18.5358 -0.153451 15.669 0.262686 12.9865 1.26671C10.304 2.27073 7.86841 3.83921 5.84459 5.86603C3.82077 7.89286 2.2559 10.3307 1.25586 13.0147C0.255814 15.6987 -0.156072 18.5662 0.0480673 21.4231C0.784734 32.0131 10.1364 39.9998 21.8047 39.9998H31.6664C33.8757 39.9971 35.9938 39.1183 37.556 37.5561C39.1183 35.9939 39.9971 33.8758 39.9997 31.6665ZM21.1664 3.37312C25.4438 3.75151 29.4196 5.73464 32.2949 8.92404C35.1702 12.1134 36.7319 16.2728 36.6664 20.5665V31.6665C36.6664 32.9925 36.1396 34.2643 35.2019 35.202C34.2643 36.1397 32.9925 36.6665 31.6664 36.6665H21.8047C11.7481 36.6665 3.99973 30.1665 3.37473 21.1931C3.21065 18.9074 3.51969 16.6124 4.28254 14.4516C5.04539 12.2907 6.24566 10.3103 7.80836 8.63424C9.37106 6.95814 11.2626 5.62231 13.3648 4.7102C15.4671 3.79809 17.7348 3.3293 20.0264 3.33312C20.4047 3.33312 20.7864 3.34812 21.1664 3.37312Z" fill="#1D2E66"/>
</g>
<defs>
<clipPath id="clip0_245_979">
<rect width="40" height="40" fill="white"/>
</clipPath>
</defs>
</svg>
