<svg width="40" height="50" viewBox="0 0 40 50" fill="none" xmlns="http://www.w3.org/2000/svg">
<path d="M7.07605 48.6535H32.9239C37.6338 48.6535 40 46.3098 40 41.6676V19.1775C40 14.5352 37.6338 12.1915 32.9239 12.1915H26.6366V15.8197H32.8563C35.0873 15.8197 36.3718 17.0366 36.3718 19.3803V41.4648C36.3718 43.8084 35.0873 45.0253 32.8563 45.0253H7.12112C4.8676 45.0253 3.62816 43.8084 3.62816 41.4648V19.3803C3.62816 17.0366 4.8676 15.8197 7.12112 15.8197H13.3633V12.1915H7.07605C2.3662 12.1915 0 14.5352 0 19.1775V41.6676C0 46.3098 2.3662 48.6535 7.07605 48.6535ZM19.9887 33.8253C20.462 33.8253 20.845 33.6901 21.2958 33.2394L28.9126 25.8704C29.2507 25.5323 29.4535 25.1718 29.4535 24.6986C29.4535 23.7746 28.7323 23.1211 27.8085 23.1211C27.3577 23.1211 26.907 23.3014 26.5915 23.662L23.1662 27.2901L21.6563 28.8901L21.7915 25.5098V1.75775C21.7915 0.811267 20.9577 0 19.9887 0C19.0197 0 18.2085 0.811267 18.2085 1.75775V25.5098L18.3436 28.8901L16.8113 27.2901L13.4085 23.662C13.093 23.3014 12.5972 23.1211 12.169 23.1211C11.2225 23.1211 10.5465 23.7746 10.5465 24.6986C10.5465 25.1718 10.7268 25.5323 11.0648 25.8704L18.6817 33.2394C19.155 33.6901 19.538 33.8253 19.9887 33.8253Z" fill="#90B46D"/>
</svg>
