<svg width="25" height="25" viewBox="0 0 25 25" fill="none" xmlns="http://www.w3.org/2000/svg">
<g clip-path="url(#clip0_177_6092)">
<path d="M19.7917 5.20834H16.6667V4.16667C16.6667 3.33787 16.3374 2.54301 15.7514 1.95696C15.1653 1.37091 14.3705 1.04167 13.5417 1.04167H11.4583C10.6295 1.04167 9.83467 1.37091 9.24862 1.95696C8.66257 2.54301 8.33333 3.33787 8.33333 4.16667V5.20834H5.20833C3.82751 5.20999 2.50371 5.75926 1.52731 6.73565C0.550919 7.71205 0.00165402 9.03585 0 10.4167L0 18.75C0.00165402 20.1308 0.550919 21.4546 1.52731 22.431C2.50371 23.4074 3.82751 23.9567 5.20833 23.9583H19.7917C21.1725 23.9567 22.4963 23.4074 23.4727 22.431C24.4491 21.4546 24.9983 20.1308 25 18.75V10.4167C24.9983 9.03585 24.4491 7.71205 23.4727 6.73565C22.4963 5.75926 21.1725 5.20999 19.7917 5.20834ZM10.4167 4.16667C10.4167 3.89041 10.5264 3.62545 10.7218 3.4301C10.9171 3.23475 11.1821 3.12501 11.4583 3.12501H13.5417C13.8179 3.12501 14.0829 3.23475 14.2782 3.4301C14.4736 3.62545 14.5833 3.89041 14.5833 4.16667V5.20834H10.4167V4.16667ZM22.9167 18.75C22.9167 19.5788 22.5874 20.3737 22.0014 20.9597C21.4153 21.5458 20.6205 21.875 19.7917 21.875H5.20833C4.37953 21.875 3.58468 21.5458 2.99862 20.9597C2.41257 20.3737 2.08333 19.5788 2.08333 18.75V10.4167C2.08333 9.58787 2.41257 8.79302 2.99862 8.20696C3.58468 7.62091 4.37953 7.29167 5.20833 7.29167H19.7917C20.6205 7.29167 21.4153 7.62091 22.0014 8.20696C22.5874 8.79302 22.9167 9.58787 22.9167 10.4167V18.75ZM16.6667 14.5833C16.6667 14.8596 16.5569 15.1246 16.3616 15.3199C16.1662 15.5153 15.9013 15.625 15.625 15.625H13.5417V17.7083C13.5417 17.9846 13.4319 18.2496 13.2366 18.4449C13.0412 18.6403 12.7763 18.75 12.5 18.75C12.2237 18.75 11.9588 18.6403 11.7634 18.4449C11.5681 18.2496 11.4583 17.9846 11.4583 17.7083V15.625H9.375C9.09873 15.625 8.83378 15.5153 8.63843 15.3199C8.44308 15.1246 8.33333 14.8596 8.33333 14.5833C8.33333 14.3071 8.44308 14.0421 8.63843 13.8468C8.83378 13.6514 9.09873 13.5417 9.375 13.5417H11.4583V11.4583C11.4583 11.1821 11.5681 10.9171 11.7634 10.7218C11.9588 10.5264 12.2237 10.4167 12.5 10.4167C12.7763 10.4167 13.0412 10.5264 13.2366 10.7218C13.4319 10.9171 13.5417 11.1821 13.5417 11.4583V13.5417H15.625C15.9013 13.5417 16.1662 13.6514 16.3616 13.8468C16.5569 14.0421 16.6667 14.3071 16.6667 14.5833Z" fill="white"/>
</g>
<defs>
<clipPath id="clip0_177_6092">
<rect width="25" height="25" fill="white"/>
</clipPath>
</defs>
</svg>
