<svg width="40" height="40" viewBox="0 0 40 40" fill="none" xmlns="http://www.w3.org/2000/svg">
<g clip-path="url(#clip0_285_275)">
<path d="M31.6667 36.6678H8.33332C6.12399 36.6652 4.00591 35.7863 2.44368 34.2241C0.881455 32.6619 0.00263117 30.5438 -1.52588e-05 28.3345L-1.52588e-05 11.6678C0.00263117 9.45848 0.881455 7.3404 2.44368 5.77817C4.00591 4.21594 6.12399 3.33712 8.33332 3.33447H31.6667C33.876 3.33712 35.9941 4.21594 37.5563 5.77817C39.1185 7.3404 39.9973 9.45848 40 11.6678V28.3345C39.9973 30.5438 39.1185 32.6619 37.5563 34.2241C35.9941 35.7863 33.876 36.6652 31.6667 36.6678ZM8.33332 6.66781C7.00724 6.66781 5.73547 7.19459 4.79778 8.13227C3.8601 9.06995 3.33332 10.3417 3.33332 11.6678V28.3345C3.33332 29.6606 3.8601 30.9323 4.79778 31.87C5.73547 32.8077 7.00724 33.3345 8.33332 33.3345H31.6667C32.9927 33.3345 34.2645 32.8077 35.2022 31.87C36.1399 30.9323 36.6666 29.6606 36.6666 28.3345V11.6678C36.6666 10.3417 36.1399 9.06995 35.2022 8.13227C34.2645 7.19459 32.9927 6.66781 31.6667 6.66781H8.33332Z" fill="#E22D3A"/>
<path d="M31.6664 21.6678H18.3331C17.891 21.6678 17.4671 21.4922 17.1546 21.1797C16.842 20.8671 16.6664 20.4432 16.6664 20.0011C16.6664 19.5591 16.842 19.1352 17.1546 18.8226C17.4671 18.5101 17.891 18.3345 18.3331 18.3345H31.6664C32.1084 18.3345 32.5323 18.5101 32.8449 18.8226C33.1575 19.1352 33.3331 19.5591 33.3331 20.0011C33.3331 20.4432 33.1575 20.8671 32.8449 21.1797C32.5323 21.4922 32.1084 21.6678 31.6664 21.6678Z" fill="#E22D3A"/>
<path d="M11.6668 21.6678H8.33346C7.89143 21.6678 7.46751 21.4922 7.15495 21.1797C6.84239 20.8671 6.66679 20.4432 6.66679 20.0011C6.66679 19.5591 6.84239 19.1352 7.15495 18.8226C7.46751 18.5101 7.89143 18.3345 8.33346 18.3345H11.6668C12.1088 18.3345 12.5327 18.5101 12.8453 18.8226C13.1579 19.1352 13.3334 19.5591 13.3334 20.0011C13.3334 20.4432 13.1579 20.8671 12.8453 21.1797C12.5327 21.4922 12.1088 21.6678 11.6668 21.6678Z" fill="#E22D3A"/>
<path d="M21.6668 29.9989H8.33346C7.89143 29.9989 7.46751 29.8233 7.15495 29.5107C6.84239 29.1982 6.66679 28.7742 6.66679 28.3322C6.66679 27.8902 6.84239 27.4662 7.15495 27.1537C7.46751 26.8411 7.89143 26.6655 8.33346 26.6655H21.6668C22.1088 26.6655 22.5327 26.8411 22.8453 27.1537C23.1579 27.4662 23.3335 27.8902 23.3335 28.3322C23.3335 28.7742 23.1579 29.1982 22.8453 29.5107C22.5327 29.8233 22.1088 29.9989 21.6668 29.9989Z" fill="#E22D3A"/>
<path d="M31.6664 29.9989H28.3331C27.891 29.9989 27.4671 29.8233 27.1546 29.5107C26.842 29.1982 26.6664 28.7742 26.6664 28.3322C26.6664 27.8902 26.842 27.4662 27.1546 27.1537C27.4671 26.8411 27.891 26.6655 28.3331 26.6655H31.6664C32.1084 26.6655 32.5324 26.8411 32.8449 27.1537C33.1575 27.4662 33.3331 27.8902 33.3331 28.3322C33.3331 28.7742 33.1575 29.1982 32.8449 29.5107C32.5324 29.8233 32.1084 29.9989 31.6664 29.9989Z" fill="#E22D3A"/>
</g>
<defs>
<clipPath id="clip0_285_275">
<rect width="40" height="40" fill="white"/>
</clipPath>
</defs>
</svg>
