<svg width="19" height="20" viewBox="0 0 19 20" fill="none" xmlns="http://www.w3.org/2000/svg">
<g clip-path="url(#clip0_148_356)">
<path d="M17.4291 4.82509C16.7308 3.66134 15.4895 2.8855 14.093 2.8855H4.78293C3.38641 2.8855 2.1451 3.66134 1.44682 4.82509C0.593413 6.37678 0.127907 8.08363 0.127907 9.86806C0.127907 14.1351 1.83476 17.6264 4.00709 17.6264C5.17084 17.6264 6.10185 16.5402 6.80009 14.2903C6.87766 13.98 7.18799 13.7472 7.57594 13.7472H11.3776C11.6879 13.7472 11.9982 13.98 12.1534 14.2903C12.8516 16.5402 13.7826 17.6264 14.9464 17.6264C17.1187 17.6264 18.8256 14.1351 18.8256 9.86806C18.748 8.08363 18.2825 6.37678 17.4291 4.82509ZM14.8688 16.0747C14.6361 16.0747 14.093 15.4541 13.5499 13.8248C13.2395 12.8162 12.3085 12.1956 11.2999 12.1956H7.57594C6.56736 12.1956 5.63634 12.8938 5.32601 13.8248C4.78293 15.4541 4.23982 16.0747 4.00709 16.0747C3.23125 16.0747 1.67959 13.6696 1.67959 9.86806C1.67959 8.39397 2.0675 6.91989 2.76578 5.60097C3.23128 4.90273 4.00713 4.43722 4.78297 4.43722H14.093C14.8689 4.43722 15.6447 4.90273 16.1102 5.60097C16.8085 6.91989 17.1964 8.39397 17.1964 9.86806C17.1963 13.6696 15.6446 16.0747 14.8688 16.0747Z" fill="white"/>
<path d="M7.13957 7.91865H6.36051V7.13959C6.36051 6.67215 6.0489 6.36053 5.58145 6.36053C5.11401 6.36053 4.8024 6.67215 4.8024 7.13959V7.91865H4.02334C3.55589 7.91865 3.24428 8.23026 3.24428 8.6977C3.24428 9.16514 3.55589 9.47676 4.02334 9.47676H4.80236V10.2558C4.80236 10.7233 5.11397 11.0349 5.58142 11.0349C6.04886 11.0349 6.36048 10.7233 6.36048 10.2558V9.47679H7.13957C7.60701 9.47679 7.91863 9.16518 7.91863 8.69774C7.91863 8.23026 7.60701 7.91865 7.13957 7.91865Z" fill="white"/>
<path d="M14.5407 8.69768C15.1861 8.69768 15.7093 8.17448 15.7093 7.52908C15.7093 6.88368 15.1861 6.36047 14.5407 6.36047C13.8953 6.36047 13.3721 6.88368 13.3721 7.52908C13.3721 8.17448 13.8953 8.69768 14.5407 8.69768Z" fill="white"/>
<path d="M12.2035 11.0349C12.8489 11.0349 13.3721 10.5117 13.3721 9.8663C13.3721 9.2209 12.8489 8.69769 12.2035 8.69769C11.5581 8.69769 11.0349 9.2209 11.0349 9.8663C11.0349 10.5117 11.5581 11.0349 12.2035 11.0349Z" fill="white"/>
</g>
<defs>
<clipPath id="clip0_148_356">
<rect width="18.6977" height="18.6977" fill="white" transform="translate(0.127907 0.906982)"/>
</clipPath>
</defs>
</svg>
