<svg width="40" height="40" viewBox="0 0 40 40" fill="none" xmlns="http://www.w3.org/2000/svg">
<g clip-path="url(#clip0_285_287)">
<path d="M14.9417 40H6.66667C4.89856 40 3.20286 39.2976 1.95262 38.0474C0.702379 36.7971 0 35.1014 0 33.3333V25C0 23.2319 0.702379 21.5362 1.95262 20.286C3.20286 19.0357 4.89856 18.3333 6.66667 18.3333H21.4283C22.3303 18.3338 23.217 18.567 24.0024 19.0105C24.7878 19.4541 25.4455 20.0928 25.9117 20.865L31.2733 14.9733C31.7168 14.4856 32.2521 14.0901 32.8485 13.8094C33.4449 13.5287 34.0908 13.3683 34.7493 13.3373C35.4077 13.3064 36.0658 13.4055 36.6859 13.629C37.3061 13.8525 37.876 14.1961 38.3633 14.64C39.3356 15.5332 39.9183 16.7725 39.9859 18.091C40.0536 19.4096 39.6008 20.702 38.725 21.69L27.3917 34.4183C25.8268 36.1734 23.9088 37.5779 21.7632 38.5398C19.6176 39.5017 17.293 39.9993 14.9417 40ZM6.66667 21.6667C5.78261 21.6667 4.93476 22.0179 4.30964 22.643C3.68452 23.2681 3.33333 24.1159 3.33333 25V33.3333C3.33333 34.2174 3.68452 35.0652 4.30964 35.6904C4.93476 36.3155 5.78261 36.6667 6.66667 36.6667H14.9417C16.8215 36.6659 18.68 36.2679 20.3953 35.4987C22.1106 34.7295 23.644 33.6065 24.895 32.2033L36.2367 19.4733C36.5311 19.1417 36.6836 18.7076 36.6611 18.2646C36.6387 17.8217 36.4431 17.4052 36.1167 17.105C35.7847 16.8065 35.3494 16.6493 34.9033 16.6667C34.6822 16.676 34.4651 16.7293 34.2648 16.8235C34.0645 16.9176 33.885 17.0507 33.7367 17.215L26.36 25.3333C26.0361 26.2296 25.475 27.0212 24.7365 27.6235C23.998 28.2258 23.1098 28.6163 22.1667 28.7533L13.565 29.9833C13.1274 30.0461 12.6828 29.9325 12.329 29.6674C11.9751 29.4024 11.7411 29.0076 11.6783 28.57C11.6156 28.1324 11.7292 27.6878 11.9943 27.334C12.2593 26.9801 12.6541 26.7461 13.0917 26.6833L21.695 25.455C22.1726 25.3882 22.607 25.1427 22.9105 24.768C23.214 24.3933 23.364 23.9174 23.3301 23.4363C23.2963 22.9553 23.0811 22.5051 22.7281 22.1766C22.3751 21.8481 21.9105 21.6659 21.4283 21.6667H6.66667ZM18.3333 15.1233C17.5779 15.1254 16.8446 14.8689 16.255 14.3967C13.4017 12.1067 10 8.66667 10 5.33333C9.95908 3.96394 10.4621 2.63407 11.3991 1.63461C12.3361 0.635139 13.6308 0.0474203 15 0C16.2456 0.00485137 17.4406 0.493029 18.3333 1.36167C19.226 0.493029 20.4211 0.00485137 21.6667 0C23.0358 0.0474203 24.3305 0.635139 25.2675 1.63461C26.2045 2.63407 26.7076 3.96394 26.6667 5.33333C26.6667 8.66667 23.265 12.1067 20.41 14.3983C19.8207 14.8697 19.088 15.1255 18.3333 15.1233ZM15 3.33333C14.5156 3.38194 14.0696 3.6187 13.7579 3.99271C13.4462 4.36671 13.2938 4.84809 13.3333 5.33333C13.3333 6.83333 15.2517 9.31667 18.3433 11.7983C21.415 9.31667 23.3333 6.83333 23.3333 5.33333C23.3729 4.84809 23.2204 4.36671 22.9088 3.99271C22.5971 3.6187 22.1511 3.38194 21.6667 3.33333C21.1823 3.38194 20.7363 3.6187 20.4246 3.99271C20.1129 4.36671 19.9605 4.84809 20 5.33333C20 5.77536 19.8244 6.19928 19.5118 6.51184C19.1993 6.82441 18.7754 7 18.3333 7C17.8913 7 17.4674 6.82441 17.1548 6.51184C16.8423 6.19928 16.6667 5.77536 16.6667 5.33333C16.7062 4.84809 16.5538 4.36671 16.2421 3.99271C15.9304 3.6187 15.4844 3.38194 15 3.33333Z" fill="#6479BF"/>
</g>
<defs>
<clipPath id="clip0_285_287">
<rect width="40" height="40" fill="white"/>
</clipPath>
</defs>
</svg>
