<svg width="25" height="25" viewBox="0 0 25 25" fill="none" xmlns="http://www.w3.org/2000/svg">
<path d="M22.9167 5.96607V2.08763C22.9167 1.51274 22.451 1.04616 21.875 1.04616C21.299 1.04616 20.8333 1.51274 20.8333 2.08763V4.55175L15.4135 0.895145C13.6438 -0.298382 11.3563 -0.298382 9.58646 0.895145L2.29479 5.81506C0.858334 6.78467 0 8.39791 0 10.132V19.7926C0 22.664 2.33646 25 5.20833 25H8.33333C8.90938 25 9.375 24.5334 9.375 23.9585V15.6268C9.375 15.0529 9.84167 14.5853 10.4167 14.5853H14.5833C15.1583 14.5853 15.625 15.0529 15.625 15.6268V23.9585C15.625 24.5334 16.0906 25 16.6667 25H19.7917C22.6635 25 25 22.664 25 19.7926V10.132C25 8.48539 24.225 6.94713 22.9167 5.96607ZM22.9167 19.7926C22.9167 21.5152 21.5146 22.9171 19.7917 22.9171H17.7083V15.6268C17.7083 13.9042 16.3063 12.5023 14.5833 12.5023H10.4167C8.69375 12.5023 7.29167 13.9042 7.29167 15.6268V22.9171H5.20833C3.48542 22.9171 2.08333 21.5152 2.08333 19.7926V10.132C2.08333 9.09153 2.59792 8.12296 3.46042 7.54182L10.7521 2.6219C11.8146 1.90537 13.1854 1.90537 14.2469 2.6219L21.5385 7.54182C22.401 8.12296 22.9156 9.09153 22.9156 10.132L22.9167 19.7926Z" fill="white"/>
</svg>
