<svg width="14" height="14" viewBox="0 0 14 14" fill="none" xmlns="http://www.w3.org/2000/svg">
<g clip-path="url(#clip0_576_400)">
<path d="M9.91699 4.6673H4.08366V4.08396C4.08348 3.43728 4.29822 2.80888 4.69413 2.29755C5.09003 1.78622 5.64464 1.42096 6.27077 1.25921C6.89689 1.09745 7.55902 1.14836 8.15305 1.40395C8.74709 1.65953 9.23934 2.10528 9.55241 2.67113C9.5896 2.73812 9.63962 2.79713 9.69962 2.84479C9.75961 2.89245 9.82841 2.92782 9.90208 2.94889C9.97575 2.96997 10.0528 2.97632 10.129 2.9676C10.2051 2.95887 10.2788 2.93524 10.3457 2.89805C10.4127 2.86086 10.4717 2.81083 10.5194 2.75084C10.5671 2.69084 10.6024 2.62205 10.6235 2.54838C10.6446 2.47471 10.6509 2.39761 10.6422 2.32149C10.6335 2.24537 10.6098 2.17171 10.5727 2.10471C10.1342 1.31273 9.44492 0.688917 8.61326 0.33133C7.78161 -0.0262563 6.8547 -0.0973399 5.97825 0.129253C5.1018 0.355846 4.32549 0.867268 3.77136 1.58313C3.21723 2.29899 2.91669 3.17869 2.91699 4.08396V4.91463C2.39745 5.14138 1.95525 5.5146 1.64445 5.98867C1.33365 6.46274 1.16774 7.0171 1.16699 7.58397V11.084C1.16792 11.8572 1.47551 12.5986 2.02229 13.1453C2.56907 13.6921 3.3104 13.9997 4.08366 14.0006H9.91699C10.6903 13.9997 11.4316 13.6921 11.9784 13.1453C12.5251 12.5986 12.8327 11.8572 12.8337 11.084V7.58397C12.8327 6.8107 12.5251 6.06937 11.9784 5.52259C11.4316 4.97581 10.6903 4.66822 9.91699 4.6673ZM11.667 11.084C11.667 11.5481 11.4826 11.9932 11.1544 12.3214C10.8262 12.6496 10.3811 12.834 9.91699 12.834H4.08366C3.61953 12.834 3.17441 12.6496 2.84622 12.3214C2.51803 11.9932 2.33366 11.5481 2.33366 11.084V7.58397C2.33366 7.11984 2.51803 6.67472 2.84622 6.34653C3.17441 6.01834 3.61953 5.83396 4.08366 5.83396H9.91699C10.3811 5.83396 10.8262 6.01834 11.1544 6.34653C11.4826 6.67472 11.667 7.11984 11.667 7.58397V11.084Z" fill="#1D2E66"/>
<path d="M7.00033 8.16699C6.84562 8.16699 6.69724 8.22845 6.58785 8.33785C6.47845 8.44724 6.41699 8.59562 6.41699 8.75032V9.91699C6.41699 10.0717 6.47845 10.2201 6.58785 10.3295C6.69724 10.4389 6.84562 10.5003 7.00033 10.5003C7.15504 10.5003 7.30341 10.4389 7.41281 10.3295C7.52221 10.2201 7.58367 10.0717 7.58367 9.91699V8.75032C7.58367 8.59562 7.52221 8.44724 7.41281 8.33785C7.30341 8.22845 7.15504 8.16699 7.00033 8.16699Z" fill="#1D2E66"/>
</g>
<defs>
<clipPath id="clip0_576_400">
<rect width="14" height="14" fill="white"/>
</clipPath>
</defs>
</svg>
