<svg width="100%" height="100%" viewBox="0 0 14 14" fill="currentColor" xmlns="http://www.w3.org/2000/svg">
<g clip-path="url(#clip0_576_382)">
<path d="M11.6667 0H2.33333C1.71449 0 1.121 0.245833 0.683417 0.683418C0.245833 1.121 0 1.71449 0 2.33333L0 9.33333C0 9.95217 0.245833 10.5457 0.683417 10.9832C1.121 11.4208 1.71449 11.6667 2.33333 11.6667H4.025L6.62142 13.8618C6.72675 13.9509 6.86026 13.9998 6.99825 13.9998C7.13624 13.9998 7.26975 13.9509 7.37508 13.8618L9.975 11.6667H11.6667C12.2855 11.6667 12.879 11.4208 13.3166 10.9832C13.7542 10.5457 14 9.95217 14 9.33333V2.33333C14 1.71449 13.7542 1.121 13.3166 0.683418C12.879 0.245833 12.2855 0 11.6667 0V0ZM12.8333 9.33333C12.8333 9.64275 12.7104 9.9395 12.4916 10.1583C12.2728 10.3771 11.9761 10.5 11.6667 10.5H9.975C9.69925 10.5001 9.43245 10.5978 9.22192 10.7759L7 12.6525L4.77925 10.7759C4.56841 10.5976 4.30115 10.4998 4.025 10.5H2.33333C2.02391 10.5 1.72717 10.3771 1.50838 10.1583C1.28958 9.9395 1.16667 9.64275 1.16667 9.33333V2.33333C1.16667 2.02391 1.28958 1.72717 1.50838 1.50838C1.72717 1.28958 2.02391 1.16667 2.33333 1.16667H11.6667C11.9761 1.16667 12.2728 1.28958 12.4916 1.50838C12.7104 1.72717 12.8333 2.02391 12.8333 2.33333V9.33333Z"/>
<path d="M4.08333 4.08341H7C7.15471 4.08341 7.30308 4.02195 7.41248 3.91256C7.52188 3.80316 7.58333 3.65479 7.58333 3.50008C7.58333 3.34537 7.52188 3.197 7.41248 3.0876C7.30308 2.97821 7.15471 2.91675 7 2.91675H4.08333C3.92862 2.91675 3.78025 2.97821 3.67085 3.0876C3.56146 3.197 3.5 3.34537 3.5 3.50008C3.5 3.65479 3.56146 3.80316 3.67085 3.91256C3.78025 4.02195 3.92862 4.08341 4.08333 4.08341Z" />
<path d="M9.91667 5.25H4.08333C3.92862 5.25 3.78025 5.31146 3.67085 5.42085C3.56146 5.53025 3.5 5.67862 3.5 5.83333C3.5 5.98804 3.56146 6.13641 3.67085 6.24581C3.78025 6.35521 3.92862 6.41666 4.08333 6.41666H9.91667C10.0714 6.41666 10.2197 6.35521 10.3291 6.24581C10.4385 6.13641 10.5 5.98804 10.5 5.83333C10.5 5.67862 10.4385 5.53025 10.3291 5.42085C10.2197 5.31146 10.0714 5.25 9.91667 5.25Z" />
<path d="M9.91667 7.58325H4.08333C3.92862 7.58325 3.78025 7.64471 3.67085 7.75411C3.56146 7.8635 3.5 8.01188 3.5 8.16659C3.5 8.3213 3.56146 8.46967 3.67085 8.57907C3.78025 8.68847 3.92862 8.74993 4.08333 8.74993H9.91667C10.0714 8.74993 10.2197 8.68847 10.3291 8.57907C10.4385 8.46967 10.5 8.3213 10.5 8.16659C10.5 8.01188 10.4385 7.8635 10.3291 7.75411C10.2197 7.64471 10.0714 7.58325 9.91667 7.58325Z" />
</g>
<defs>
<clipPath id="clip0_576_382">
<rect width="100%" height="100%" fill="white"/>
</clipPath>
</defs>
</svg>
