<svg width="356" height="381" viewBox="0 0 356 381" fill="none" xmlns="http://www.w3.org/2000/svg">
<path opacity="0.6" d="M150.321 330.598C117.901 330.589 83.0628 325.161 59.63 302.806C39.0012 283.126 30.8152 251.479 39.3374 224.35C47.8587 197.22 72.6796 175.906 100.871 171.507C128.258 167.233 155.642 177.819 180.849 189.358C206.056 200.896 231.717 213.859 259.43 214.715C274.661 215.185 290.663 211.516 301.903 201.28C312.627 191.513 317.814 176.807 318.665 162.347C320.632 128.925 300.146 96.0133 270.545 80.1256C240.944 64.2379 203.874 64.7081 173.244 78.4379" stroke="#5205DB" stroke-width="0.5" stroke-miterlimit="10" stroke-dasharray="2 1"/>
<path d="M253.183 82.8965L251.86 330.79C251.852 332.211 251.7 333.603 251.421 334.942C251.282 335.612 251.106 336.262 250.904 336.904C250.794 337.229 250.682 337.555 250.573 337.871C249.875 339.76 248.897 341.511 247.703 343.088C247.101 343.881 246.446 344.63 245.745 345.323C245.044 346.016 244.289 346.655 243.498 347.249C242.971 347.635 242.417 348.003 241.854 348.353L241.845 348.354C241.282 348.694 240.701 349.008 240.102 349.295L240.093 349.295C239.194 349.724 238.251 350.091 237.29 350.384L237.281 350.384C236.637 350.58 235.984 350.748 235.313 350.881C233.963 351.146 232.568 351.283 231.147 351.275L129.464 350.733C127.961 350.725 126.496 350.554 125.085 350.239C124.851 350.183 124.624 350.137 124.389 350.072C124.136 350.007 123.874 349.934 123.621 349.86C122.555 349.538 121.534 349.134 120.55 348.657C120.054 348.411 119.575 348.154 119.115 347.88C118.899 347.752 118.682 347.624 118.475 347.488C118.024 347.204 117.59 346.895 117.167 346.575C115.85 345.582 114.661 344.426 113.619 343.153C113.205 342.644 112.81 342.117 112.442 341.563C111.894 340.736 111.4 339.873 110.97 338.966C110.389 337.759 109.933 336.498 109.606 335.184L109.605 335.175C109.189 333.525 108.972 331.804 108.981 330.03L110.303 82.1337C110.364 70.7731 119.637 61.589 131.016 61.6498L232.699 62.1923C244.077 62.2538 253.243 71.536 253.183 82.8965Z" fill="#282629"/>
<path d="M248.657 82.8727L247.334 330.766C247.327 331.861 247.213 332.956 246.99 334.022C246.897 334.501 246.767 334.98 246.602 335.505L246.298 336.381C245.802 337.737 245.052 339.099 244.095 340.362C243.63 340.975 243.111 341.569 242.556 342.109C242.046 342.622 241.446 343.135 240.783 343.63C240.474 343.855 240.102 344.106 239.675 344.375L239.502 344.482C239.148 344.698 238.785 344.904 238.404 345.092L238.141 345.208C237.515 345.513 236.861 345.772 236.19 345.986L235.964 346.057C235.429 346.217 234.93 346.342 234.441 346.447C233.363 346.649 232.266 346.753 231.171 346.747L129.489 346.204C128.339 346.198 127.19 346.074 126.079 345.824C125.699 345.74 125.319 345.648 124.958 345.538C124.126 345.288 123.313 344.968 122.519 344.583C122.14 344.392 121.76 344.19 121.435 343.99C121.246 343.88 121.102 343.797 120.975 343.716L120.876 343.652C120.597 343.479 120.281 343.26 119.893 342.967C118.892 342.202 117.955 341.301 117.119 340.283C116.777 339.864 116.481 339.464 116.211 339.065C115.771 338.402 115.386 337.712 115.063 337.031C114.642 336.15 114.304 335.252 114.055 334.318L113.993 334.074C113.665 332.76 113.5 331.41 113.507 330.053L114.83 82.1595C114.877 73.3063 122.13 66.1302 130.993 66.1779L232.676 66.7204C239.438 66.757 245.217 70.9969 247.549 76.9385C248.271 78.7697 248.668 80.7808 248.657 82.8727Z" fill="#F7F7F7"/>
<path opacity="0.2" d="M251.785 262.068C251.898 261.145 252.049 260.05 252.246 258.811L252.141 278.355C251.107 275.263 250.405 272.987 250.282 272.153C249.977 270.114 250.851 265.81 251.785 262.068Z" fill="#282629"/>
<path d="M252.85 145.669L253.007 116.4C255.288 116.413 257.128 118.272 257.116 120.553L257.004 141.56C256.991 143.841 255.131 145.681 252.85 145.669Z" fill="#282629"/>
<path d="M110.134 130.272L112.114 130.283L112.192 115.648L110.212 115.638C109.025 115.631 108.056 116.589 108.05 117.777L107.995 128.109C107.988 129.298 108.946 130.267 110.134 130.272Z" fill="#282629"/>
<path d="M110.041 147.924L112.021 147.935L112.099 133.3L110.119 133.29C108.931 133.283 107.963 134.241 107.956 135.429L107.901 145.761C107.895 146.95 108.852 147.918 110.041 147.924Z" fill="#282629"/>
<path d="M196.939 72.7254L166.703 72.5643C161.616 72.537 157.515 68.392 157.542 63.3053L206.198 63.5647C206.17 68.6514 202.025 72.7528 196.939 72.7254Z" fill="#282629"/>
<path d="M266.852 324.966C266.867 325.451 266.914 325.93 266.986 326.398L269.484 326.805L270.338 329.165L268.68 331.077C269.187 331.916 269.79 332.686 270.471 333.379L272.731 332.236L274.811 333.641L274.593 336.166C275.455 336.526 276.367 336.796 277.311 336.957L278.481 334.708L280.991 334.642L282.287 336.822C283.251 336.6 284.173 336.27 285.037 335.841L284.66 333.336L286.651 331.804L288.978 332.801C289.614 332.068 290.168 331.262 290.624 330.393L288.85 328.589L289.556 326.182L292.025 325.618C292.068 325.12 292.086 324.611 292.068 324.095C292.05 323.623 292.006 323.161 291.94 322.705L289.442 322.291L288.596 319.928L290.265 318.02C289.756 317.182 289.156 316.403 288.475 315.707L286.21 316.843L284.134 315.432L284.362 312.906C283.473 312.532 282.535 312.252 281.56 312.089L280.398 314.344L277.888 314.421L276.589 312.244C275.625 312.471 274.705 312.805 273.842 313.235L274.226 315.741L272.243 317.281L269.912 316.29C269.276 317.027 268.723 317.836 268.273 318.704L270.057 320.5L269.36 322.914L266.889 323.483C266.848 323.972 266.833 324.467 266.852 324.966ZM275.716 320.295C278.053 318.23 281.625 318.439 283.699 320.787C285.761 323.133 285.544 326.702 283.2 328.764C280.867 330.838 277.292 330.619 275.226 328.28C273.147 325.936 273.374 322.36 275.716 320.295Z" fill="#7DBDDB"/>
<path d="M251.305 48.2063C251.205 48.7378 251.141 49.2703 251.107 49.7976L253.726 50.8401L254.087 53.6125L251.824 55.2943C252.174 56.3275 252.644 57.3115 253.218 58.2285L255.952 57.5289L257.876 59.5573L257.033 62.2517C257.884 62.8509 258.81 63.3642 259.8 63.7666L261.613 61.6007L264.359 62.1322L265.245 64.8155C266.347 64.8052 267.428 64.6672 268.471 64.4093L268.663 61.5928L271.196 60.4049L273.488 62.049C274.355 61.4055 275.152 60.6617 275.856 59.8253L274.359 57.437L275.705 54.9878L278.526 54.9676C278.692 54.4366 278.834 53.8875 278.939 53.3207C279.032 52.8028 279.096 52.2898 279.134 51.778L276.515 50.7272L276.163 47.9546L278.437 46.2802C278.086 45.2458 277.621 44.2535 277.047 43.3336L274.309 44.0253L272.391 41.9913L273.245 39.2981C272.368 38.6784 271.415 38.1484 270.394 37.7359L268.587 39.9093L265.838 39.3894L264.948 36.708C263.845 36.7237 262.764 36.8665 261.722 37.1263L261.538 39.9434L259.011 41.1425L256.714 39.5049C255.845 40.1536 255.049 40.8996 254.35 41.7357L255.86 44.1189L254.521 46.5777L251.697 46.6012C251.54 47.1245 251.404 47.6598 251.305 48.2063ZM262.069 45.2564C265.106 43.5722 268.942 44.6579 270.633 47.711C272.312 50.7584 271.218 54.5875 268.173 56.2676C265.136 57.9629 261.301 56.8654 259.616 53.8242C257.92 50.7748 259.027 46.9397 262.069 45.2564Z" fill="#3B4AE4"/>
<path d="M280.731 70.8588C280.68 71.1267 280.648 71.3952 280.631 71.6616L281.953 72.1874L282.135 73.5864L280.993 74.4352C281.169 74.9571 281.407 75.4528 281.697 75.916L283.077 75.5629L284.048 76.5871L283.622 77.9474C284.051 78.25 284.519 78.5083 285.018 78.7121L285.933 77.6187L287.319 77.8872L287.766 79.2411C288.323 79.2356 288.868 79.166 289.394 79.0364L289.491 77.6144L290.769 77.0147L291.926 77.8437C292.364 77.519 292.766 77.1436 293.121 76.7219L292.366 75.5163L293.045 74.2803L294.469 74.2703C294.553 74.0027 294.625 73.7254 294.678 73.4393C294.725 73.1781 294.757 72.9189 294.776 72.6603L293.455 72.13L293.277 70.73L294.426 69.8851C294.248 69.363 294.013 68.8622 293.724 68.3982L292.343 68.7473L291.374 67.7209L291.806 66.3615C291.363 66.0491 290.882 65.781 290.367 65.5735L289.455 66.6702L288.067 66.408L287.618 65.0545C287.061 65.0619 286.516 65.1343 285.99 65.2656L285.897 66.6875L284.622 67.2924L283.463 66.4657C283.025 66.7931 282.623 67.1696 282.27 67.5917L283.032 68.7947L282.356 70.036L280.931 70.0477C280.85 70.3122 280.781 70.5825 280.731 70.8588ZM286.163 69.3691C287.696 68.5188 289.632 69.0676 290.486 70.6082C291.333 72.1458 290.781 74.0784 289.244 74.9261C287.712 75.782 285.776 75.2276 284.925 73.6931C284.069 72.1541 284.628 70.219 286.163 69.3691Z" fill="#7DBDDB"/>
<path d="M45.2827 72.4681C45.1289 73.3929 45.0388 74.3189 44.9985 75.235L49.5817 76.947L50.3094 81.7427L46.4457 84.7426C47.0913 86.5224 47.9436 88.2118 48.9724 89.7823L53.6883 88.4673L57.1014 91.9149L55.7382 96.6207C57.2358 97.6284 58.862 98.4846 60.5928 99.1463L63.6583 95.3214L68.4413 96.1416L70.0758 100.764C71.9873 100.705 73.8589 100.427 75.6577 99.9413L75.8872 95.0477L80.2379 92.894L84.2748 95.6608C85.7562 94.5125 87.1106 93.1918 88.3005 91.7162L85.6161 87.6284L87.8613 83.33L92.755 83.1918C93.0241 82.2642 93.2486 81.3064 93.4105 80.3199C93.5527 79.4189 93.6435 78.5255 93.6919 77.6367L89.1102 75.9111L88.3976 71.1134L92.2813 68.1264C91.6332 66.3452 90.7891 64.6405 89.76 63.0663L85.0375 64.3663L81.6346 60.9084L83.0177 56.2052C81.4726 55.1623 79.8005 54.2776 78.0141 53.6005L74.9594 57.4375L70.1729 56.6371L68.5294 52.0188C66.6172 52.0864 64.7467 52.3742 62.9481 52.8637L62.7326 57.757L58.3915 59.93L54.348 57.1741C52.864 58.3321 51.512 59.655 50.3294 61.131L53.0359 65.2088L50.8045 69.5235L45.9069 69.6684C45.6505 70.5817 45.435 71.5151 45.2827 72.4681ZM63.8478 66.9523C69.0545 63.9197 75.7485 65.6613 78.7949 70.8945C81.8198 76.1184 80.0626 82.8013 74.843 85.8279C69.6373 88.881 62.9433 87.1181 59.9074 81.9043C56.8523 76.6788 58.6298 69.9856 63.8478 66.9523Z" fill="#A6A1FF"/>
<path d="M308.729 233.4C308.912 233.516 309.178 233.433 309.377 233.22C310.187 233.646 310.536 233.848 310.886 234.243C310.654 234.798 310.892 234.955 309.65 234.689C309.655 234.497 309.571 234.335 309.43 234.301C309.258 234.259 309.069 234.426 309.008 234.673C308.948 234.921 309.039 235.156 309.211 235.199C309.351 235.233 309.502 235.127 309.587 234.953C310.839 235.238 310.548 235.221 310.517 235.883C310.019 236.068 309.62 236.147 308.675 236.201C308.614 235.956 308.455 235.778 308.26 235.769C308 235.758 307.775 236.05 307.759 236.424C307.742 236.798 307.939 237.111 308.199 237.122C308.422 237.132 308.618 236.917 308.68 236.618C310.803 236.552 310.52 236.733 310.657 237.275C310.448 237.403 310.216 237.504 309.801 237.643C309.696 237.474 309.528 237.385 309.39 237.438C309.224 237.502 309.165 237.748 309.258 237.985C309.35 238.223 309.56 238.363 309.725 238.299C309.856 238.248 309.919 238.084 309.894 237.9C310.3 237.775 310.539 237.712 310.786 237.703C310.964 238.206 311.383 238.258 309.603 239.425C309.387 239.235 309.121 239.178 308.949 239.307C308.741 239.464 308.756 239.833 308.981 240.131C309.207 240.429 309.558 240.544 309.766 240.387C309.928 240.264 309.952 240.012 309.848 239.764C311.635 238.653 311.404 238.981 311.914 239.494C311.791 239.719 311.629 239.933 311.311 240.291C311.13 240.187 310.93 240.19 310.833 240.309C310.722 240.447 310.792 240.689 310.991 240.85C311.19 241.01 311.441 241.027 311.553 240.889C311.638 240.784 311.616 240.618 311.513 240.474C312.345 239.571 312.179 239.797 312.708 240.139C312.619 240.636 312.48 241.026 312.062 241.852C311.817 241.808 311.593 241.879 311.504 242.05C311.386 242.282 311.559 242.608 311.892 242.779C312.225 242.95 312.591 242.901 312.709 242.669C312.812 242.469 312.695 242.197 312.445 242.017C313.423 240.189 313.391 240.553 314.018 240.729C314.031 241.012 314.001 241.286 313.889 241.815C313.697 241.822 313.541 241.916 313.515 242.058C313.484 242.233 313.662 242.41 313.913 242.457C314.164 242.502 314.394 242.397 314.425 242.223C314.451 242.08 314.336 241.936 314.156 241.863C314.273 241.347 314.34 241.087 314.485 240.835C315.035 240.932 315.296 240.571 315.416 242.838C315.143 242.914 314.953 243.103 314.965 243.314C314.981 243.574 315.297 243.766 315.669 243.743C316.043 243.72 316.332 243.492 316.317 243.231C316.305 243.025 316.101 242.863 315.83 242.816C315.79 241.811 315.787 241.406 315.983 240.859C316.153 240.835 316.321 240.801 316.486 240.76C316.625 240.986 316.731 241.24 316.89 241.724C316.735 241.832 316.656 241.993 316.71 242.125C316.776 242.289 317.022 242.344 317.258 242.249C317.494 242.154 317.633 241.942 317.566 241.777C317.512 241.642 317.334 241.581 317.142 241.617C316.997 241.151 316.924 240.896 316.915 240.63C317.426 240.449 317.473 240.025 318.676 241.871C318.482 242.072 318.414 242.328 318.529 242.503C318.673 242.72 319.041 242.729 319.354 242.523C319.666 242.317 319.802 241.974 319.659 241.757C319.544 241.584 319.286 241.544 319.028 241.64C317.742 239.48 318.33 239.137 319.506 240.114C319.412 240.312 319.434 240.52 319.568 240.606C319.717 240.702 319.949 240.605 320.087 240.389C320.224 240.174 320.214 239.922 320.065 239.827C319.957 239.758 319.806 239.79 319.678 239.894C319.333 239.574 319.147 239.392 319.009 239.17C319.342 238.77 319.171 238.39 321.116 239.379C321.063 239.634 321.134 239.871 321.312 239.961C321.544 240.078 321.87 239.902 322.038 239.569C322.206 239.235 322.155 238.869 321.923 238.751C321.727 238.653 321.466 238.763 321.288 239C320.452 238.561 320.098 238.359 319.743 237.958C319.818 237.776 319.886 237.588 319.94 237.393C320.223 237.38 320.496 237.411 321.022 237.521C321.019 237.722 321.112 237.889 321.257 237.918C321.431 237.954 321.614 237.779 321.664 237.53C321.714 237.28 321.615 237.049 321.441 237.013C321.304 236.985 321.162 237.088 321.083 237.257C320.561 237.139 320.299 237.071 320.046 236.927C320.144 236.373 319.782 236.115 322.056 235.995C322.154 236.262 322.359 236.438 322.57 236.407C322.828 236.37 322.993 236.039 322.939 235.669C322.884 235.299 322.632 235.029 322.374 235.067C322.171 235.096 322.028 235.309 322.001 235.58C319.822 235.651 320.109 235.47 319.971 234.924C320.195 234.787 320.446 234.681 320.919 234.527C321.051 234.685 321.236 234.752 321.368 234.675C321.521 234.586 321.541 234.334 321.412 234.114C321.284 233.894 321.055 233.788 320.901 233.877C320.784 233.946 320.745 234.11 320.791 234.281C320.348 234.419 320.1 234.486 319.841 234.496C319.659 233.984 319.233 233.938 321.098 232.725C321.338 232.884 321.61 232.905 321.762 232.753C321.946 232.569 321.882 232.205 321.618 231.94C321.354 231.675 320.99 231.609 320.806 231.792C320.662 231.935 320.671 232.186 320.805 232.416C319 233.539 319.228 233.221 318.712 232.703C318.837 232.473 319.003 232.254 319.336 231.883C319.5 231.963 319.672 231.956 319.761 231.85C319.876 231.715 319.812 231.471 319.617 231.306C319.423 231.141 319.172 231.116 319.057 231.251C318.96 231.366 318.991 231.558 319.121 231.715C318.792 232.072 318.606 232.261 318.381 232.402C317.987 232.074 317.613 232.235 318.55 230.375C318.848 230.465 319.138 230.392 319.234 230.185C319.344 229.95 319.159 229.63 318.82 229.472C318.481 229.314 318.117 229.376 318.007 229.611C317.926 229.784 318.005 230.003 318.187 230.169C317.765 230.97 317.563 231.318 317.17 231.667C316.614 231.435 316.457 231.675 316.726 230.418C316.939 230.405 317.106 230.287 317.118 230.133C317.132 229.955 316.937 229.797 316.683 229.776C316.429 229.757 316.211 229.885 316.197 230.061C316.187 230.194 316.295 230.318 316.457 230.379C316.175 231.618 316.19 231.329 315.53 231.298C315.349 230.811 315.269 230.417 315.216 229.515C315.49 229.46 315.692 229.289 315.697 229.078C315.703 228.818 315.404 228.601 315.029 228.593C314.656 228.585 314.347 228.789 314.342 229.05C314.338 229.258 314.53 229.436 314.797 229.505C314.833 230.421 314.827 230.815 314.64 231.34C314.134 231.411 314.118 231.668 313.758 230.554C313.939 230.451 314.037 230.277 313.982 230.135C313.919 229.969 313.675 229.908 313.436 229.998C313.197 230.09 313.055 230.298 313.119 230.464C313.167 230.591 313.323 230.656 313.5 230.638C313.851 231.765 313.738 231.512 313.156 231.804C312.755 231.468 312.485 231.153 311.96 230.347C312.16 230.153 312.237 229.901 312.128 229.721C311.992 229.499 311.624 229.478 311.304 229.672C310.985 229.867 310.836 230.206 310.972 230.428C311.081 230.606 311.34 230.653 311.604 230.564C312.758 232.413 312.438 232.179 311.917 232.699C311.697 232.578 311.487 232.421 311.145 232.117C311.24 231.965 311.25 231.797 311.156 231.698C311.036 231.568 310.786 231.604 310.6 231.777C310.413 231.951 310.36 232.198 310.48 232.328C310.584 232.439 310.782 232.428 310.954 232.313C311.294 232.628 311.477 232.809 311.614 233.029C311.285 233.423 311.449 233.799 309.582 232.858C309.662 232.606 309.614 232.359 309.444 232.251C309.224 232.113 308.883 232.257 308.684 232.574C308.491 232.893 308.509 233.263 308.729 233.4Z" fill="#A6A1FF"/>
<mask id="mask0_200_752" style="mask-type:luminance" maskUnits="userSpaceOnUse" x="113" y="66" width="136" height="281">
<path d="M248.655 82.8723L247.332 330.765C247.326 331.861 247.211 332.955 246.988 334.022C246.895 334.501 246.765 334.98 246.6 335.505L246.296 336.381C245.8 337.736 245.05 339.099 244.093 340.362C243.629 340.974 243.109 341.569 242.554 342.109C242.044 342.622 241.445 343.135 240.781 343.629C240.472 343.854 240.1 344.105 239.673 344.375L239.5 344.482C239.146 344.697 238.782 344.904 238.402 345.091L238.139 345.208C237.513 345.512 236.86 345.771 236.188 345.985L235.962 346.057C235.427 346.217 234.928 346.341 234.439 346.447C233.361 346.649 232.265 346.752 231.169 346.746L129.486 346.204C128.336 346.197 127.188 346.073 126.075 345.823C125.695 345.74 125.315 345.647 124.954 345.537C124.123 345.287 123.31 344.967 122.515 344.583C122.136 344.391 121.757 344.19 121.432 343.989C121.243 343.88 121.098 343.797 120.972 343.715L120.873 343.651C120.593 343.478 120.278 343.259 119.89 342.967C118.889 342.201 117.952 341.3 117.115 340.282C116.773 339.863 116.477 339.464 116.208 339.064C115.768 338.401 115.382 337.711 115.06 337.03C114.639 336.149 114.3 335.251 114.052 334.318L113.989 334.073C113.661 332.759 113.497 331.409 113.504 330.052L114.827 82.1588C114.874 73.3055 122.127 66.1295 130.989 66.1771L232.672 66.7196C239.435 66.7563 245.214 70.9962 247.545 76.9378C248.27 78.7695 248.666 80.7804 248.655 82.8723Z" fill="white"/>
</mask>
<g mask="url(#mask0_200_752)">
</g>
<mask id="mask1_200_752" style="mask-type:luminance" maskUnits="userSpaceOnUse" x="113" y="66" width="136" height="281">
<path d="M248.655 82.8723L247.332 330.765C247.326 331.861 247.211 332.955 246.988 334.022C246.895 334.501 246.765 334.98 246.6 335.505L246.296 336.381C245.8 337.736 245.05 339.099 244.093 340.362C243.629 340.974 243.109 341.569 242.554 342.109C242.044 342.622 241.445 343.135 240.781 343.629C240.472 343.854 240.1 344.105 239.673 344.375L239.5 344.482C239.146 344.697 238.782 344.904 238.402 345.091L238.139 345.208C237.513 345.512 236.86 345.771 236.188 345.985L235.962 346.057C235.427 346.217 234.928 346.341 234.439 346.447C233.361 346.649 232.265 346.752 231.169 346.746L129.486 346.204C128.336 346.197 127.188 346.073 126.075 345.823C125.695 345.74 125.315 345.647 124.954 345.537C124.123 345.287 123.31 344.967 122.515 344.583C122.136 344.391 121.757 344.19 121.432 343.989C121.243 343.88 121.098 343.797 120.972 343.715L120.873 343.651C120.593 343.478 120.278 343.259 119.89 342.967C118.889 342.201 117.952 341.3 117.115 340.282C116.773 339.863 116.477 339.464 116.208 339.064C115.768 338.401 115.382 337.711 115.06 337.03C114.639 336.149 114.3 335.251 114.052 334.318L113.989 334.073C113.661 332.759 113.497 331.409 113.504 330.052L114.827 82.1588C114.874 73.3055 122.127 66.1295 130.989 66.1771L232.672 66.7196C239.435 66.7563 245.214 70.9962 247.545 76.9378C248.27 78.7695 248.666 80.7804 248.655 82.8723Z" fill="white"/>
</mask>
<g mask="url(#mask1_200_752)">
<path d="M225.175 134.85L133.32 134.203L132.864 198.908L224.719 199.556L225.175 134.85Z" fill="white"/>
<path d="M225.175 134.851L133.32 134.203L133.22 148.362L225.075 149.01L225.175 134.851Z" fill="#A6A1FF"/>
<path d="M214.586 161.354L170.103 161.041L170.083 163.929L214.566 164.243L214.586 161.354Z" fill="#7DBDDB"/>
<path d="M214.545 167.275L170.062 166.962L170.041 169.85L214.524 170.164L214.545 167.275Z" fill="#7DBDDB"/>
<path d="M204.998 173.13L170.02 172.884L170 175.744L204.978 175.99L204.998 173.13Z" fill="#7DBDDB"/>
<path d="M193.742 178.972L169.978 178.805L169.958 181.696L193.722 181.863L193.742 178.972Z" fill="#7DBDDB"/>
<path d="M164.936 160.894L140.433 160.722L140.284 181.901L164.787 182.074L164.936 160.894Z" fill="#3B4AE4"/>
<path d="M142.782 141.639C142.776 142.404 142.152 143.019 141.387 143.014C140.622 143.009 140.007 142.384 140.012 141.619C140.018 140.854 140.642 140.239 141.407 140.245C142.172 140.25 142.787 140.874 142.782 141.639Z" fill="white"/>
<path d="M148.042 141.676C148.036 142.441 147.412 143.056 146.647 143.05C145.882 143.045 145.267 142.421 145.273 141.656C145.278 140.891 145.902 140.276 146.667 140.281C147.432 140.287 148.047 140.912 148.042 141.676Z" fill="white"/>
<path d="M153.303 141.713C153.297 142.478 152.673 143.093 151.908 143.088C151.143 143.083 150.528 142.459 150.533 141.694C150.539 140.929 151.163 140.314 151.928 140.319C152.693 140.324 153.308 140.948 153.303 141.713Z" fill="white"/>
</g>
<mask id="mask2_200_752" style="mask-type:luminance" maskUnits="userSpaceOnUse" x="113" y="66" width="136" height="281">
<path d="M248.655 82.8723L247.332 330.765C247.326 331.861 247.211 332.955 246.988 334.022C246.895 334.501 246.765 334.98 246.6 335.505L246.296 336.381C245.8 337.736 245.05 339.099 244.093 340.362C243.629 340.974 243.109 341.569 242.554 342.109C242.044 342.622 241.445 343.135 240.781 343.629C240.472 343.854 240.1 344.105 239.673 344.375L239.5 344.482C239.146 344.697 238.782 344.904 238.402 345.091L238.139 345.208C237.513 345.512 236.86 345.771 236.188 345.985L235.962 346.057C235.427 346.217 234.928 346.341 234.439 346.447C233.361 346.649 232.265 346.752 231.169 346.746L129.486 346.204C128.336 346.197 127.188 346.073 126.075 345.823C125.695 345.74 125.315 345.647 124.954 345.537C124.123 345.287 123.31 344.967 122.515 344.583C122.136 344.391 121.757 344.19 121.432 343.989C121.243 343.88 121.098 343.797 120.972 343.715L120.873 343.651C120.593 343.478 120.278 343.259 119.89 342.967C118.889 342.201 117.952 341.3 117.115 340.282C116.773 339.863 116.477 339.464 116.208 339.064C115.768 338.401 115.382 337.711 115.06 337.03C114.639 336.149 114.3 335.251 114.052 334.318L113.989 334.073C113.661 332.759 113.497 331.409 113.504 330.052L114.827 82.1588C114.874 73.3055 122.127 66.1295 130.989 66.1771L232.672 66.7196C239.435 66.7563 245.214 70.9962 247.545 76.9378C248.27 78.7695 248.666 80.7804 248.655 82.8723Z" fill="white"/>
</mask>
<g mask="url(#mask2_200_752)">
<path d="M225.259 211.344L133.404 210.696L132.948 275.402L224.802 276.05L225.259 211.344Z" fill="white"/>
<path d="M225.259 211.344L133.404 210.696L133.304 224.856L225.159 225.503L225.259 211.344Z" fill="#3B4AE4"/>
<path opacity="0.23" d="M214.669 237.848L170.186 237.534L170.166 240.422L214.649 240.736L214.669 237.848Z" fill="#B099FF"/>
<path opacity="0.23" d="M214.629 243.769L170.145 243.455L170.125 246.343L214.608 246.657L214.629 243.769Z" fill="#B099FF"/>
<path opacity="0.23" d="M205.08 249.624L170.103 249.378L170.082 252.238L205.06 252.484L205.08 249.624Z" fill="#B099FF"/>
<path opacity="0.23" d="M193.825 255.466L170.061 255.298L170.04 258.189L193.805 258.357L193.825 255.466Z" fill="#B099FF"/>
<path d="M165.02 237.387L140.517 237.215L140.368 258.394L164.871 258.567L165.02 237.387Z" fill="#7DBDDB"/>
<path d="M142.863 218.133C142.858 218.898 142.234 219.513 141.469 219.508C140.704 219.503 140.089 218.878 140.094 218.113C140.099 217.348 140.724 216.733 141.489 216.739C142.254 216.744 142.87 217.368 142.863 218.133Z" fill="white"/>
<path d="M148.124 218.17C148.119 218.935 147.495 219.55 146.73 219.544C145.965 219.539 145.35 218.915 145.355 218.15C145.36 217.385 145.985 216.77 146.75 216.775C147.514 216.781 148.129 217.406 148.124 218.17Z" fill="white"/>
<path d="M153.384 218.207C153.379 218.972 152.755 219.587 151.99 219.582C151.225 219.577 150.61 218.952 150.615 218.188C150.62 217.423 151.245 216.808 152.01 216.813C152.775 216.818 153.39 217.442 153.384 218.207Z" fill="white"/>
</g>
<mask id="mask3_200_752" style="mask-type:luminance" maskUnits="userSpaceOnUse" x="113" y="66" width="136" height="281">
<path d="M248.655 82.8723L247.332 330.765C247.326 331.861 247.211 332.955 246.988 334.022C246.895 334.501 246.765 334.98 246.6 335.505L246.296 336.381C245.8 337.736 245.05 339.099 244.093 340.362C243.629 340.974 243.109 341.569 242.554 342.109C242.044 342.622 241.445 343.135 240.781 343.629C240.472 343.854 240.1 344.105 239.673 344.375L239.5 344.482C239.146 344.697 238.782 344.904 238.402 345.091L238.139 345.208C237.513 345.512 236.86 345.771 236.188 345.985L235.962 346.057C235.427 346.217 234.928 346.341 234.439 346.447C233.361 346.649 232.265 346.752 231.169 346.746L129.486 346.204C128.336 346.197 127.188 346.073 126.075 345.823C125.695 345.74 125.315 345.647 124.954 345.537C124.123 345.287 123.31 344.967 122.515 344.583C122.136 344.391 121.757 344.19 121.432 343.989C121.243 343.88 121.098 343.797 120.972 343.715L120.873 343.651C120.593 343.478 120.278 343.259 119.89 342.967C118.889 342.201 117.952 341.3 117.115 340.282C116.773 339.863 116.477 339.464 116.208 339.064C115.768 338.401 115.382 337.711 115.06 337.03C114.639 336.149 114.3 335.251 114.052 334.318L113.989 334.073C113.661 332.759 113.497 331.409 113.504 330.052L114.827 82.1588C114.874 73.3055 122.127 66.1295 130.989 66.1771L232.672 66.7196C239.435 66.7563 245.214 70.9962 247.545 76.9378C248.27 78.7695 248.666 80.7804 248.655 82.8723Z" fill="white"/>
</mask>
<g mask="url(#mask3_200_752)">
<path d="M224.386 287.445L132.532 286.797L132.076 351.503L223.93 352.15L224.386 287.445Z" fill="white"/>
<path d="M224.386 287.445L132.532 286.798L132.432 300.957L224.287 301.605L224.386 287.445Z" fill="#7DBDDB"/>
<path d="M213.798 313.949L169.315 313.636L169.294 316.524L213.777 316.837L213.798 313.949Z" fill="#7DBDDB"/>
<path d="M213.756 319.871L169.273 319.557L169.253 322.445L213.736 322.759L213.756 319.871Z" fill="#7DBDDB"/>
<path d="M204.209 325.726L169.231 325.479L169.211 328.339L204.189 328.586L204.209 325.726Z" fill="#7DBDDB"/>
<path d="M192.954 331.567L169.189 331.4L169.169 334.291L192.933 334.458L192.954 331.567Z" fill="#7DBDDB"/>
<path d="M164.148 313.49L139.645 313.317L139.496 334.497L163.999 334.669L164.148 313.49Z" fill="#A6A1FF"/>
<path d="M141.991 294.235C141.986 295 141.361 295.615 140.596 295.61C139.832 295.605 139.216 294.981 139.222 294.216C139.227 293.451 139.851 292.836 140.616 292.841C141.38 292.846 141.996 293.47 141.991 294.235Z" fill="white"/>
<path d="M147.251 294.272C147.246 295.037 146.621 295.652 145.857 295.647C145.092 295.641 144.477 295.017 144.482 294.252C144.487 293.487 145.111 292.872 145.876 292.877C146.641 292.883 147.256 293.508 147.251 294.272Z" fill="white"/>
<path d="M152.512 294.31C152.507 295.074 151.882 295.69 151.117 295.684C150.352 295.679 149.737 295.055 149.743 294.29C149.748 293.525 150.372 292.91 151.137 292.915C151.901 292.92 152.517 293.545 152.512 294.31Z" fill="white"/>
</g>
<mask id="mask4_200_752" style="mask-type:luminance" maskUnits="userSpaceOnUse" x="113" y="66" width="136" height="281">
<path d="M248.655 82.8723L247.332 330.765C247.326 331.861 247.211 332.955 246.988 334.022C246.895 334.501 246.765 334.98 246.6 335.505L246.296 336.381C245.8 337.736 245.05 339.099 244.093 340.362C243.629 340.974 243.109 341.569 242.554 342.109C242.044 342.622 241.445 343.135 240.781 343.629C240.472 343.854 240.1 344.105 239.673 344.375L239.5 344.482C239.146 344.697 238.782 344.904 238.402 345.091L238.139 345.208C237.513 345.512 236.86 345.771 236.188 345.985L235.962 346.057C235.427 346.217 234.928 346.341 234.439 346.447C233.361 346.649 232.265 346.752 231.169 346.746L129.486 346.204C128.336 346.197 127.188 346.073 126.075 345.823C125.695 345.74 125.315 345.647 124.954 345.537C124.123 345.287 123.31 344.967 122.515 344.583C122.136 344.391 121.757 344.19 121.432 343.989C121.243 343.88 121.098 343.797 120.972 343.715L120.873 343.651C120.593 343.478 120.278 343.259 119.89 342.967C118.889 342.201 117.952 341.3 117.115 340.282C116.773 339.863 116.477 339.464 116.208 339.064C115.768 338.401 115.382 337.711 115.06 337.03C114.639 336.149 114.3 335.251 114.052 334.318L113.989 334.073C113.661 332.759 113.497 331.409 113.504 330.052L114.827 82.1588C114.874 73.3055 122.127 66.1295 130.989 66.1771L232.672 66.7196C239.435 66.7563 245.214 70.9962 247.545 76.9378C248.27 78.7695 248.666 80.7804 248.655 82.8723Z" fill="white"/>
</mask>
<g mask="url(#mask4_200_752)">
<path d="M199.992 121.042L126.453 120.53L130.726 114.153L204.264 114.664L199.992 121.042Z" fill="#282629"/>
<path d="M206.836 121.089L202.549 121.059L206.821 114.682L211.107 114.712L206.836 121.089Z" fill="#282629"/>
<path d="M213.773 121.137L209.486 121.107L213.758 114.73L218.045 114.76L213.773 121.137Z" fill="#282629"/>
<path d="M222.517 114.736L130.884 114.099L142.259 94.8795L233.893 95.5171L222.517 114.736Z" fill="#5205DB"/>
<path d="M151.443 103.35L150.486 103.343C150.431 103.068 150.334 102.825 150.194 102.616C150.056 102.406 149.888 102.23 149.688 102.087C149.491 101.942 149.272 101.832 149.031 101.759C148.789 101.685 148.537 101.647 148.275 101.645C147.797 101.642 147.362 101.76 146.972 101.999C146.585 102.238 146.275 102.592 146.042 103.061C145.813 103.531 145.696 104.107 145.691 104.792C145.686 105.476 145.795 106.054 146.018 106.527C146.244 106.999 146.549 107.357 146.933 107.602C147.32 107.846 147.753 107.97 148.231 107.974C148.493 107.975 148.746 107.941 148.988 107.871C149.23 107.8 149.451 107.695 149.65 107.555C149.852 107.412 150.023 107.237 150.163 107.03C150.306 106.82 150.407 106.579 150.465 106.307L151.422 106.313C151.347 106.717 151.214 107.077 151.021 107.395C150.829 107.713 150.59 107.982 150.305 108.204C150.021 108.423 149.702 108.59 149.349 108.703C148.998 108.816 148.624 108.872 148.225 108.869C147.551 108.864 146.953 108.695 146.43 108.362C145.908 108.029 145.498 107.558 145.201 106.949C144.904 106.34 144.759 105.619 144.765 104.785C144.771 103.952 144.926 103.233 145.231 102.628C145.536 102.023 145.953 101.557 146.48 101.232C147.007 100.906 147.607 100.745 148.281 100.75C148.68 100.753 149.054 100.813 149.403 100.932C149.755 101.05 150.071 101.222 150.352 101.448C150.634 101.671 150.869 101.943 151.057 102.263C151.245 102.581 151.374 102.943 151.443 103.35ZM159.647 104.889C159.641 105.722 159.485 106.441 159.18 107.046C158.875 107.651 158.459 108.117 157.932 108.442C157.405 108.768 156.804 108.928 156.13 108.924C155.456 108.919 154.858 108.75 154.336 108.417C153.813 108.084 153.403 107.613 153.107 107.004C152.81 106.395 152.664 105.674 152.67 104.84C152.676 104.007 152.832 103.287 153.137 102.682C153.442 102.077 153.858 101.612 154.385 101.287C154.912 100.961 155.513 100.8 156.187 100.805C156.861 100.81 157.459 100.979 157.981 101.312C158.504 101.644 158.914 102.116 159.21 102.725C159.507 103.334 159.653 104.055 159.647 104.889ZM158.721 104.882C158.725 104.198 158.615 103.62 158.389 103.147C158.166 102.675 157.861 102.317 157.474 102.072C157.09 101.828 156.659 101.704 156.18 101.7C155.702 101.697 155.268 101.815 154.878 102.054C154.49 102.293 154.18 102.647 153.948 103.116C153.718 103.586 153.601 104.162 153.596 104.847C153.592 105.531 153.701 106.109 153.924 106.582C154.15 107.054 154.454 107.412 154.839 107.657C155.225 107.901 155.658 108.025 156.136 108.029C156.615 108.032 157.048 107.914 157.436 107.675C157.826 107.436 158.136 107.082 158.365 106.612C158.597 106.143 158.716 105.567 158.721 104.882ZM161.236 100.948L163.536 107.617L163.628 107.618L166.021 100.982L167.024 100.988L164.067 108.871L163.08 108.864L160.233 100.941L161.236 100.948ZM169.212 101.004L169.157 108.906L168.2 108.9L168.255 100.997L169.212 101.004ZM173.514 108.937L171.076 108.92L171.131 101.017L173.677 101.035C174.444 101.04 175.099 101.203 175.642 101.523C176.185 101.841 176.6 102.295 176.887 102.886C177.173 103.475 177.314 104.178 177.308 104.996C177.302 105.819 177.151 106.527 176.853 107.119C176.556 107.709 176.126 108.161 175.563 108.476C175 108.789 174.317 108.942 173.514 108.937ZM172.039 108.077L173.459 108.087C174.112 108.092 174.654 107.969 175.086 107.72C175.517 107.471 175.84 107.115 176.054 106.65C176.268 106.186 176.377 105.633 176.382 104.99C176.386 104.352 176.286 103.802 176.081 103.34C175.876 102.875 175.567 102.518 175.154 102.268C174.742 102.016 174.227 101.888 173.61 101.883L172.082 101.873L172.039 108.077ZM182.188 104.621L182.182 105.47L178.725 105.446L178.731 104.597L182.188 104.621ZM186.578 101.124L186.523 109.027L185.566 109.02L185.614 102.121L185.568 102.121L183.629 103.388L183.636 102.416L185.621 101.118L186.578 101.124ZM191.367 101.05C191.691 101.054 192.015 101.118 192.338 101.242C192.662 101.365 192.956 101.568 193.222 101.85C193.487 102.129 193.699 102.51 193.858 102.993C194.017 103.475 194.094 104.079 194.089 104.804C194.084 105.506 194.013 106.13 193.875 106.674C193.74 107.216 193.546 107.672 193.294 108.044C193.045 108.415 192.742 108.696 192.386 108.886C192.032 109.077 191.632 109.171 191.187 109.167C190.745 109.164 190.351 109.074 190.005 108.897C189.661 108.717 189.38 108.469 189.161 108.154C188.944 107.836 188.807 107.468 188.748 107.051L189.689 107.058C189.772 107.421 189.938 107.722 190.189 107.96C190.442 108.196 190.776 108.316 191.193 108.319C191.803 108.323 192.286 108.06 192.642 107.53C193.001 107 193.183 106.249 193.19 105.276L193.128 105.276C192.983 105.491 192.81 105.676 192.611 105.832C192.412 105.987 192.191 106.107 191.949 106.19C191.707 106.273 191.449 106.314 191.176 106.312C190.724 106.309 190.309 106.194 189.932 105.967C189.558 105.738 189.259 105.426 189.036 105.031C188.815 104.634 188.706 104.18 188.71 103.671C188.713 103.187 188.824 102.745 189.043 102.346C189.264 101.943 189.573 101.624 189.968 101.387C190.366 101.151 190.832 101.038 191.367 101.05ZM191.361 101.899C191.037 101.896 190.745 101.975 190.484 102.136C190.225 102.293 190.019 102.508 189.866 102.78C189.715 103.049 189.638 103.348 189.636 103.677C189.633 104.006 189.703 104.307 189.845 104.578C189.99 104.846 190.188 105.061 190.439 105.222C190.693 105.381 190.982 105.462 191.306 105.464C191.55 105.465 191.778 105.419 191.99 105.326C192.201 105.229 192.386 105.098 192.544 104.932C192.705 104.763 192.831 104.573 192.923 104.36C193.014 104.144 193.061 103.92 193.062 103.685C193.064 103.377 192.992 103.087 192.844 102.816C192.7 102.545 192.498 102.325 192.239 102.156C191.983 101.987 191.691 101.901 191.361 101.899ZM151.277 113.879L151.222 121.782L150.296 121.776L146.033 115.541L145.956 115.54L145.913 121.745L144.956 121.738L145.011 113.836L145.937 113.842L150.215 120.093L150.292 120.093L150.336 113.873L151.277 113.879ZM153.137 121.795L153.192 113.893L157.961 113.926L157.955 114.775L154.143 114.748L154.124 117.419L157.69 117.443L157.684 118.292L154.119 118.267L154.1 120.953L157.974 120.98L157.968 121.829L153.137 121.795ZM161.067 121.85L158.961 113.933L159.933 113.94L161.54 120.387L161.617 120.388L163.344 113.963L164.425 113.971L166.062 120.419L166.139 120.419L167.836 113.995L168.808 114.001L166.592 121.889L165.604 121.882L163.904 115.573L163.842 115.572L162.054 121.857L161.067 121.85ZM174.308 116.015C174.265 115.624 174.079 115.319 173.751 115.101C173.424 114.882 173.02 114.772 172.542 114.768C172.192 114.766 171.886 114.82 171.622 114.932C171.362 115.043 171.157 115.197 171.009 115.394C170.864 115.591 170.79 115.816 170.789 116.068C170.787 116.279 170.836 116.461 170.935 116.613C171.037 116.763 171.168 116.889 171.326 116.99C171.485 117.089 171.652 117.171 171.826 117.237C172.001 117.3 172.161 117.351 172.308 117.391L173.109 117.612C173.314 117.668 173.543 117.744 173.794 117.841C174.048 117.938 174.29 118.069 174.521 118.236C174.754 118.399 174.945 118.609 175.095 118.865C175.245 119.12 175.319 119.434 175.316 119.804C175.313 120.231 175.199 120.616 174.972 120.959C174.749 121.302 174.423 121.574 173.994 121.774C173.568 121.975 173.052 122.073 172.445 122.068C171.879 122.065 171.39 121.97 170.977 121.784C170.566 121.599 170.244 121.342 170.01 121.014C169.778 120.685 169.648 120.305 169.62 119.872L170.608 119.879C170.631 120.178 170.73 120.426 170.904 120.622C171.08 120.816 171.303 120.962 171.572 121.059C171.844 121.154 172.137 121.202 172.451 121.204C172.816 121.207 173.145 121.15 173.436 121.033C173.728 120.915 173.959 120.749 174.13 120.537C174.302 120.322 174.388 120.07 174.39 119.782C174.392 119.52 174.32 119.306 174.175 119.14C174.029 118.974 173.837 118.839 173.599 118.735C173.36 118.63 173.102 118.538 172.825 118.459L171.855 118.175C171.238 117.993 170.751 117.736 170.394 117.404C170.036 117.073 169.859 116.64 169.862 116.108C169.865 115.665 169.988 115.28 170.229 114.953C170.473 114.623 170.799 114.368 171.207 114.188C171.617 114.005 172.074 113.916 172.579 113.919C173.088 113.923 173.54 114.018 173.935 114.203C174.33 114.386 174.642 114.635 174.871 114.95C175.103 115.266 175.224 115.623 175.234 116.022L174.308 116.015Z" fill="white"/>
<path d="M143.104 118.561L143.118 116.487L143.369 116.489L143.356 118.34L144.321 118.347L144.319 118.57L143.104 118.561ZM145.308 118.609C145.167 118.608 145.044 118.574 144.938 118.506C144.834 118.439 144.752 118.345 144.693 118.224C144.635 118.103 144.607 117.963 144.608 117.802C144.609 117.64 144.64 117.499 144.699 117.378C144.759 117.258 144.842 117.164 144.948 117.098C145.055 117.032 145.178 117 145.319 117.001C145.459 117.001 145.582 117.036 145.687 117.103C145.792 117.171 145.874 117.265 145.932 117.387C145.991 117.508 146.019 117.65 146.018 117.812C146.017 117.972 145.986 118.113 145.926 118.233C145.866 118.352 145.783 118.445 145.677 118.511C145.571 118.578 145.448 118.61 145.308 118.609ZM145.309 118.394C145.416 118.395 145.504 118.368 145.573 118.314C145.642 118.26 145.694 118.188 145.727 118.099C145.761 118.011 145.778 117.914 145.779 117.81C145.78 117.706 145.764 117.609 145.731 117.519C145.699 117.429 145.649 117.356 145.58 117.3C145.512 117.244 145.424 117.216 145.317 117.215C145.211 117.215 145.123 117.242 145.053 117.297C144.984 117.351 144.933 117.424 144.899 117.513C144.865 117.603 144.848 117.7 144.847 117.804C144.846 117.908 144.862 118.004 144.895 118.094C144.927 118.183 144.978 118.255 145.046 118.31C145.115 118.366 145.202 118.394 145.309 118.394ZM146.378 118.584L146.389 117.028L146.619 117.03L146.618 117.265L146.634 117.265C146.663 117.188 146.715 117.126 146.789 117.079C146.864 117.031 146.948 117.008 147.041 117.008C147.059 117.009 147.081 117.009 147.107 117.01C147.133 117.011 147.153 117.012 147.167 117.013L147.165 117.256C147.157 117.254 147.138 117.251 147.109 117.247C147.081 117.242 147.051 117.239 147.019 117.239C146.944 117.239 146.876 117.254 146.816 117.285C146.757 117.316 146.71 117.359 146.676 117.414C146.641 117.469 146.624 117.531 146.624 117.601L146.617 118.586L146.378 118.584ZM148.044 118.628C147.894 118.627 147.765 118.593 147.657 118.526C147.549 118.459 147.466 118.365 147.408 118.245C147.351 118.124 147.323 117.984 147.324 117.825C147.325 117.666 147.355 117.525 147.414 117.404C147.474 117.282 147.556 117.188 147.661 117.12C147.767 117.052 147.89 117.018 148.031 117.019C148.112 117.02 148.192 117.034 148.271 117.062C148.349 117.089 148.421 117.134 148.485 117.195C148.55 117.255 148.601 117.335 148.639 117.435C148.676 117.534 148.695 117.657 148.694 117.802L148.693 117.903L147.494 117.895L147.495 117.688L148.451 117.695C148.452 117.607 148.435 117.529 148.4 117.46C148.366 117.39 148.318 117.336 148.254 117.295C148.19 117.255 148.116 117.235 148.029 117.234C147.934 117.233 147.851 117.257 147.782 117.303C147.712 117.349 147.659 117.41 147.621 117.485C147.584 117.559 147.564 117.639 147.564 117.725L147.563 117.863C147.562 117.981 147.582 118.08 147.622 118.162C147.662 118.244 147.719 118.306 147.792 118.349C147.864 118.391 147.949 118.413 148.045 118.413C148.108 118.414 148.165 118.405 148.216 118.388C148.267 118.37 148.312 118.344 148.349 118.308C148.386 118.272 148.415 118.227 148.436 118.173L148.667 118.239C148.642 118.318 148.6 118.386 148.543 118.445C148.485 118.504 148.413 118.549 148.329 118.582C148.244 118.613 148.149 118.629 148.044 118.628ZM149.052 118.603L149.063 117.047L149.294 117.048L149.292 117.292L149.312 117.292C149.345 117.209 149.398 117.145 149.471 117.099C149.543 117.053 149.63 117.03 149.732 117.031C149.834 117.032 149.919 117.056 149.987 117.103C150.056 117.149 150.109 117.214 150.147 117.297L150.163 117.298C150.204 117.217 150.264 117.154 150.344 117.107C150.424 117.06 150.52 117.037 150.631 117.037C150.77 117.038 150.884 117.083 150.972 117.17C151.059 117.258 151.103 117.393 151.101 117.576L151.094 118.617L150.855 118.615L150.862 117.574C150.863 117.459 150.832 117.377 150.77 117.327C150.707 117.277 150.634 117.252 150.549 117.252C150.439 117.251 150.354 117.283 150.294 117.349C150.233 117.414 150.202 117.497 150.202 117.598L150.195 118.611L149.952 118.609L149.959 117.543C149.96 117.455 149.931 117.383 149.874 117.329C149.817 117.274 149.744 117.246 149.653 117.245C149.591 117.245 149.533 117.261 149.478 117.294C149.425 117.327 149.381 117.372 149.348 117.431C149.315 117.489 149.298 117.556 149.298 117.632L149.291 118.604L149.052 118.603ZM152.334 118.626L152.344 117.07L152.583 117.071L152.573 118.627L152.334 118.626ZM152.468 116.811C152.421 116.811 152.381 116.795 152.348 116.763C152.315 116.731 152.298 116.692 152.299 116.648C152.299 116.603 152.316 116.565 152.349 116.534C152.383 116.502 152.423 116.487 152.47 116.487C152.517 116.487 152.556 116.503 152.589 116.535C152.623 116.567 152.639 116.606 152.639 116.65C152.639 116.695 152.622 116.733 152.588 116.764C152.554 116.796 152.514 116.811 152.468 116.811ZM153.006 119.214L153.021 117.074L153.252 117.076L153.251 117.323L153.279 117.323C153.297 117.296 153.321 117.262 153.353 117.22C153.385 117.178 153.43 117.141 153.489 117.108C153.549 117.075 153.629 117.058 153.731 117.059C153.862 117.06 153.977 117.093 154.076 117.16C154.176 117.226 154.253 117.319 154.308 117.44C154.364 117.56 154.391 117.702 154.389 117.866C154.388 118.031 154.359 118.173 154.302 118.294C154.246 118.414 154.167 118.506 154.067 118.572C153.968 118.637 153.853 118.669 153.723 118.668C153.623 118.667 153.544 118.65 153.484 118.616C153.424 118.582 153.378 118.544 153.346 118.501C153.314 118.457 153.289 118.421 153.271 118.393L153.251 118.393L153.245 119.215L153.006 119.214ZM153.251 117.854C153.25 117.971 153.267 118.075 153.3 118.165C153.334 118.255 153.384 118.325 153.45 118.376C153.516 118.426 153.597 118.452 153.692 118.453C153.792 118.453 153.876 118.428 153.943 118.375C154.011 118.323 154.062 118.251 154.097 118.162C154.132 118.071 154.15 117.971 154.15 117.86C154.151 117.751 154.135 117.652 154.102 117.564C154.069 117.475 154.02 117.405 153.952 117.353C153.886 117.301 153.802 117.274 153.701 117.274C153.603 117.273 153.522 117.297 153.455 117.346C153.388 117.394 153.338 117.462 153.304 117.549C153.269 117.636 153.252 117.738 153.251 117.854ZM155.859 117.443L155.644 117.502C155.631 117.466 155.611 117.431 155.585 117.397C155.56 117.362 155.525 117.334 155.48 117.311C155.436 117.289 155.379 117.277 155.309 117.277C155.214 117.276 155.135 117.297 155.071 117.341C155.008 117.384 154.976 117.438 154.975 117.505C154.975 117.565 154.996 117.612 155.039 117.647C155.082 117.681 155.15 117.71 155.241 117.734L155.472 117.792C155.611 117.827 155.714 117.879 155.782 117.95C155.85 118.019 155.883 118.108 155.882 118.217C155.882 118.306 155.855 118.385 155.804 118.455C155.752 118.525 155.681 118.58 155.59 118.62C155.498 118.66 155.392 118.679 155.271 118.678C155.113 118.677 154.981 118.642 154.878 118.572C154.774 118.503 154.709 118.402 154.682 118.269L154.91 118.214C154.931 118.298 154.971 118.361 155.031 118.403C155.092 118.445 155.171 118.467 155.269 118.468C155.38 118.468 155.469 118.445 155.535 118.399C155.601 118.351 155.635 118.294 155.635 118.227C155.635 118.173 155.617 118.128 155.579 118.091C155.542 118.054 155.484 118.025 155.406 118.007L155.147 117.944C155.004 117.909 154.9 117.856 154.834 117.785C154.768 117.713 154.736 117.623 154.736 117.516C154.737 117.428 154.762 117.35 154.812 117.283C154.862 117.216 154.931 117.164 155.017 117.126C155.103 117.088 155.201 117.069 155.311 117.07C155.465 117.071 155.585 117.106 155.673 117.174C155.761 117.242 155.823 117.332 155.859 117.443ZM157.224 118.023L157.23 117.104L157.47 117.105L157.459 118.661L157.22 118.66L157.221 118.396L157.205 118.396C157.168 118.475 157.111 118.542 157.034 118.596C156.956 118.651 156.859 118.677 156.741 118.676C156.644 118.676 156.558 118.654 156.483 118.611C156.407 118.567 156.348 118.502 156.306 118.415C156.263 118.328 156.242 118.218 156.243 118.085L156.25 117.097L156.489 117.098L156.482 118.071C156.481 118.184 156.513 118.275 156.576 118.343C156.639 118.411 156.721 118.445 156.82 118.446C156.879 118.446 156.94 118.432 157.002 118.402C157.064 118.372 157.116 118.326 157.159 118.263C157.202 118.2 157.223 118.121 157.224 118.023ZM157.897 118.664L157.907 117.108L158.138 117.11L158.137 117.353L158.157 117.353C158.19 117.27 158.243 117.206 158.315 117.161C158.388 117.115 158.475 117.092 158.576 117.093C158.679 117.093 158.764 117.117 158.832 117.164C158.9 117.211 158.954 117.276 158.992 117.359L159.008 117.359C159.048 117.279 159.108 117.216 159.188 117.169C159.268 117.121 159.364 117.098 159.476 117.099C159.615 117.1 159.728 117.144 159.816 117.232C159.904 117.319 159.947 117.454 159.946 117.637L159.939 118.678L159.7 118.677L159.707 117.635C159.708 117.521 159.677 117.438 159.614 117.389C159.552 117.339 159.478 117.314 159.393 117.313C159.284 117.312 159.199 117.345 159.138 117.411C159.078 117.476 159.047 117.559 159.046 117.659L159.039 118.672L158.796 118.67L158.804 117.605C158.804 117.516 158.776 117.445 158.719 117.39C158.662 117.335 158.588 117.308 158.498 117.307C158.436 117.306 158.377 117.323 158.323 117.355C158.269 117.388 158.226 117.434 158.192 117.492C158.16 117.55 158.143 117.617 158.142 117.693L158.136 118.666L157.897 118.664ZM161.765 118.724C161.636 118.723 161.522 118.689 161.423 118.623C161.324 118.556 161.247 118.462 161.192 118.342C161.136 118.22 161.109 118.077 161.111 117.913C161.112 117.749 161.141 117.608 161.198 117.488C161.255 117.368 161.333 117.276 161.434 117.211C161.534 117.146 161.65 117.114 161.781 117.115C161.882 117.116 161.962 117.133 162.02 117.167C162.08 117.201 162.125 117.239 162.155 117.282C162.187 117.324 162.211 117.358 162.229 117.386L162.249 117.386L162.254 116.62L162.493 116.621L162.479 118.696L162.248 118.694L162.25 118.455L162.221 118.455C162.203 118.483 162.178 118.519 162.145 118.562C162.113 118.604 162.066 118.642 162.006 118.676C161.946 118.708 161.865 118.724 161.765 118.724ZM161.799 118.509C161.895 118.51 161.976 118.485 162.043 118.436C162.11 118.386 162.16 118.316 162.195 118.227C162.23 118.138 162.248 118.034 162.249 117.916C162.25 117.8 162.234 117.699 162.201 117.611C162.168 117.523 162.118 117.455 162.052 117.406C161.986 117.356 161.905 117.331 161.808 117.33C161.706 117.329 161.622 117.355 161.554 117.406C161.487 117.457 161.436 117.527 161.401 117.615C161.368 117.702 161.35 117.801 161.35 117.91C161.349 118.021 161.365 118.122 161.398 118.212C161.432 118.302 161.482 118.374 161.549 118.428C161.616 118.481 161.699 118.508 161.799 118.509ZM163.582 118.736C163.441 118.735 163.318 118.701 163.213 118.633C163.108 118.566 163.026 118.472 162.967 118.351C162.91 118.23 162.881 118.09 162.882 117.929C162.883 117.767 162.914 117.626 162.973 117.505C163.034 117.385 163.117 117.291 163.222 117.225C163.329 117.159 163.452 117.127 163.593 117.128C163.733 117.129 163.856 117.163 163.961 117.23C164.066 117.298 164.148 117.392 164.206 117.514C164.265 117.635 164.293 117.777 164.292 117.939C164.291 118.1 164.261 118.24 164.2 118.36C164.141 118.479 164.058 118.572 163.951 118.638C163.845 118.705 163.722 118.737 163.582 118.736ZM163.583 118.521C163.69 118.522 163.778 118.495 163.847 118.441C163.916 118.387 163.968 118.315 164.002 118.226C164.035 118.138 164.053 118.041 164.053 117.937C164.054 117.833 164.038 117.736 164.006 117.646C163.973 117.556 163.923 117.483 163.854 117.427C163.786 117.371 163.698 117.343 163.591 117.342C163.485 117.342 163.397 117.369 163.327 117.424C163.258 117.478 163.207 117.551 163.173 117.64C163.139 117.73 163.122 117.827 163.121 117.931C163.121 118.035 163.136 118.131 163.169 118.221C163.201 118.31 163.252 118.382 163.32 118.438C163.389 118.493 163.477 118.521 163.583 118.521ZM164.905 116.638L164.891 118.713L164.652 118.711L164.666 116.637L164.905 116.638ZM165.961 118.753C165.82 118.752 165.697 118.717 165.592 118.65C165.487 118.582 165.405 118.488 165.346 118.368C165.289 118.247 165.26 118.106 165.261 117.946C165.262 117.783 165.293 117.642 165.352 117.522C165.413 117.401 165.496 117.308 165.601 117.242C165.708 117.176 165.831 117.143 165.972 117.144C166.112 117.145 166.235 117.179 166.34 117.247C166.445 117.315 166.527 117.409 166.585 117.53C166.644 117.652 166.672 117.793 166.671 117.955C166.67 118.116 166.64 118.256 166.579 118.376C166.52 118.496 166.437 118.589 166.33 118.655C166.224 118.721 166.101 118.754 165.961 118.753ZM165.962 118.538C166.069 118.539 166.157 118.512 166.226 118.458C166.295 118.404 166.347 118.332 166.381 118.243C166.414 118.154 166.432 118.058 166.432 117.954C166.433 117.85 166.417 117.753 166.385 117.663C166.352 117.573 166.302 117.5 166.233 117.444C166.165 117.388 166.077 117.36 165.97 117.359C165.864 117.358 165.776 117.385 165.706 117.44C165.637 117.495 165.586 117.567 165.552 117.657C165.518 117.746 165.501 117.843 165.5 117.947C165.5 118.051 165.515 118.148 165.548 118.237C165.58 118.327 165.631 118.399 165.699 118.454C165.768 118.509 165.856 118.537 165.962 118.538ZM167.031 118.728L167.042 117.172L167.273 117.173L167.271 117.408L167.287 117.409C167.316 117.332 167.368 117.27 167.443 117.222C167.517 117.175 167.601 117.151 167.694 117.152C167.712 117.152 167.734 117.153 167.76 117.153C167.786 117.154 167.806 117.155 167.82 117.157L167.818 117.4C167.81 117.398 167.791 117.395 167.762 117.391C167.734 117.386 167.704 117.383 167.672 117.383C167.597 117.382 167.529 117.398 167.469 117.429C167.41 117.46 167.364 117.503 167.329 117.558C167.295 117.612 167.277 117.675 167.277 117.745L167.27 118.729L167.031 118.728ZM170.005 117.541L169.79 117.6C169.777 117.564 169.757 117.529 169.731 117.495C169.705 117.461 169.67 117.432 169.626 117.41C169.582 117.387 169.525 117.375 169.455 117.375C169.36 117.374 169.28 117.396 169.217 117.439C169.154 117.482 169.122 117.537 169.121 117.604C169.121 117.663 169.142 117.71 169.185 117.745C169.228 117.78 169.295 117.809 169.387 117.832L169.618 117.891C169.757 117.925 169.86 117.978 169.928 118.048C169.995 118.117 170.029 118.206 170.028 118.315C170.027 118.404 170.001 118.484 169.949 118.554C169.898 118.623 169.827 118.678 169.736 118.718C169.644 118.758 169.538 118.778 169.417 118.777C169.258 118.776 169.127 118.74 169.024 118.671C168.92 118.601 168.855 118.5 168.828 118.367L169.056 118.312C169.077 118.396 169.117 118.459 169.177 118.502C169.237 118.544 169.316 118.565 169.414 118.566C169.526 118.567 169.614 118.544 169.68 118.497C169.747 118.449 169.78 118.392 169.781 118.325C169.781 118.271 169.763 118.226 169.725 118.189C169.687 118.152 169.63 118.124 169.551 118.105L169.292 118.042C169.15 118.008 169.046 117.955 168.98 117.883C168.914 117.811 168.881 117.721 168.882 117.614C168.883 117.526 168.908 117.449 168.958 117.382C169.008 117.314 169.076 117.262 169.162 117.224C169.249 117.186 169.347 117.168 169.457 117.168C169.611 117.169 169.731 117.204 169.818 117.272C169.906 117.34 169.969 117.43 170.005 117.541ZM170.385 118.751L170.396 117.195L170.635 117.197L170.624 118.753L170.385 118.751ZM170.519 116.937C170.472 116.936 170.432 116.92 170.399 116.888C170.366 116.856 170.35 116.818 170.35 116.773C170.35 116.729 170.367 116.691 170.4 116.659C170.434 116.628 170.475 116.612 170.521 116.612C170.568 116.613 170.608 116.629 170.641 116.661C170.674 116.693 170.691 116.731 170.69 116.776C170.69 116.82 170.673 116.858 170.639 116.89C170.606 116.921 170.566 116.937 170.519 116.937ZM171.749 117.205L171.748 117.407L170.942 117.401L170.943 117.199L171.749 117.205ZM171.181 116.828L171.42 116.829L171.409 118.312C171.409 118.38 171.418 118.431 171.438 118.465C171.458 118.498 171.483 118.52 171.514 118.532C171.546 118.543 171.579 118.549 171.614 118.549C171.641 118.549 171.662 118.548 171.679 118.545C171.696 118.542 171.71 118.539 171.72 118.537L171.767 118.753C171.751 118.759 171.728 118.764 171.699 118.77C171.67 118.777 171.633 118.78 171.588 118.78C171.521 118.779 171.455 118.764 171.39 118.735C171.326 118.705 171.273 118.661 171.231 118.601C171.19 118.541 171.169 118.466 171.17 118.376L171.181 116.828ZM143.508 121.601C143.409 121.6 143.32 121.581 143.24 121.543C143.16 121.505 143.096 121.45 143.049 121.379C143.003 121.307 142.98 121.22 142.98 121.119C142.981 121.03 142.999 120.958 143.035 120.903C143.07 120.847 143.117 120.803 143.176 120.772C143.235 120.741 143.3 120.717 143.371 120.702C143.443 120.687 143.515 120.674 143.587 120.665C143.682 120.654 143.759 120.645 143.817 120.64C143.877 120.633 143.92 120.622 143.947 120.607C143.975 120.592 143.989 120.565 143.989 120.526L143.989 120.518C143.99 120.418 143.963 120.34 143.909 120.285C143.855 120.229 143.774 120.201 143.663 120.2C143.549 120.199 143.46 120.223 143.395 120.273C143.329 120.322 143.283 120.375 143.257 120.432L143.03 120.349C143.071 120.255 143.126 120.182 143.194 120.13C143.262 120.077 143.337 120.04 143.418 120.02C143.499 119.999 143.578 119.989 143.657 119.989C143.707 119.989 143.764 119.996 143.829 120.008C143.894 120.02 143.957 120.045 144.018 120.082C144.079 120.119 144.13 120.174 144.17 120.248C144.21 120.322 144.229 120.421 144.228 120.544L144.221 121.569L143.982 121.568L143.984 121.357L143.971 121.357C143.955 121.39 143.928 121.426 143.89 121.465C143.852 121.503 143.801 121.535 143.738 121.562C143.675 121.588 143.598 121.601 143.508 121.601ZM143.546 121.386C143.64 121.387 143.72 121.369 143.785 121.332C143.851 121.296 143.901 121.248 143.934 121.189C143.968 121.131 143.986 121.069 143.986 121.004L143.988 120.786C143.977 120.798 143.955 120.809 143.921 120.819C143.887 120.828 143.847 120.836 143.803 120.843C143.759 120.849 143.716 120.855 143.674 120.86C143.633 120.865 143.599 120.869 143.574 120.872C143.512 120.88 143.453 120.892 143.399 120.91C143.346 120.927 143.302 120.954 143.269 120.989C143.236 121.024 143.22 121.072 143.219 121.133C143.219 121.216 143.249 121.279 143.31 121.322C143.372 121.364 143.451 121.386 143.546 121.386ZM144.658 121.572L144.668 120.016L144.899 120.018L144.898 120.261L144.918 120.261C144.951 120.178 145.004 120.114 145.076 120.069C145.149 120.023 145.236 120 145.337 120.001C145.44 120.001 145.525 120.025 145.593 120.072C145.661 120.119 145.715 120.184 145.753 120.267L145.769 120.267C145.809 120.187 145.869 120.124 145.949 120.077C146.029 120.03 146.125 120.006 146.237 120.007C146.376 120.008 146.489 120.052 146.577 120.14C146.665 120.227 146.708 120.362 146.707 120.545L146.7 121.586L146.461 121.585L146.468 120.543C146.469 120.429 146.438 120.346 146.375 120.297C146.313 120.247 146.239 120.222 146.154 120.221C146.045 120.22 145.96 120.253 145.899 120.319C145.839 120.384 145.808 120.467 145.807 120.567L145.8 121.58L145.557 121.579L145.565 120.513C145.565 120.424 145.537 120.353 145.48 120.299C145.423 120.243 145.349 120.216 145.259 120.215C145.197 120.215 145.138 120.231 145.084 120.263C145.03 120.296 144.987 120.342 144.953 120.4C144.921 120.458 144.904 120.525 144.903 120.601L144.897 121.574L144.658 121.572ZM147.789 121.626C147.639 121.625 147.51 121.591 147.402 121.525C147.294 121.457 147.211 121.363 147.153 121.243C147.096 121.123 147.068 120.983 147.069 120.823C147.07 120.664 147.1 120.524 147.159 120.402C147.219 120.281 147.301 120.186 147.406 120.118C147.512 120.05 147.635 120.017 147.776 120.018C147.857 120.018 147.937 120.032 148.016 120.06C148.094 120.087 148.166 120.132 148.231 120.193C148.295 120.254 148.346 120.334 148.384 120.433C148.422 120.533 148.44 120.655 148.439 120.8L148.438 120.902L147.239 120.893L147.24 120.687L148.197 120.693C148.197 120.605 148.18 120.527 148.146 120.458C148.112 120.389 148.063 120.334 147.999 120.294C147.936 120.253 147.861 120.233 147.774 120.232C147.679 120.232 147.597 120.255 147.527 120.302C147.458 120.348 147.404 120.408 147.366 120.483C147.329 120.558 147.31 120.638 147.309 120.724L147.308 120.861C147.307 120.979 147.327 121.079 147.367 121.161C147.407 121.242 147.464 121.304 147.537 121.347C147.609 121.39 147.694 121.411 147.79 121.412C147.853 121.412 147.91 121.404 147.961 121.387C148.012 121.369 148.057 121.342 148.094 121.306C148.132 121.27 148.161 121.225 148.181 121.171L148.412 121.238C148.387 121.316 148.345 121.385 148.288 121.444C148.23 121.502 148.159 121.547 148.074 121.58C147.989 121.612 147.894 121.627 147.789 121.626ZM149.485 120.05L149.483 120.252L148.677 120.247L148.678 120.044L149.485 120.05ZM148.916 119.673L149.155 119.675L149.145 121.158C149.144 121.225 149.154 121.276 149.173 121.31C149.193 121.343 149.219 121.366 149.249 121.377C149.281 121.388 149.315 121.394 149.35 121.394C149.376 121.394 149.398 121.393 149.415 121.391C149.431 121.387 149.445 121.385 149.455 121.383L149.502 121.598C149.486 121.604 149.463 121.61 149.434 121.616C149.405 121.622 149.368 121.625 149.324 121.625C149.256 121.625 149.19 121.61 149.126 121.58C149.062 121.551 149.009 121.506 148.966 121.446C148.925 121.387 148.905 121.311 148.905 121.221L148.916 119.673Z" fill="white"/>
</g>
<mask id="mask5_200_752" style="mask-type:luminance" maskUnits="userSpaceOnUse" x="113" y="66" width="136" height="281">
<path d="M248.655 82.8723L247.332 330.765C247.326 331.861 247.211 332.955 246.988 334.022C246.895 334.501 246.765 334.98 246.6 335.505L246.296 336.381C245.8 337.736 245.05 339.099 244.093 340.362C243.629 340.974 243.109 341.569 242.554 342.109C242.044 342.622 241.445 343.135 240.781 343.629C240.472 343.854 240.1 344.105 239.673 344.375L239.5 344.482C239.146 344.697 238.782 344.904 238.402 345.091L238.139 345.208C237.513 345.512 236.86 345.771 236.188 345.985L235.962 346.057C235.427 346.217 234.928 346.341 234.439 346.447C233.361 346.649 232.265 346.752 231.169 346.746L129.486 346.204C128.336 346.197 127.188 346.073 126.075 345.823C125.695 345.74 125.315 345.647 124.954 345.537C124.123 345.287 123.31 344.967 122.515 344.583C122.136 344.391 121.757 344.19 121.432 343.989C121.243 343.88 121.098 343.797 120.972 343.715L120.873 343.651C120.593 343.478 120.278 343.259 119.89 342.967C118.889 342.201 117.952 341.3 117.115 340.282C116.773 339.863 116.477 339.464 116.208 339.064C115.768 338.401 115.382 337.711 115.06 337.03C114.639 336.149 114.3 335.251 114.052 334.318L113.989 334.073C113.661 332.759 113.497 331.409 113.504 330.052L114.827 82.1588C114.874 73.3055 122.127 66.1295 130.989 66.1771L232.672 66.7196C239.435 66.7563 245.214 70.9962 247.545 76.9378C248.27 78.7695 248.666 80.7804 248.655 82.8723Z" fill="white"/>
</mask>
<g mask="url(#mask5_200_752)">
<path d="M157.151 247.777L148.644 242.785L148.575 252.648L157.151 247.777Z" fill="white"/>
</g>
<mask id="mask6_200_752" style="mask-type:luminance" maskUnits="userSpaceOnUse" x="113" y="66" width="136" height="281">
<path d="M248.655 82.8723L247.332 330.765C247.326 331.861 247.211 332.955 246.988 334.022C246.895 334.501 246.765 334.98 246.6 335.505L246.296 336.381C245.8 337.736 245.05 339.099 244.093 340.362C243.629 340.974 243.109 341.569 242.554 342.109C242.044 342.622 241.445 343.135 240.781 343.629C240.472 343.854 240.1 344.105 239.673 344.375L239.5 344.482C239.146 344.697 238.782 344.904 238.402 345.091L238.139 345.208C237.513 345.512 236.86 345.771 236.188 345.985L235.962 346.057C235.427 346.217 234.928 346.341 234.439 346.447C233.361 346.649 232.265 346.752 231.169 346.746L129.486 346.204C128.336 346.197 127.188 346.073 126.075 345.823C125.695 345.74 125.315 345.647 124.954 345.537C124.123 345.287 123.31 344.967 122.515 344.583C122.136 344.391 121.757 344.19 121.432 343.989C121.243 343.88 121.098 343.797 120.972 343.715L120.873 343.651C120.593 343.478 120.278 343.259 119.89 342.967C118.889 342.201 117.952 341.3 117.115 340.282C116.773 339.863 116.477 339.464 116.208 339.064C115.768 338.401 115.382 337.711 115.06 337.03C114.639 336.149 114.3 335.251 114.052 334.318L113.989 334.073C113.661 332.759 113.497 331.409 113.504 330.052L114.827 82.1588C114.874 73.3055 122.127 66.1295 130.989 66.1771L232.672 66.7196C239.435 66.7563 245.214 70.9962 247.545 76.9378C248.27 78.7695 248.666 80.7804 248.655 82.8723Z" fill="white"/>
</mask>
<g mask="url(#mask6_200_752)">
<path d="M145.95 168.863C146.118 168.969 146.361 168.893 146.542 168.698C147.281 169.087 147.601 169.271 147.92 169.632C147.709 170.139 147.925 170.283 146.791 170.039C146.795 169.864 146.718 169.716 146.591 169.684C146.434 169.646 146.26 169.798 146.205 170.025C146.15 170.251 146.232 170.466 146.389 170.505C146.518 170.536 146.656 170.439 146.732 170.28C147.875 170.54 147.61 170.524 147.582 171.129C147.128 171.298 146.763 171.371 145.899 171.419C145.844 171.196 145.699 171.034 145.521 171.026C145.284 171.014 145.078 171.283 145.062 171.624C145.046 171.966 145.227 172.252 145.464 172.262C145.668 172.271 145.847 172.074 145.904 171.802C147.843 171.741 147.585 171.907 147.71 172.402C147.519 172.518 147.306 172.61 146.928 172.737C146.831 172.583 146.679 172.501 146.553 172.55C146.402 172.609 146.348 172.833 146.432 173.051C146.517 173.267 146.708 173.396 146.86 173.338C146.979 173.291 147.037 173.141 147.015 172.974C147.386 172.859 147.603 172.801 147.829 172.793C147.992 173.252 148.375 173.3 146.748 174.367C146.551 174.193 146.308 174.141 146.151 174.258C145.962 174.402 145.974 174.739 146.181 175.012C146.387 175.284 146.708 175.389 146.897 175.246C147.046 175.134 147.068 174.903 146.973 174.677C148.605 173.662 148.393 173.961 148.86 174.43C148.748 174.635 148.599 174.832 148.308 175.158C148.143 175.063 147.961 175.065 147.872 175.173C147.77 175.3 147.835 175.52 148.017 175.667C148.198 175.813 148.428 175.83 148.53 175.704C148.607 175.607 148.587 175.456 148.493 175.324C149.253 174.5 149.101 174.706 149.585 175.019C149.503 175.473 149.376 175.829 148.994 176.583C148.771 176.543 148.566 176.608 148.485 176.764C148.377 176.975 148.535 177.274 148.839 177.429C149.143 177.586 149.478 177.541 149.587 177.33C149.681 177.146 149.574 176.898 149.346 176.733C150.238 175.063 150.21 175.397 150.783 175.556C150.795 175.814 150.766 176.065 150.665 176.548C150.489 176.554 150.347 176.64 150.324 176.77C150.294 176.929 150.457 177.092 150.686 177.134C150.915 177.175 151.126 177.079 151.154 176.92C151.178 176.79 151.072 176.658 150.908 176.591C151.014 176.119 151.076 175.882 151.208 175.652C151.711 175.741 151.949 175.41 152.058 177.482C151.809 177.551 151.635 177.724 151.647 177.917C151.662 178.155 151.95 178.33 152.291 178.309C152.632 178.288 152.898 178.079 152.883 177.842C152.871 177.653 152.685 177.505 152.438 177.462C152.401 176.543 152.398 176.174 152.577 175.675C152.733 175.653 152.886 175.622 153.038 175.584C153.164 175.791 153.261 176.023 153.406 176.465C153.264 176.564 153.192 176.71 153.241 176.831C153.301 176.982 153.526 177.032 153.742 176.945C153.958 176.857 154.084 176.665 154.024 176.514C153.973 176.391 153.812 176.335 153.636 176.368C153.503 175.942 153.437 175.708 153.428 175.466C153.894 175.3 153.938 174.912 155.037 176.599C154.86 176.783 154.797 177.017 154.903 177.177C155.034 177.375 155.372 177.384 155.657 177.195C155.942 177.006 156.067 176.693 155.936 176.495C155.831 176.337 155.595 176.302 155.359 176.389C154.185 174.416 154.721 174.102 155.796 174.995C155.709 175.175 155.729 175.366 155.852 175.444C155.988 175.531 156.2 175.442 156.326 175.246C156.452 175.05 156.442 174.819 156.306 174.732C156.207 174.669 156.069 174.699 155.952 174.794C155.636 174.501 155.467 174.335 155.341 174.133C155.645 173.767 155.49 173.421 157.266 174.325C157.218 174.559 157.283 174.774 157.445 174.856C157.657 174.964 157.955 174.803 158.109 174.498C158.262 174.193 158.216 173.859 158.003 173.752C157.824 173.662 157.586 173.762 157.423 173.978C156.66 173.577 156.336 173.393 156.012 173.026C156.081 172.86 156.143 172.688 156.192 172.511C156.451 172.499 156.7 172.527 157.181 172.628C157.178 172.811 157.262 172.964 157.395 172.991C157.555 173.023 157.721 172.864 157.767 172.636C157.813 172.408 157.722 172.196 157.564 172.164C157.438 172.138 157.309 172.234 157.236 172.387C156.759 172.278 156.52 172.218 156.288 172.084C156.378 171.579 156.047 171.343 158.125 171.234C158.214 171.477 158.403 171.638 158.595 171.61C158.829 171.576 158.981 171.275 158.931 170.936C158.881 170.599 158.651 170.351 158.416 170.386C158.231 170.413 158.099 170.608 158.076 170.855C156.085 170.919 156.348 170.755 156.222 170.256C156.426 170.131 156.656 170.034 157.088 169.893C157.209 170.037 157.378 170.098 157.497 170.029C157.638 169.947 157.655 169.717 157.538 169.516C157.42 169.315 157.212 169.218 157.071 169.3C156.964 169.362 156.928 169.512 156.971 169.669C156.566 169.794 156.339 169.857 156.104 169.865C155.938 169.397 155.548 169.355 157.252 168.248C157.471 168.394 157.719 168.412 157.859 168.274C158.027 168.106 157.968 167.773 157.727 167.532C157.486 167.29 157.154 167.23 156.985 167.396C156.854 167.527 156.863 167.756 156.985 167.966C155.336 168.992 155.544 168.701 155.073 168.229C155.188 168.018 155.339 167.819 155.643 167.48C155.793 167.553 155.95 167.546 156.031 167.449C156.137 167.326 156.078 167.104 155.901 166.952C155.723 166.801 155.494 166.779 155.389 166.903C155.3 167.007 155.329 167.183 155.448 167.325C155.147 167.651 154.977 167.824 154.772 167.953C154.412 167.654 154.069 167.801 154.925 166.101C155.198 166.185 155.463 166.116 155.551 165.928C155.651 165.714 155.481 165.422 155.172 165.276C154.862 165.132 154.53 165.189 154.429 165.404C154.355 165.563 154.428 165.762 154.594 165.914C154.209 166.646 154.024 166.964 153.664 167.282C153.156 167.069 153.012 167.288 153.259 166.141C153.453 166.129 153.606 166.022 153.617 165.88C153.63 165.718 153.452 165.573 153.219 165.555C152.987 165.537 152.788 165.654 152.775 165.816C152.765 165.937 152.864 166.05 153.012 166.106C152.755 167.236 152.768 166.973 152.165 166.945C151.999 166.5 151.926 166.14 151.878 165.317C152.129 165.267 152.313 165.11 152.317 164.918C152.322 164.68 152.049 164.482 151.708 164.475C151.367 164.467 151.085 164.655 151.08 164.892C151.076 165.082 151.251 165.245 151.495 165.308C151.528 166.145 151.523 166.504 151.352 166.984C150.889 167.049 150.875 167.283 150.546 166.266C150.711 166.171 150.8 166.013 150.751 165.882C150.693 165.73 150.469 165.675 150.251 165.758C150.034 165.841 149.904 166.031 149.961 166.183C150.006 166.299 150.148 166.358 150.31 166.342C150.63 167.372 150.527 167.14 149.996 167.407C149.63 167.099 149.383 166.812 148.904 166.076C149.086 165.899 149.157 165.668 149.058 165.504C148.933 165.301 148.597 165.281 148.305 165.459C148.014 165.637 147.878 165.947 148.002 166.149C148.102 166.312 148.339 166.355 148.579 166.274C149.633 167.963 149.342 167.749 148.865 168.224C148.664 168.114 148.473 167.971 148.16 167.693C148.246 167.555 148.256 167.401 148.171 167.31C148.06 167.191 147.832 167.224 147.661 167.382C147.491 167.541 147.443 167.766 147.552 167.885C147.647 167.987 147.829 167.977 147.985 167.872C148.296 168.159 148.463 168.324 148.589 168.525C148.288 168.885 148.438 169.229 146.733 168.369C146.806 168.139 146.763 167.914 146.606 167.816C146.405 167.689 146.094 167.821 145.913 168.11C145.734 168.4 145.749 168.737 145.95 168.863Z" fill="white"/>
</g>
<path d="M279.496 264.543C286.767 265.825 293.701 260.97 294.983 253.699C296.265 246.427 291.41 239.494 284.139 238.211C276.868 236.929 269.934 241.784 268.652 249.056C267.369 256.327 272.225 263.261 279.496 264.543Z" fill="#5205DB"/>
<path d="M287.129 249.634C285.139 246.237 282.249 248.923 282.249 248.923C282.249 248.923 280.452 245.411 277.42 247.922C274.454 250.378 279.651 255.883 280.904 256.55C282.31 256.351 289.076 252.956 287.129 249.634Z" fill="white"/>
<path d="M67.3079 255.754C73.7524 256.891 79.8978 252.588 81.0341 246.143C82.1705 239.699 77.8674 233.553 71.4229 232.417C64.9785 231.281 58.8331 235.584 57.6967 242.028C56.5604 248.473 60.8635 254.618 67.3079 255.754Z" fill="#3B4AE4"/>
<path d="M74.5017 245.061C74.5632 244.712 74.4129 244.378 74.1467 244.181C74.4642 244.087 74.7199 243.823 74.7814 243.475C74.868 242.983 74.5403 242.515 74.049 242.429C73.9996 242.42 73.9053 242.403 73.9053 242.403L71.7333 242.07C71.7333 242.07 72.5286 240.227 72.5429 239.164C72.5573 238.1 71.2429 237.398 71.0162 238.547C70.7886 239.696 70.577 240.056 69.5089 240.909C68.8114 241.466 68.4061 241.926 68.2089 242.179C68.1107 242.305 68.0475 242.453 68.0198 242.61L67.2496 246.978C67.2075 247.217 67.3673 247.445 67.6062 247.487L72.846 248.411C72.846 248.411 72.9403 248.428 72.9897 248.437C73.481 248.523 73.9835 248.241 74.0314 247.744C74.0697 247.338 73.6052 247.099 73.6052 247.099C73.6052 247.099 74.218 247.137 74.3205 246.556C74.4158 246.015 74.1023 245.824 73.8672 245.766C74.1846 245.673 74.4403 245.409 74.5017 245.061Z" fill="white"/>
<path d="M66.8572 242.077L64.9666 241.743C64.6568 241.689 64.3618 241.896 64.3072 242.206L63.4356 247.149C63.3809 247.459 63.5882 247.754 63.8972 247.808L65.7878 248.142C66.0976 248.196 66.3924 247.99 66.447 247.68L67.3187 242.737C67.3742 242.427 67.1671 242.131 66.8572 242.077Z" fill="white"/>
<path d="M64.4019 149.628L42.6416 155.234C40.7295 155.726 39.5792 157.676 40.0719 159.587L43.0045 170.97C43.4971 172.882 45.4464 174.032 47.3577 173.539L47.6127 173.474L50.77 176.939C51.2286 177.442 52.0657 177.206 52.1921 176.537L53.0386 172.077L69.1178 167.934C71.0299 167.441 72.1802 165.492 71.6876 163.58L68.7551 152.197C68.2634 150.285 66.314 149.135 64.4019 149.628Z" fill="#7DBDDB"/>
<path d="M52.742 162.462C52.9658 163.33 52.4431 164.215 51.5748 164.439C50.7065 164.663 49.8217 164.14 49.5978 163.272C49.374 162.403 49.8968 161.518 50.7651 161.295C51.6332 161.072 52.5182 161.594 52.742 162.462Z" fill="white"/>
<path d="M57.6839 161.188C57.9077 162.057 57.385 162.942 56.5167 163.165C55.6484 163.389 54.7636 162.866 54.5398 161.998C54.316 161.13 54.8387 160.245 55.707 160.021C56.5751 159.798 57.4601 160.32 57.6839 161.188Z" fill="white"/>
<path d="M62.6259 159.915C62.8497 160.783 62.3269 161.668 61.4586 161.892C60.5904 162.116 59.7055 161.593 59.4817 160.725C59.2579 159.857 59.7807 158.972 60.6489 158.748C61.5171 158.525 62.4021 159.047 62.6259 159.915Z" fill="white"/>
</svg>
