<svg width="41" height="41" viewBox="0 0 41 41" fill="none" xmlns="http://www.w3.org/2000/svg">
<g clip-path="url(#clip0_285_194)">
<path d="M39.7963 37.4385L38.0013 35.6435L35.1179 32.7652L39.7663 28.1168C39.9641 27.9187 40.1088 27.6739 40.1871 27.405C40.2653 27.1361 40.2746 26.8518 40.214 26.5785C40.1533 26.3051 40.0248 26.0514 39.8402 25.8408C39.6557 25.6302 39.421 25.4695 39.1579 25.3735L24.2096 19.9502C23.6142 19.735 22.9697 19.6938 22.3518 19.8315C21.7338 19.9691 21.1678 20.28 20.72 20.7276C20.2722 21.1752 19.9612 21.741 19.8233 22.359C19.6854 22.9769 19.7263 23.6213 19.9413 24.2168L25.3796 39.1652C25.4751 39.4285 25.6354 39.6635 25.8457 39.8485C26.056 40.0334 26.3096 40.1624 26.5829 40.2235C26.7017 40.2494 26.823 40.2622 26.9446 40.2618C27.3866 40.2618 27.8104 40.0861 28.1229 39.7735L32.7663 35.1168L35.6446 37.9952L37.4396 39.7902C37.7539 40.0938 38.1749 40.2618 38.6119 40.258C39.0489 40.2542 39.4669 40.0789 39.776 39.7699C40.085 39.4609 40.2603 39.0428 40.2641 38.6059C40.2678 38.1689 40.0999 37.7479 39.7963 37.4335V37.4385ZM27.6179 35.5585L23.0779 23.0752L35.5613 27.6152L27.6179 35.5585Z" fill="#6479BF"/>
<path d="M16.9509 33.6175C13.6546 33.6175 10.4322 32.64 7.69141 30.8087C4.95059 28.9773 2.81438 26.3743 1.55292 23.3289C0.291462 20.2835 -0.0385934 16.9324 0.604494 13.6993C1.24758 10.4663 2.83493 7.49662 5.1658 5.16574C7.49668 2.83487 10.4664 1.24752 13.6994 0.604433C16.9324 -0.0386545 20.2835 0.291401 23.329 1.55286C26.3744 2.81432 28.9774 4.95053 30.8087 7.69135C32.6401 10.4322 33.6176 13.6545 33.6176 16.9509C33.6176 17.3929 33.442 17.8168 33.1294 18.1294C32.8169 18.4419 32.3929 18.6175 31.9509 18.6175C31.5089 18.6175 31.085 18.4419 30.7724 18.1294C30.4598 17.8168 30.2842 17.3929 30.2842 16.9509C30.2842 14.3138 29.5023 11.7359 28.0372 9.54325C26.5721 7.35059 24.4897 5.64163 22.0534 4.63246C19.617 3.62329 16.9361 3.35925 14.3497 3.87372C11.7633 4.38819 9.38752 5.65806 7.52282 7.52276C5.65812 9.38746 4.38825 11.7632 3.87378 14.3497C3.35931 16.9361 3.62335 19.617 4.63252 22.0533C5.64169 24.4896 7.35066 26.572 9.54331 28.0371C11.736 29.5022 14.3138 30.2842 16.9509 30.2842C17.3929 30.2842 17.8169 30.4598 18.1294 30.7723C18.442 31.0849 18.6176 31.5088 18.6176 31.9509C18.6176 32.3929 18.442 32.8168 18.1294 33.1294C17.8169 33.4419 17.3929 33.6175 16.9509 33.6175Z" fill="#6479BF"/>
<path d="M13.7574 26.3178C13.5384 26.318 13.3215 26.2749 13.1191 26.1912C11.6005 25.5604 10.2609 24.565 9.2189 23.2929C8.1769 22.0209 7.46465 20.5115 7.14524 18.8985C6.82584 17.2855 6.90913 15.6186 7.38773 14.0454C7.86634 12.4723 8.7255 11.0414 9.88912 9.87957C11.0527 8.71774 12.4849 7.86077 14.0588 7.38457C15.6327 6.90837 17.2997 6.82763 18.9122 7.14951C20.5248 7.47138 22.0331 8.18594 23.3035 9.22989C24.574 10.2738 25.5674 11.615 26.1958 13.1345C26.2838 13.3375 26.3306 13.556 26.3333 13.7773C26.3361 13.9986 26.2947 14.2182 26.2116 14.4233C26.1286 14.6285 26.0055 14.815 25.8496 14.972C25.6937 15.1291 25.5081 15.2535 25.3036 15.3381C25.099 15.4226 24.8797 15.4656 24.6584 15.4645C24.4371 15.4634 24.2183 15.4182 24.0146 15.3316C23.811 15.245 23.6266 15.1187 23.4723 14.9601C23.318 14.8015 23.1968 14.6138 23.1158 14.4078C22.6959 13.3957 22.033 12.5027 21.1857 11.8078C20.3385 11.113 19.333 10.6376 18.2583 10.4239C17.1836 10.2102 16.0728 10.2647 15.0242 10.5825C13.9755 10.9004 13.0214 11.4718 12.2462 12.2462C11.471 13.0207 10.8987 13.9742 10.5798 15.0226C10.261 16.0709 10.2054 17.1817 10.4181 18.2566C10.6308 19.3315 11.1052 20.3374 11.7993 21.1853C12.4934 22.0332 13.3857 22.697 14.3974 23.1178C14.754 23.2654 15.0483 23.5321 15.2301 23.8724C15.412 24.2127 15.4701 24.6056 15.3945 24.984C15.319 25.3624 15.1145 25.7029 14.816 25.9474C14.5174 26.1918 14.1433 26.3251 13.7574 26.3245V26.3178Z" fill="#6479BF"/>
</g>
<defs>
<clipPath id="clip0_285_194">
<rect width="40" height="40" fill="white" transform="translate(0.284241 0.28418)"/>
</clipPath>
</defs>
</svg>
