<svg width="24" height="24" viewBox="0 0 24 24" fill="none" xmlns="http://www.w3.org/2000/svg">
<g clip-path="url(#clip0_240_968)">
<path d="M6.0202 14.624L12.0002 15.82L12.0002 20.893C11.9908 21.6162 12.2361 22.3197 12.6931 22.8802C13.1502 23.4408 13.7899 23.8227 14.5002 23.959C14.9305 24.0317 15.3714 24.0097 15.7923 23.8945C16.2132 23.7793 16.6038 23.5736 16.9371 23.2919C17.2703 23.0102 17.5381 22.6592 17.7217 22.2633C17.9053 21.8675 18.0003 21.4363 18.0002 21L18.0002 14.339L20.7892 10.7C21.6072 9.74261 22.0356 8.51283 21.9895 7.25443C21.9434 5.99603 21.4261 4.80091 20.5402 3.90598L18.1402 1.48099C17.1985 0.536066 15.9203 0.00342316 14.5862 -1.78136e-05L7.0002 -1.84768e-05C5.67461 0.00157023 4.40376 0.528864 3.46642 1.4662C2.52909 2.40354 2.00179 3.67439 2.0002 4.99998L2.0002 9.72098C2.00266 10.8763 2.4041 11.9953 3.13662 12.8887C3.86914 13.7822 4.88777 14.3951 6.0202 14.624ZM4.0002 4.99998C4.0002 4.20433 4.31627 3.44127 4.87888 2.87866C5.44149 2.31605 6.20455 1.99998 7.0002 1.99998L14.5862 1.99998C15.3875 2.0023 16.1551 2.3228 16.7202 2.89099L19.1202 5.31898C19.6565 5.86462 19.9665 6.59294 19.988 7.3577C20.0095 8.12246 19.741 8.86705 19.2362 9.44198L18.0002 11.055L18.0002 6.99998C18.0002 6.73477 17.8948 6.48041 17.7073 6.29288C17.5198 6.10534 17.2654 5.99998 17.0002 5.99998C16.735 5.99998 16.4806 6.10534 16.2931 6.29288C16.1056 6.48041 16.0002 6.73477 16.0002 6.99998L16.0002 21C16.0003 21.1463 15.9683 21.2908 15.9065 21.4233C15.8446 21.5559 15.7544 21.6733 15.6423 21.7672C15.5302 21.8611 15.3988 21.9293 15.2574 21.9669C15.1161 22.0046 14.9682 22.0107 14.8242 21.985C14.5821 21.9257 14.3679 21.7847 14.2177 21.5857C14.0676 21.3868 13.9908 21.1421 14.0002 20.893L14.0002 15C14.0003 14.7695 13.9206 14.546 13.7749 14.3674C13.6291 14.1888 13.4261 14.0661 13.2002 14.02L6.4162 12.663C5.73616 12.5261 5.12427 12.1585 4.68404 11.6224C4.2438 11.0863 4.00223 10.4147 4.0002 9.72098L4.0002 4.99998Z" fill="#E22D3A"/>
</g>
<defs>
<clipPath id="clip0_240_968">
<rect width="24" height="24" fill="white" transform="translate(24 24) rotate(-180)"/>
</clipPath>
</defs>
</svg>
