<svg width="40" height="40" viewBox="0 0 40 40" fill="none" xmlns="http://www.w3.org/2000/svg">
<g clip-path="url(#clip0_285_160)">
<path d="M20.0002 25.0002C19.5581 25.0002 19.1342 24.8246 18.8216 24.5121C18.5091 24.1995 18.3335 23.7756 18.3335 23.3336C18.3954 22.2445 18.7267 21.1879 19.2977 20.2584C19.8688 19.329 20.6616 18.5559 21.6052 18.0086C22.2217 17.6707 22.7152 17.1459 23.0147 16.5098C23.3142 15.8737 23.4042 15.1591 23.2718 14.4686C23.1435 13.809 22.821 13.2029 22.3459 12.7278C21.8708 12.2527 21.2647 11.9303 20.6052 11.8019C20.1237 11.713 19.6286 11.7313 19.155 11.8555C18.6814 11.9796 18.241 12.2065 17.865 12.5201C17.4891 12.8337 17.1868 13.2263 16.9797 13.6699C16.7726 14.1135 16.6658 14.5973 16.6668 15.0869C16.6668 15.5289 16.4912 15.9528 16.1787 16.2654C15.8661 16.578 15.4422 16.7536 15.0002 16.7536C14.5581 16.7536 14.1342 16.578 13.8216 16.2654C13.5091 15.9528 13.3335 15.5289 13.3335 15.0869C13.3333 14.1132 13.5465 13.1512 13.9579 12.2687C14.3694 11.3861 14.9692 10.6044 15.7152 9.97857C16.4281 9.38257 17.2577 8.9422 18.1509 8.6857C19.044 8.42921 19.9809 8.36225 20.9014 8.48914C21.8219 8.61602 22.7057 8.93394 23.4962 9.4225C24.2866 9.91106 24.9662 10.5595 25.4913 11.3261C26.0164 12.0927 26.3754 12.9607 26.5453 13.8742C26.7152 14.7878 26.6923 15.7268 26.478 16.631C26.2637 17.5351 25.8627 18.3845 25.3008 19.1246C24.7389 19.8647 24.0285 20.4792 23.2152 20.9286C22.7937 21.1882 22.4359 21.5391 22.168 21.9553C21.9 22.3715 21.7288 22.8425 21.6668 23.3336C21.6668 23.7756 21.4912 24.1995 21.1787 24.5121C20.8661 24.8246 20.4422 25.0002 20.0002 25.0002ZM21.3218 39.6002C24.9218 38.1536 36.6668 32.4652 36.6668 20.0719V11.4536C36.6687 9.70192 36.1177 7.99435 35.0925 6.57409C34.0672 5.15383 32.62 4.0933 30.9568 3.54357L20.5252 0.0852338C20.1846 -0.0297133 19.8157 -0.0297133 19.4752 0.0852338L9.04349 3.54357C7.38034 4.0933 5.93307 5.15383 4.90783 6.57409C3.88258 7.99435 3.33164 9.70192 3.33349 11.4536V20.0719C3.33349 31.0086 15.0085 37.6986 18.5885 39.4886C19.0213 39.7493 19.5008 39.9231 20.0002 40.0002C20.4617 39.9502 20.9099 39.8145 21.3218 39.6002ZM29.9068 6.7069C30.9044 7.03759 31.7724 7.6742 32.3875 8.52629C33.0026 9.37838 33.3336 10.4026 33.3335 11.4536V20.0719C33.3335 30.3769 23.1885 35.2569 20.0785 36.5069C16.9318 34.9336 6.66683 29.0986 6.66683 20.0719V11.4536C6.66669 10.4026 6.99769 9.37838 7.61283 8.52629C8.22796 7.6742 9.09595 7.03759 10.0935 6.7069L20.0002 3.42357L29.9068 6.7069ZM20.0002 28.3336C19.6705 28.3336 19.3483 28.4313 19.0742 28.6145C18.8001 28.7976 18.5865 29.0579 18.4604 29.3624C18.3342 29.667 18.3012 30.0021 18.3655 30.3254C18.4298 30.6487 18.5886 30.9457 18.8216 31.1787C19.0547 31.4118 19.3517 31.5706 19.675 31.6349C19.9983 31.6992 20.3334 31.6662 20.638 31.54C20.9425 31.4139 21.2028 31.2003 21.3859 30.9262C21.5691 30.6521 21.6668 30.3299 21.6668 30.0002C21.6668 29.5582 21.4912 29.1343 21.1787 28.8217C20.8661 28.5092 20.4422 28.3336 20.0002 28.3336Z" fill="#1D2E66"/>
</g>
<defs>
<clipPath id="clip0_285_160">
<rect width="40" height="40" fill="white"/>
</clipPath>
</defs>
</svg>
