<svg width="40" height="40" viewBox="0 0 40 40" fill="none" xmlns="http://www.w3.org/2000/svg">
<g clip-path="url(#clip0_285_271)">
<path d="M38.3333 21.6676H1.66665C1.22463 21.6676 0.800703 21.492 0.488142 21.1794C0.175581 20.8668 -1.33514e-05 20.4429 -1.33514e-05 20.0009C-1.33514e-05 19.5589 0.175581 19.1349 0.488142 18.8224C0.800703 18.5098 1.22463 18.3342 1.66665 18.3342H38.3333C38.7753 18.3342 39.1993 18.5098 39.5118 18.8224C39.8244 19.1349 40 19.5589 40 20.0009C40 20.4429 39.8244 20.8668 39.5118 21.1794C39.1993 21.492 38.7753 21.6676 38.3333 21.6676ZM31.5567 11.8776C31.7661 10.9887 31.6686 10.0551 31.2801 9.22869C30.8915 8.40226 30.2348 7.73163 29.4167 7.3259L16.1133 0.71423C15.2829 0.242616 14.3439 -0.00462857 13.3889 -0.00316739C12.4339 -0.00170621 11.4957 0.24841 10.6667 0.722564C9.94438 1.14117 9.34718 1.74529 8.93692 2.47233C8.52666 3.19937 8.31826 4.02289 8.33332 4.85756V10.0009C8.33332 11.327 8.8601 12.5987 9.79779 13.5364C10.7355 14.4741 12.0072 15.0009 13.3333 15.0009H27.1967C28.1724 15.0644 29.14 14.788 29.9349 14.2186C30.7298 13.6491 31.3029 12.8219 31.5567 11.8776ZM14.5617 3.66756L27.915 10.3009C28.0633 10.3667 28.1842 10.4819 28.2571 10.6269C28.3301 10.7718 28.3505 10.9376 28.315 11.0959C28.1917 11.6092 27.4917 11.6642 27.1967 11.6642H13.3333C12.8919 11.6642 12.4685 11.4891 12.156 11.1773C11.8435 10.8654 11.6675 10.4423 11.6667 10.0009V4.85756C11.6544 4.60312 11.713 4.35026 11.836 4.12719C11.959 3.90412 12.1416 3.71961 12.3633 3.59423C12.6637 3.42109 13.0049 3.33133 13.3517 3.33423C13.7768 3.34064 14.1932 3.45537 14.5617 3.66756ZM16.0467 39.3242L29.435 32.6676C30.2485 32.2597 30.9005 31.5892 31.2856 30.7647C31.6706 29.9402 31.7661 29.0098 31.5567 28.1242C31.3029 27.1799 30.7298 26.3527 29.9349 25.7832C29.14 25.2138 28.1724 24.9373 27.1967 25.0009H13.3333C12.0072 25.0009 10.7355 25.5277 9.79779 26.4654C8.8601 27.403 8.33332 28.6748 8.33332 30.0009V35.1426C8.31808 35.9773 8.52641 36.8009 8.93669 37.5279C9.34696 38.255 9.94426 38.8591 10.6667 39.2776C11.4926 39.757 12.4317 40.0067 13.3867 40.0009C14.3167 40.0037 15.2321 39.7697 16.0467 39.3209V39.3242ZM27.1967 28.3342C27.4917 28.3342 28.1967 28.3892 28.315 28.9026C28.3511 29.0576 28.3328 29.2203 28.2634 29.3634C28.1939 29.5066 28.0774 29.6216 27.9333 29.6892L14.5 36.3709C14.177 36.5577 13.8116 36.6589 13.4385 36.6647C13.0654 36.6705 12.697 36.5809 12.3683 36.4042C12.1455 36.2797 11.9618 36.0955 11.8379 35.8723C11.7139 35.6492 11.6546 35.3959 11.6667 35.1409V30.0009C11.6667 29.5589 11.8422 29.1349 12.1548 28.8224C12.4674 28.5098 12.8913 28.3342 13.3333 28.3342H27.1967Z" fill="#6479BF"/>
</g>
<defs>
<clipPath id="clip0_285_271">
<rect width="40" height="40" fill="white"/>
</clipPath>
</defs>
</svg>
