<svg width="20" height="20" viewBox="0 0 20 20" fill="none" xmlns="http://www.w3.org/2000/svg">
<g clip-path="url(#clip0_240_932)">
<path d="M15.8333 0H9.16667C8.062 0.00132321 7.00296 0.440735 6.22185 1.22185C5.44073 2.00296 5.00132 3.062 5 4.16667V9.16667H4.16667C3.062 9.16799 2.00296 9.6074 1.22185 10.3885C0.440735 11.1696 0.00132321 12.2287 0 13.3333L0 15.8333C0.00132321 16.938 0.440735 17.997 1.22185 18.7782C2.00296 19.5593 3.062 19.9987 4.16667 20H6.66667C7.77133 19.9987 8.83037 19.5593 9.61148 18.7782C10.3926 17.997 10.832 16.938 10.8333 15.8333V15H15.8333C16.938 14.9987 17.997 14.5593 18.7782 13.7782C19.5593 12.997 19.9987 11.938 20 10.8333V4.16667C19.9987 3.062 19.5593 2.00296 18.7782 1.22185C17.997 0.440735 16.938 0.00132321 15.8333 0V0ZM9.16667 13.3333C8.50362 13.3333 7.86774 13.0699 7.3989 12.6011C6.93006 12.1323 6.66667 11.4964 6.66667 10.8333C7.32971 10.8333 7.96559 11.0967 8.43443 11.5656C8.90327 12.0344 9.16667 12.6703 9.16667 13.3333ZM9.16667 15.8333C9.16667 16.4964 8.90327 17.1323 8.43443 17.6011C7.96559 18.0699 7.32971 18.3333 6.66667 18.3333H4.16667C3.50363 18.3333 2.86774 18.0699 2.3989 17.6011C1.93006 17.1323 1.66667 16.4964 1.66667 15.8333V13.3333C1.66667 12.6703 1.93006 12.0344 2.3989 11.5656C2.86774 11.0967 3.50363 10.8333 4.16667 10.8333H5C5.00132 11.938 5.44073 12.997 6.22185 13.7782C7.00296 14.5593 8.062 14.9987 9.16667 15V15.8333ZM18.3333 10.8333C18.3333 11.4964 18.0699 12.1323 17.6011 12.6011C17.1323 13.0699 16.4964 13.3333 15.8333 13.3333H10.8333C10.8332 12.5169 10.5917 11.7187 10.1392 11.0392L15 6.17833V8.33333C15 8.55435 15.0878 8.76631 15.2441 8.92259C15.4004 9.07887 15.6123 9.16667 15.8333 9.16667C16.0543 9.16667 16.2663 9.07887 16.4226 8.92259C16.5789 8.76631 16.6667 8.55435 16.6667 8.33333V5.83333C16.6667 5.17029 16.4033 4.53441 15.9344 4.06557C15.4656 3.59673 14.8297 3.33333 14.1667 3.33333H11.6667C11.4457 3.33333 11.2337 3.42113 11.0774 3.57741C10.9211 3.73369 10.8333 3.94565 10.8333 4.16667C10.8333 4.38768 10.9211 4.59964 11.0774 4.75592C11.2337 4.9122 11.4457 5 11.6667 5H13.8217L8.96083 9.86083C8.28127 9.40834 7.4831 9.16683 6.66667 9.16667V4.16667C6.66667 3.50363 6.93006 2.86774 7.3989 2.3989C7.86774 1.93006 8.50362 1.66667 9.16667 1.66667H15.8333C16.4964 1.66667 17.1323 1.93006 17.6011 2.3989C18.0699 2.86774 18.3333 3.50363 18.3333 4.16667V10.8333Z" fill="#E22D3A"/>
</g>
<defs>
<clipPath id="clip0_240_932">
<rect width="20" height="20" fill="white"/>
</clipPath>
</defs>
</svg>
