<svg width="24" height="24" viewBox="0 0 24 24" fill="none" xmlns="http://www.w3.org/2000/svg">
<path d="M13.1001 19.0008C12.9023 19 12.7092 18.9405 12.5452 18.8299C12.3812 18.7194 12.2537 18.5627 12.1788 18.3796C12.1039 18.1966 12.0849 17.9955 12.1243 17.8017C12.1637 17.6078 12.2596 17.4301 12.4001 17.2908L17.0001 12.7108C17.0938 12.6178 17.1682 12.5072 17.219 12.3854C17.2697 12.2635 17.2959 12.1328 17.2959 12.0008C17.2959 11.8688 17.2697 11.7381 17.219 11.6162C17.1682 11.4944 17.0938 11.3838 17.0001 11.2908L12.4001 6.71079C12.3063 6.61783 12.2319 6.50723 12.1812 6.38537C12.1304 6.26351 12.1043 6.1328 12.1043 6.00079C12.1043 5.86878 12.1304 5.73808 12.1812 5.61622C12.2319 5.49436 12.3063 5.38376 12.4001 5.29079C12.5874 5.10454 12.8409 5 13.1051 5C13.3692 5 13.6227 5.10454 13.8101 5.29079L18.4001 9.88079C18.9619 10.4433 19.2774 11.2058 19.2774 12.0008C19.2774 12.7958 18.9619 13.5583 18.4001 14.1208L13.8101 18.7108C13.7166 18.8035 13.6058 18.8768 13.484 18.9266C13.3621 18.9763 13.2317 19.0016 13.1001 19.0008Z" fill="#E22D3A"/>
<path d="M6.10006 19.0008C5.90228 19 5.7092 18.9405 5.54521 18.8299C5.38123 18.7194 5.25371 18.5627 5.17879 18.3796C5.10386 18.1966 5.08489 17.9955 5.12428 17.8017C5.16366 17.6078 5.25963 17.4301 5.40006 17.2908L10.6901 12.0008L5.40006 6.71079C5.30633 6.61783 5.23193 6.50723 5.18116 6.38537C5.1304 6.26351 5.10426 6.1328 5.10426 6.00079C5.10426 5.86878 5.1304 5.73808 5.18116 5.61622C5.23193 5.49436 5.30633 5.38376 5.40006 5.29079C5.58742 5.10454 5.84087 5 6.10506 5C6.36924 5 6.62269 5.10454 6.81006 5.29079L12.8101 11.2908C12.9038 11.3838 12.9782 11.4944 13.0289 11.6162C13.0797 11.7381 13.1059 11.8688 13.1059 12.0008C13.1059 12.1328 13.0797 12.2635 13.0289 12.3854C12.9782 12.5072 12.9038 12.6178 12.8101 12.7108L6.81006 18.7108C6.71662 18.8035 6.6058 18.8768 6.48396 18.9266C6.36212 18.9763 6.23166 19.0016 6.10006 19.0008Z" fill="#E22D3A"/>
</svg>
