<svg width="20" height="21" viewBox="0 0 20 21" fill="none" xmlns="http://www.w3.org/2000/svg">
<g clip-path="url(#clip0_221_6392)">
<path d="M20 10.1279C20 12.1057 19.4135 14.0391 18.3147 15.6836C17.2159 17.3281 15.6541 18.6098 13.8268 19.3667C11.9996 20.1236 9.98891 20.3216 8.0491 19.9358C6.10929 19.5499 4.32746 18.5975 2.92894 17.199C1.53041 15.8005 0.578004 14.0186 0.192152 12.0788C-0.193701 10.139 0.00433286 8.12836 0.761209 6.3011C1.51809 4.47383 2.79981 2.91205 4.4443 1.81323C6.08879 0.714419 8.02219 0.12793 10 0.12793C12.6513 0.130797 15.1932 1.18529 17.0679 3.06003C18.9426 4.93477 19.9971 7.47665 20 10.1279ZM1.66667 10.1279C1.66667 11.7761 2.15541 13.3873 3.07109 14.7577C3.98677 16.1281 5.28826 17.1962 6.81098 17.8269C8.33369 18.4577 10.0092 18.6227 11.6258 18.3011C13.2423 17.9796 14.7271 17.1859 15.8926 16.0205C17.058 14.855 17.8517 13.3702 18.1732 11.7537C18.4948 10.1372 18.3297 8.46162 17.699 6.9389C17.0683 5.41618 16.0002 4.11469 14.6298 3.19902C13.2593 2.28334 11.6482 1.7946 10 1.7946C7.79061 1.79702 5.67241 2.67578 4.11013 4.23805C2.54785 5.80033 1.6691 7.91854 1.66667 10.1279ZM12.845 8.9496L8.91667 5.02293L7.74084 6.20126L11.6667 10.1279L7.7725 14.0221L8.95084 15.2004L12.845 11.3063C13.1575 10.9937 13.333 10.5699 13.333 10.1279C13.333 9.68599 13.1575 9.26214 12.845 8.9496Z" fill="#1D2E66"/>
</g>
<defs>
<clipPath id="clip0_221_6392">
<rect width="20" height="20" fill="white" transform="translate(0 0.12793)"/>
</clipPath>
</defs>
</svg>
