<svg width="25" height="25" viewBox="0 0 25 25" fill="none" xmlns="http://www.w3.org/2000/svg">
<g clip-path="url(#clip0_177_6083)">
<path d="M17.7083 12.5V13.5417H15.1042L13.1135 16.0635C12.9104 16.4354 12.5208 16.6667 12.0979 16.6667H10.9385L12.1542 13.5417H10.0531L8.44271 11.6323C8.13333 11.0906 8.52396 10.4167 9.14792 10.4167C9.36354 10.4167 9.56979 10.5021 9.72188 10.6542L10.8781 11.4583H12.1708L10.9375 8.33333H12.0792C12.5031 8.33333 12.8927 8.56458 13.0948 8.93646L15.1042 11.4583H16.4062C17.2417 11.4583 17.7083 11.925 17.7083 12.5ZM21.875 12.5C21.875 13.649 22.8094 14.5833 23.9583 14.5833H25V18.75C25 20.4729 23.5979 21.875 21.875 21.875H3.125C1.40208 21.875 0 20.4729 0 18.75V6.25C0 4.52708 1.40208 3.125 3.125 3.125H21.875C23.5979 3.125 25 4.52708 25 6.25V10.4167H23.9583C22.8094 10.4167 21.875 11.351 21.875 12.5ZM19.7917 12.5C19.7917 10.5625 21.1208 8.92812 22.9167 8.46562V6.25C22.9167 5.675 22.45 5.20833 21.875 5.20833H6.25V7.29167H4.16667V5.20833H3.125C2.55 5.20833 2.08333 5.675 2.08333 6.25V18.75C2.08333 19.325 2.55 19.7917 3.125 19.7917H4.16667V17.7083H6.25V19.7917H21.875C22.45 19.7917 22.9167 19.325 22.9167 18.75V16.5344C21.1208 16.0719 19.7917 14.4375 19.7917 12.5ZM4.16667 11.4583H6.25V9.375H4.16667V11.4583ZM4.16667 15.625H6.25V13.5417H4.16667V15.625Z" fill="white"/>
</g>
<defs>
<clipPath id="clip0_177_6083">
<rect width="25" height="25" fill="white"/>
</clipPath>
</defs>
</svg>
