<svg width="18" height="18" viewBox="0 0 18 18" fill="none" xmlns="http://www.w3.org/2000/svg">
<g clip-path="url(#clip0_570_1303)">
<path d="M15.8663 2.454L14.1533 0.68475C13.9429 0.468724 13.6915 0.29688 13.4138 0.179296C13.1361 0.0617118 12.8378 0.000754823 12.5363 0L9 0C8.13585 0.00109089 7.29849 0.300068 6.62906 0.846539C5.95964 1.39301 5.49907 2.15356 5.325 3H5.25C4.2558 3.00119 3.30267 3.39666 2.59967 4.09966C1.89666 4.80267 1.50119 5.7558 1.5 6.75V14.25C1.50119 15.2442 1.89666 16.1973 2.59967 16.9003C3.30267 17.6033 4.2558 17.9988 5.25 18H9.75C10.7442 17.9988 11.6973 17.6033 12.4003 16.9003C13.1033 16.1973 13.4988 15.2442 13.5 14.25V14.175C14.3464 14.0009 15.107 13.5404 15.6535 12.8709C16.1999 12.2015 16.4989 11.3642 16.5 10.5V4.02C16.5011 3.43531 16.2737 2.87334 15.8663 2.454ZM9.75 16.5H5.25C4.65326 16.5 4.08097 16.2629 3.65901 15.841C3.23705 15.419 3 14.8467 3 14.25V6.75C3 6.15326 3.23705 5.58097 3.65901 5.15901C4.08097 4.73705 4.65326 4.5 5.25 4.5V10.5C5.25119 11.4942 5.64666 12.4473 6.34967 13.1503C7.05267 13.8533 8.0058 14.2488 9 14.25H12C12 14.8467 11.7629 15.419 11.341 15.841C10.919 16.2629 10.3467 16.5 9.75 16.5ZM12.75 12.75H9C8.40326 12.75 7.83097 12.5129 7.40901 12.091C6.98705 11.669 6.75 11.0967 6.75 10.5V3.75C6.75 3.15326 6.98705 2.58097 7.40901 2.15901C7.83097 1.73705 8.40326 1.5 9 1.5H12V3C12 3.39782 12.158 3.77936 12.4393 4.06066C12.7206 4.34196 13.1022 4.5 13.5 4.5H15V10.5C15 11.0967 14.7629 11.669 14.341 12.091C13.919 12.5129 13.3467 12.75 12.75 12.75Z" fill="#1D2E66"/>
</g>
<defs>
<clipPath id="clip0_570_1303">
<rect width="18" height="18" fill="white"/>
</clipPath>
</defs>
</svg>
