<svg width="40" height="40" viewBox="0 0 40 40" fill="none" xmlns="http://www.w3.org/2000/svg">
<g clip-path="url(#clip0_570_1287)">
<path d="M33.2485 9.22719L27.4418 3.41719C26.3607 2.33076 25.0749 1.46941 23.6589 0.882959C22.2428 0.296506 20.7245 -0.00341818 19.1918 0.000526696H11.6668C9.4575 0.00317312 7.33943 0.881997 5.7772 2.44423C4.21497 4.00646 3.33614 6.12453 3.3335 8.33386V31.6672C3.33614 33.8765 4.21497 35.9946 5.7772 37.5568C7.33943 39.1191 9.4575 39.9979 11.6668 40.0005H28.3335C30.5428 39.9979 32.6609 39.1191 34.2231 37.5568C35.7854 35.9946 36.6642 33.8765 36.6668 31.6672V17.4755C36.671 15.9429 36.371 14.4247 35.7842 13.0088C35.1974 11.593 34.3356 10.3076 33.2485 9.22719ZM30.8918 11.5839C31.4008 12.1074 31.8384 12.6958 32.1935 13.3339H25.0002C24.5581 13.3339 24.1342 13.1583 23.8217 12.8457C23.5091 12.5331 23.3335 12.1092 23.3335 11.6672V4.47386C23.9717 4.82873 24.5606 5.2658 25.0852 5.77386L30.8918 11.5839ZM33.3335 31.6672C33.3335 32.9933 32.8067 34.265 31.869 35.2027C30.9313 36.1404 29.6596 36.6672 28.3335 36.6672H11.6668C10.3407 36.6672 9.06898 36.1404 8.1313 35.2027C7.19361 34.265 6.66683 32.9933 6.66683 31.6672V8.33386C6.66683 7.00778 7.19361 5.73601 8.1313 4.79833C9.06898 3.86064 10.3407 3.33386 11.6668 3.33386H19.1918C19.4652 3.33386 19.7302 3.38719 20.0002 3.41219V11.6672C20.0002 12.9933 20.5269 14.265 21.4646 15.2027C22.4023 16.1404 23.6741 16.6672 25.0002 16.6672H33.2552C33.2802 16.9372 33.3335 17.2005 33.3335 17.4755V31.6672Z" fill="#6479BF"/>
</g>
<defs>
<clipPath id="clip0_570_1287">
<rect width="40" height="40" fill="white"/>
</clipPath>
</defs>
</svg>
