<svg width="100%" height="100%" viewBox="0 0 24 25" fill="none" xmlns="http://www.w3.org/2000/svg">
<g clip-path="url(#clip0_148_347)">
<path d="M18.5811 3.13571L12.3161 1.04671C12.111 0.978385 11.8893 0.978385 11.6841 1.04671L5.41912 3.13571C4.42303 3.46659 3.55654 4.10296 2.94277 4.95442C2.329 5.80587 1.99916 6.82909 2.00012 7.87871V12.9957C2.00012 20.5587 11.2001 24.7357 11.5941 24.9097C11.7219 24.9665 11.8603 24.9958 12.0001 24.9958C12.14 24.9958 12.2783 24.9665 12.4061 24.9097C12.8001 24.7357 22.0001 20.5587 22.0001 12.9957V7.87871C22.0011 6.82909 21.6713 5.80587 21.0575 4.95442C20.4437 4.10296 19.5772 3.46659 18.5811 3.13571ZM20.0001 12.9957C20.0001 18.4507 13.6811 22.0287 12.0001 22.8847C10.3171 22.0317 4.00012 18.4647 4.00012 12.9957V7.87871C4.00018 7.24898 4.1984 6.63525 4.56669 6.12445C4.93498 5.61365 5.45467 5.2317 6.05212 5.03271L12.0001 3.04971L17.9481 5.03271C18.5456 5.2317 19.0653 5.61365 19.4336 6.12445C19.8018 6.63525 20.0001 7.24898 20.0001 7.87871V12.9957Z" fill="#E22D3A"/>
<path d="M15.2999 9.29536L11.1119 13.4954L8.86792 11.1554C8.77786 11.0569 8.66901 10.9775 8.54778 10.9217C8.42654 10.866 8.29538 10.835 8.16201 10.8308C8.02864 10.8265 7.89577 10.849 7.77122 10.8968C7.64667 10.9447 7.53296 11.017 7.43679 11.1095C7.34062 11.202 7.26393 11.3128 7.21125 11.4354C7.15856 11.558 7.13095 11.6899 7.13003 11.8234C7.12911 11.9568 7.1549 12.0891 7.20589 12.2124C7.25688 12.3357 7.33203 12.4476 7.42692 12.5414L9.73291 14.9414C9.90489 15.1271 10.1128 15.2761 10.3439 15.3792C10.5751 15.4823 10.8248 15.5375 11.0779 15.5414H11.1109C11.359 15.5422 11.6047 15.4937 11.8339 15.3988C12.0631 15.3039 12.2711 15.1644 12.4459 14.9884L16.7179 10.7164C16.8112 10.6233 16.8853 10.5127 16.9358 10.391C16.9864 10.2692 17.0125 10.1387 17.0127 10.0069C17.0128 9.87511 16.987 9.74456 16.9367 9.62273C16.8863 9.50089 16.8125 9.39017 16.7194 9.29686C16.6263 9.20356 16.5157 9.1295 16.394 9.07893C16.2723 9.02836 16.1418 9.00226 16.01 9.00212C15.8782 9.00198 15.7476 9.02781 15.6258 9.07812C15.5039 9.12843 15.3932 9.20225 15.2999 9.29536Z" fill="#E22D3A"/>
</g>
<defs>
<clipPath id="clip0_148_347">
<rect width="100%" height="100%" fill="white" transform="translate(0 0.995026)"/>
</clipPath>
</defs>
</svg>
