<svg width="22" height="23" viewBox="0 0 22 23" fill="none" xmlns="http://www.w3.org/2000/svg">
<g clip-path="url(#clip0_148_377)">
<path d="M21.0832 18.4111H19.2499V16.5778C19.2499 16.3347 19.1533 16.1015 18.9814 15.9296C18.8095 15.7577 18.5763 15.6611 18.3332 15.6611C18.0901 15.6611 17.8569 15.7577 17.685 15.9296C17.5131 16.1015 17.4165 16.3347 17.4165 16.5778V18.4111H15.5832C15.3401 18.4111 15.1069 18.5077 14.935 18.6796C14.7631 18.8515 14.6665 19.0847 14.6665 19.3278C14.6665 19.5709 14.7631 19.8041 14.935 19.976C15.1069 20.1479 15.3401 20.2445 15.5832 20.2445H17.4165V22.0778C17.4165 22.3209 17.5131 22.5541 17.685 22.726C17.8569 22.8979 18.0901 22.9945 18.3332 22.9945C18.5763 22.9945 18.8095 22.8979 18.9814 22.726C19.1533 22.5541 19.2499 22.3209 19.2499 22.0778V20.2445H21.0832C21.3263 20.2445 21.5595 20.1479 21.7314 19.976C21.9033 19.8041 21.9999 19.5709 21.9999 19.3278C21.9999 19.0847 21.9033 18.8515 21.7314 18.6796C21.5595 18.5077 21.3263 18.4111 21.0832 18.4111Z" fill="white"/>
<path d="M19.25 6.49503H16.5C16.5 5.03633 15.9205 3.63739 14.8891 2.60594C13.8576 1.57449 12.4587 0.995026 11 0.995026C9.54131 0.995026 8.14236 1.57449 7.11091 2.60594C6.07946 3.63739 5.5 5.03633 5.5 6.49503H2.75C2.02065 6.49503 1.32118 6.78476 0.805456 7.30048C0.289731 7.81621 0 8.51568 0 9.24503L0 18.4117C0.00145554 19.6268 0.484808 20.7918 1.34403 21.651C2.20326 22.5102 3.3682 22.9936 4.58333 22.995H12.8333C13.0764 22.995 13.3096 22.8984 13.4815 22.7265C13.6534 22.5546 13.75 22.3215 13.75 22.0784C13.75 21.8352 13.6534 21.6021 13.4815 21.4302C13.3096 21.2583 13.0764 21.1617 12.8333 21.1617H4.58333C3.85399 21.1617 3.15451 20.872 2.63879 20.3562C2.12306 19.8405 1.83333 19.141 1.83333 18.4117V9.24503C1.83333 9.00191 1.92991 8.76875 2.10182 8.59684C2.27373 8.42494 2.50688 8.32836 2.75 8.32836H5.5V10.1617C5.5 10.4048 5.59658 10.638 5.76849 10.8099C5.94039 10.9818 6.17355 11.0784 6.41667 11.0784C6.65978 11.0784 6.89294 10.9818 7.06485 10.8099C7.23676 10.638 7.33333 10.4048 7.33333 10.1617V8.32836H14.6667V10.1617C14.6667 10.4048 14.7632 10.638 14.9352 10.8099C15.1071 10.9818 15.3402 11.0784 15.5833 11.0784C15.8264 11.0784 16.0596 10.9818 16.2315 10.8099C16.4034 10.638 16.5 10.4048 16.5 10.1617V8.32836H19.25C19.4931 8.32836 19.7263 8.42494 19.8982 8.59684C20.0701 8.76875 20.1667 9.00191 20.1667 9.24503V13.8284C20.1667 14.0715 20.2632 14.3046 20.4352 14.4765C20.6071 14.6484 20.8402 14.745 21.0833 14.745C21.3264 14.745 21.5596 14.6484 21.7315 14.4765C21.9034 14.3046 22 14.0715 22 13.8284V9.24503C22 8.51568 21.7103 7.81621 21.1945 7.30048C20.6788 6.78476 19.9793 6.49503 19.25 6.49503ZM7.33333 6.49503C7.33333 5.52257 7.71964 4.58993 8.40728 3.9023C9.09491 3.21467 10.0275 2.82836 11 2.82836C11.9725 2.82836 12.9051 3.21467 13.5927 3.9023C14.2804 4.58993 14.6667 5.52257 14.6667 6.49503H7.33333Z" fill="white"/>
</g>
<defs>
<clipPath id="clip0_148_377">
<rect width="22" height="22" fill="white" transform="translate(0 0.995026)"/>
</clipPath>
</defs>
</svg>
