<svg width="17" height="17" viewBox="0 0 17 17" fill="none" xmlns="http://www.w3.org/2000/svg">
<path d="M13.0943 15.2291V16.9999H11.6776V15.2291C11.6776 14.2523 10.8835 13.4583 9.90675 13.4583H3.53175C2.55567 13.4583 1.76092 14.2523 1.76092 15.2291V16.9999H0.34425V15.2291C0.34425 13.4717 1.77438 12.0416 3.53175 12.0416H9.90675C11.6641 12.0416 13.0943 13.4717 13.0943 15.2291ZM7.30292 4.31723C8.19188 4.52194 8.9165 5.24089 9.12688 6.12844C9.26925 6.72839 9.19133 7.30356 8.95829 7.7916H9.88338C10.2382 7.7916 10.5485 7.53094 10.5896 7.17819C10.6378 6.76239 10.62 6.32677 10.5251 5.88123C10.2106 4.4086 9.01567 3.22073 7.54092 2.91756C5.03554 2.4026 2.82413 4.31298 2.82413 6.7291C2.82413 7.76964 3.23425 8.71598 3.90079 9.4151C3.92913 8.81444 4.14588 8.26264 4.49296 7.8171C4.33146 7.48844 4.24079 7.11869 4.24079 6.72839C4.24079 5.17077 5.68438 3.94394 7.30363 4.31652L7.30292 4.31723ZM3.08621 2.8531C4.16925 1.83806 5.58733 1.33656 7.07413 1.42864C9.85363 1.60856 12.0318 4.02752 12.0318 6.93523C12.0318 8.18898 11.0125 9.20827 9.75871 9.20827H8.06083C7.88871 8.61965 7.34542 8.18898 6.70083 8.18898C5.91813 8.18898 5.28417 8.82294 5.28417 9.60564C5.28417 10.3884 5.91813 11.0223 6.70083 11.0223C7.08263 11.0223 7.42971 10.8707 7.684 10.6249H9.758C11.7923 10.6249 13.4477 8.96956 13.4477 6.93523C13.4484 3.28235 10.6888 0.242186 7.1655 0.014811C5.2785 -0.107731 3.48854 0.533311 2.11792 1.81964C0.852125 3.0061 0.091375 4.65014 0 6.37564H1.41879C1.50592 5.02769 2.09029 3.78739 3.08692 2.8531H3.08621Z" fill="white"/>
</svg>
