<svg width="21" height="24" viewBox="0 0 21 24" fill="none" xmlns="http://www.w3.org/2000/svg">
<path d="M9.43882 11.1724L9.39688 13.7014C9.37379 15.0944 9.16969 16.3284 8.78459 17.4033C8.40548 18.4688 7.88041 19.3716 7.20938 20.1114C6.54423 20.8484 5.77681 21.4243 4.90713 21.8392C4.03746 22.254 3.27412 22.4082 2.61712 22.3018C1.96013 22.1954 1.45099 21.786 1.0897 21.0735C0.734393 20.3518 0.56829 19.2944 0.591389 17.9014L0.633325 15.3724C0.656532 13.9729 0.860577 12.7422 1.24546 11.6803C1.63045 10.6119 2.15552 9.70921 2.82067 8.97218C3.4917 8.23235 4.26205 7.65502 5.13173 7.2402C6.00141 6.82539 6.76474 6.67118 7.42174 6.77758C8.07873 6.88399 8.58494 7.2948 8.94035 8.01003C9.29587 8.71875 9.46203 9.77288 9.43882 11.1724ZM6.64051 15.3939L6.69539 12.0838C6.70878 11.2766 6.65183 10.6677 6.52456 10.2569C6.40327 9.83689 6.22096 9.58158 5.97761 9.49099C5.73426 9.40041 5.43924 9.43779 5.09254 9.60316C4.74585 9.76853 4.44737 10.0142 4.19712 10.3402C3.95274 10.6635 3.75898 11.0982 3.61584 11.6443C3.47868 12.1812 3.40341 12.8532 3.39003 13.6604L3.33514 16.9705C3.32165 17.7842 3.37554 18.401 3.49683 18.8211C3.624 19.2383 3.80925 19.4922 4.0526 19.5828C4.30182 19.6706 4.59978 19.6318 4.94648 19.4664C5.2873 19.3039 5.5799 19.061 5.82428 18.7378C6.07453 18.4117 6.26829 17.9771 6.40556 17.4337C6.5487 16.8875 6.62701 16.2076 6.64051 15.3939ZM20.0993 9.01312L20.0601 11.3761L10.8227 15.7821L10.7036 13.9984L16.1111 2.19704L18.2883 1.1586L15.8541 6.62067L13.3916 12.2125L20.0993 9.01312ZM18.87 0.881126L18.6343 15.0979L15.8842 16.4096L16.1199 2.19284L18.87 0.881126Z" fill="#E22D3A"/>
</svg>
