<svg width="20" height="24" viewBox="0 0 20 24" fill="none" xmlns="http://www.w3.org/2000/svg">
<path d="M9.43882 11.1724L9.39688 13.7014C9.37379 15.0944 9.16969 16.3284 8.78459 17.4033C8.40548 18.4688 7.88041 19.3716 7.20938 20.1114C6.54423 20.8484 5.77681 21.4243 4.90713 21.8392C4.03746 22.254 3.27412 22.4082 2.61712 22.3018C1.96013 22.1954 1.45099 21.786 1.0897 21.0735C0.734393 20.3518 0.56829 19.2944 0.591389 17.9014L0.633325 15.3724C0.656532 13.9729 0.860577 12.7422 1.24546 11.6803C1.63045 10.6119 2.15552 9.70921 2.82067 8.97218C3.4917 8.23235 4.26205 7.65502 5.13173 7.2402C6.00141 6.82539 6.76474 6.67118 7.42174 6.77758C8.07873 6.88399 8.58494 7.2948 8.94035 8.01003C9.29587 8.71875 9.46203 9.77288 9.43882 11.1724ZM6.64051 15.3939L6.69539 12.0838C6.70878 11.2766 6.65183 10.6677 6.52456 10.2569C6.40327 9.83689 6.22096 9.58158 5.97761 9.49099C5.73426 9.40041 5.43924 9.43779 5.09254 9.60316C4.74585 9.76853 4.44737 10.0142 4.19712 10.3402C3.95274 10.6635 3.75898 11.0982 3.61584 11.6443C3.47868 12.1812 3.40341 12.8532 3.39003 13.6604L3.33514 16.9705C3.32165 17.7842 3.37554 18.401 3.49683 18.8211C3.624 19.2383 3.80925 19.4922 4.0526 19.5828C4.30182 19.6706 4.59978 19.6318 4.94648 19.4664C5.2873 19.3039 5.5799 19.061 5.82428 18.7378C6.07453 18.4117 6.26829 17.9771 6.40556 17.4337C6.5487 16.8875 6.62701 16.2076 6.64051 15.3939ZM13.7407 9.09148L15.1422 8.42301C15.5417 8.23242 15.8721 7.99735 16.1333 7.71779C16.4003 7.43544 16.5979 7.12162 16.726 6.77635C16.86 6.42826 16.9302 6.06219 16.9366 5.67813C16.9421 5.34615 16.8883 5.07799 16.775 4.87367C16.6618 4.66934 16.486 4.54978 16.2476 4.51497C16.0151 4.47086 15.7108 4.53849 15.3348 4.71787C15.0645 4.8468 14.8049 5.03196 14.556 5.27336C14.3132 5.50545 14.1135 5.77184 13.9569 6.07255C13.8004 6.36675 13.7196 6.67007 13.7144 6.98253L10.9556 8.29845C10.9687 7.50429 11.174 6.72504 11.5715 5.96071C11.9748 5.19357 12.5022 4.49962 13.1538 3.87885C13.8113 3.24878 14.525 2.75015 15.2948 2.38299C16.1821 1.95976 16.9581 1.74462 17.6228 1.73756C18.2935 1.72118 18.8089 1.9274 19.1691 2.35621C19.5352 2.7757 19.711 3.4281 19.6963 4.31339C19.6886 4.77557 19.5813 5.26912 19.3744 5.79404C19.1735 6.30965 18.8881 6.82034 18.5183 7.3261C18.1544 7.82255 17.7212 8.28753 17.2184 8.72106C16.7217 9.14527 16.1707 9.50172 15.5655 9.79041L13.7145 10.6733L13.7407 9.09148ZM13.7026 11.3861L13.7284 9.83356L15.5794 8.95068C16.2493 8.63116 16.8472 8.4299 17.3733 8.34689C17.8994 8.26389 18.3448 8.29358 18.7097 8.43597C19.0747 8.57836 19.3503 8.83114 19.5367 9.19431C19.723 9.55749 19.8115 10.019 19.8023 10.5788C19.7876 11.4641 19.5694 12.3173 19.1477 13.1384C18.726 13.9595 18.1598 14.7042 17.4492 15.3726C16.7386 16.0344 15.9397 16.5769 15.0524 17.0001C14.5177 17.2552 13.9872 17.4275 13.4611 17.517C12.9349 17.6065 12.4601 17.5876 12.0366 17.4602C11.6133 17.3263 11.2766 17.0639 11.0266 16.6729C10.7767 16.2755 10.6576 15.7188 10.6695 15.0027L13.4284 13.6868C13.4229 14.0188 13.4943 14.2818 13.6427 14.4758C13.797 14.6605 14.008 14.7665 14.2757 14.7938C14.5494 14.8118 14.8479 14.7437 15.1711 14.5896C15.7528 14.3121 16.2053 13.9219 16.5284 13.419C16.8574 12.9134 17.0264 12.3904 17.0354 11.8501C17.0436 11.3554 16.9708 10.9961 16.8171 10.7724C16.6694 10.5393 16.4498 10.4245 16.1583 10.4279C15.8668 10.4249 15.5154 10.5214 15.1041 10.7176L13.7026 11.3861Z" fill="#6479BF"/>
</svg>
