<svg width="18" height="23" viewBox="0 0 18 23" fill="none" xmlns="http://www.w3.org/2000/svg">
<path d="M9.43882 10.1724L9.39688 12.7014C9.37379 14.0944 9.16969 15.3284 8.78459 16.4033C8.40548 17.4688 7.88041 18.3716 7.20938 19.1114C6.54423 19.8484 5.77681 20.4243 4.90713 20.8392C4.03746 21.254 3.27412 21.4082 2.61712 21.3018C1.96013 21.1954 1.45099 20.786 1.0897 20.0735C0.734393 19.3518 0.56829 18.2944 0.591389 16.9014L0.633325 14.3724C0.656532 12.9729 0.860577 11.7422 1.24546 10.6803C1.63045 9.61192 2.15552 8.70921 2.82067 7.97218C3.4917 7.23235 4.26205 6.65502 5.13173 6.2402C6.00141 5.82539 6.76474 5.67118 7.42174 5.77758C8.07873 5.88399 8.58494 6.2948 8.94035 7.01003C9.29587 7.71875 9.46203 8.77288 9.43882 10.1724ZM6.64051 14.3939L6.69539 11.0838C6.70878 10.2766 6.65183 9.66767 6.52456 9.25694C6.40327 8.83689 6.22096 8.58158 5.97761 8.49099C5.73426 8.40041 5.43924 8.43779 5.09254 8.60316C4.74585 8.76853 4.44737 9.01422 4.19712 9.34024C3.95274 9.66346 3.75898 10.0982 3.61584 10.6443C3.47868 11.1812 3.40341 11.8532 3.39003 12.6604L3.33514 15.9705C3.32165 16.7842 3.37554 17.401 3.49683 17.8211C3.624 18.2383 3.80925 18.4922 4.0526 18.5828C4.30182 18.6706 4.59978 18.6318 4.94648 18.4664C5.2873 18.3039 5.5799 18.061 5.82428 17.7378C6.07453 17.4117 6.26829 16.9771 6.40556 16.4337C6.5487 15.8875 6.62701 15.2076 6.64051 14.3939ZM17.5656 0.493585L17.3297 14.7201L14.5709 16.0361L14.7491 5.28559L11.7532 7.71233L11.7924 5.34938L17.2924 0.623916L17.5656 0.493585Z" fill="#6479BF"/>
</svg>
