<svg width="21" height="24" viewBox="0 0 21 24" fill="none" xmlns="http://www.w3.org/2000/svg">
<path d="M9.43882 11.1724L9.39688 13.7014C9.37379 15.0944 9.16969 16.3284 8.78459 17.4033C8.40548 18.4688 7.88041 19.3716 7.20938 20.1114C6.54423 20.8484 5.77681 21.4243 4.90713 21.8392C4.03746 22.254 3.27412 22.4082 2.61712 22.3018C1.96013 22.1954 1.45099 21.786 1.0897 21.0735C0.734393 20.3518 0.56829 19.2944 0.591389 17.9014L0.633325 15.3724C0.656532 13.9729 0.860577 12.7422 1.24546 11.6803C1.63045 10.6119 2.15552 9.70921 2.82067 8.97218C3.4917 8.23235 4.26205 7.65502 5.13173 7.2402C6.00141 6.82539 6.76474 6.67118 7.42174 6.77758C8.07873 6.88399 8.58494 7.2948 8.94035 8.01003C9.29587 8.71875 9.46203 9.77288 9.43882 11.1724ZM6.64051 15.3939L6.69539 12.0838C6.70878 11.2766 6.65183 10.6677 6.52456 10.2569C6.40327 9.83689 6.22096 9.58158 5.97761 9.49099C5.73426 9.40041 5.43924 9.43779 5.09254 9.60316C4.74585 9.76853 4.44737 10.0142 4.19712 10.3402C3.95274 10.6635 3.75898 11.0982 3.61584 11.6443C3.47868 12.1812 3.40341 12.8532 3.39003 13.6604L3.33514 16.9705C3.32165 17.7842 3.37554 18.401 3.49683 18.8211C3.624 19.2383 3.80925 19.4922 4.0526 19.5828C4.30182 19.6706 4.59978 19.6318 4.94648 19.4664C5.2873 19.3039 5.5799 19.061 5.82428 18.7378C6.07453 18.4117 6.26829 17.9771 6.40556 17.4337C6.5487 16.8875 6.62701 16.2076 6.64051 15.3939ZM19.8547 12.1618L19.8154 14.5346L10.9482 18.764L10.9815 16.7526L15.2049 9.91396C15.6009 9.23425 15.9167 8.65097 16.1521 8.1641C16.3934 7.67444 16.5695 7.25141 16.6803 6.89501C16.7913 6.5321 16.8489 6.22046 16.8532 5.96008C16.8637 5.32865 16.7366 4.9049 16.4721 4.68883C16.2133 4.46995 15.8372 4.47823 15.3436 4.71366C14.991 4.88183 14.6867 5.12707 14.4307 5.44939C14.1747 5.77171 13.9761 6.14411 13.835 6.5666C13.694 6.98258 13.6198 7.41514 13.6124 7.8643L10.8447 9.18442C10.859 8.31866 11.0601 7.44131 11.448 6.5524C11.8359 5.65697 12.3713 4.83654 13.0541 4.09109C13.737 3.33914 14.5309 2.74735 15.4358 2.31572C16.8285 1.65145 17.8773 1.50963 18.5822 1.89024C19.2931 2.26154 19.638 3.08513 19.6168 4.36099C19.6062 4.99893 19.4756 5.67154 19.2248 6.37882C18.9741 7.0861 18.6204 7.84568 18.1639 8.65757C17.7133 9.46666 17.1768 10.3522 16.5546 11.3142L14.5749 14.6802L19.8547 12.1618Z" fill="#E22D3A"/>
</svg>
