<svg width="20" height="24" viewBox="0 0 20 24" fill="none" xmlns="http://www.w3.org/2000/svg">
<path d="M9.43882 11.1724L9.39688 13.7014C9.37379 15.0944 9.16969 16.3284 8.78459 17.4033C8.40548 18.4688 7.88041 19.3716 7.20938 20.1114C6.54423 20.8484 5.77681 21.4243 4.90713 21.8392C4.03746 22.254 3.27412 22.4082 2.61712 22.3018C1.96013 22.1954 1.45099 21.786 1.0897 21.0735C0.734393 20.3518 0.56829 19.2944 0.591389 17.9014L0.633325 15.3724C0.656532 13.9729 0.860577 12.7422 1.24546 11.6803C1.63045 10.6119 2.15552 9.70921 2.82067 8.97218C3.4917 8.23235 4.26205 7.65502 5.13173 7.2402C6.00141 6.82539 6.76474 6.67118 7.42174 6.77758C8.07873 6.88399 8.58494 7.2948 8.94035 8.01003C9.29587 8.71875 9.46203 9.77288 9.43882 11.1724ZM6.64051 15.3939L6.69539 12.0838C6.70878 11.2766 6.65183 10.6677 6.52456 10.2569C6.40327 9.83689 6.22096 9.58158 5.97761 9.49099C5.73426 9.40041 5.43924 9.43779 5.09254 9.60316C4.74585 9.76853 4.44737 10.0142 4.19712 10.3402C3.95274 10.6635 3.75898 11.0982 3.61584 11.6443C3.47868 12.1812 3.40341 12.8532 3.39003 13.6604L3.33514 16.9705C3.32165 17.7842 3.37554 18.401 3.49683 18.8211C3.624 19.2383 3.80925 19.4922 4.0526 19.5828C4.30182 19.6706 4.59978 19.6318 4.94648 19.4664C5.2873 19.3039 5.5799 19.061 5.82428 18.7378C6.07453 18.4117 6.26829 17.9771 6.40556 17.4337C6.5487 16.8875 6.62701 16.2076 6.64051 15.3939ZM13.5136 11.1856L11.3372 11.6522L12.2064 4.05951L19.5575 0.553198L19.5175 2.96498L14.4229 5.39501L14.0646 8.53979C14.225 8.35996 14.4767 8.12693 14.8195 7.84068C15.1625 7.54793 15.5455 7.30065 15.9686 7.09885C16.803 6.70085 17.5109 6.55049 18.0923 6.64776C18.6738 6.73852 19.1113 7.06905 19.405 7.63936C19.7047 8.20034 19.8462 8.98533 19.8294 9.9943C19.8157 10.821 19.6442 11.6746 19.3148 12.555C18.9914 13.4261 18.4998 14.2418 17.8401 15.0021C17.1863 15.7595 16.3599 16.3765 15.3609 16.853C14.7968 17.122 14.2519 17.2883 13.7261 17.3518C13.2004 17.4153 12.729 17.3689 12.3118 17.2127C11.9007 17.0471 11.576 16.7628 11.3378 16.3598C11.1055 15.954 10.9919 15.427 10.9968 14.7788L13.7468 13.4671C13.7787 14.0073 13.9388 14.3701 14.2272 14.5554C14.5215 14.7379 14.9066 14.7157 15.3826 14.4887C15.794 14.2925 16.122 14.023 16.3667 13.6802C16.6114 13.3375 16.7869 12.947 16.8933 12.5088C17.0056 12.0613 17.0658 11.5999 17.0736 11.1247C17.0817 10.6365 17.0212 10.2456 16.892 9.95204C16.7629 9.65197 16.556 9.46971 16.2714 9.40525C15.9927 9.33799 15.6242 9.41367 15.1658 9.63229C14.7192 9.8453 14.3683 10.0934 14.1129 10.3767C13.8575 10.66 13.6577 10.9296 13.5136 11.1856Z" fill="#6479BF"/>
</svg>
