<svg width="19" height="20" viewBox="0 0 19 20" fill="none" xmlns="http://www.w3.org/2000/svg">
<path d="M9.44185 0.906982C7.59283 0.906982 5.78533 1.45528 4.24792 2.48255C2.71051 3.50981 1.51225 4.9699 0.804654 6.67818C0.0970626 8.38645 -0.0880756 10.2662 0.272651 12.0797C0.633378 13.8932 1.52377 15.559 2.83123 16.8664C4.13869 18.1739 5.80449 19.0643 7.61799 19.425C9.43148 19.7857 11.3112 19.6006 13.0195 18.893C14.7278 18.1854 16.1879 16.9872 17.2151 15.4498C18.2424 13.9123 18.7907 12.1048 18.7907 10.2558C18.788 7.77718 17.8022 5.40082 16.0495 3.64815C14.2969 1.89549 11.9205 0.909663 9.44185 0.906982V0.906982ZM9.44185 18.0465C7.901 18.0465 6.39475 17.5896 5.11357 16.7335C3.8324 15.8775 2.83385 14.6608 2.24419 13.2372C1.65453 11.8136 1.50025 10.2472 1.80085 8.73593C2.10146 7.22468 2.84345 5.83651 3.933 4.74696C5.02255 3.65742 6.41072 2.91542 7.92196 2.61482C9.43321 2.31421 10.9997 2.46849 12.4232 3.05815C13.8468 3.64781 15.0635 4.64637 15.9196 5.92754C16.7756 7.20871 17.2326 8.71497 17.2326 10.2558C17.2303 12.3213 16.4088 14.3016 14.9482 15.7622C13.4877 17.2227 11.5074 18.0443 9.44185 18.0465V18.0465Z" fill="white"/>
</svg>
