<svg width="22" height="23" viewBox="0 0 22 23" fill="currentColor" xmlns="http://www.w3.org/2000/svg">
<g clip-path="url(#clip0_148_387)">
<path d="M13.3835 20.5203C13.1085 20.7274 12.8161 20.9456 12.5676 21.1619H14.6668C14.9099 21.1619 15.1431 21.2585 15.315 21.4304C15.4869 21.6023 15.5835 21.8355 15.5835 22.0786C15.5835 22.3217 15.4869 22.5549 15.315 22.7268C15.1431 22.8987 14.9099 22.9953 14.6668 22.9953H11.0001C10.757 22.9953 10.5239 22.8987 10.352 22.7268C10.1801 22.5549 10.0835 22.3217 10.0835 22.0786C10.0835 20.7036 11.2522 19.8273 12.2835 19.0536C12.971 18.5384 13.7501 17.9536 13.7501 17.4953C13.7501 17.2521 13.6536 17.019 13.4817 16.8471C13.3098 16.6752 13.0766 16.5786 12.8335 16.5786C12.5904 16.5786 12.3572 16.6752 12.1853 16.8471C12.0134 17.019 11.9168 17.2521 11.9168 17.4953C11.9168 17.7384 11.8202 17.9715 11.6483 18.1434C11.4764 18.3153 11.2433 18.4119 11.0001 18.4119C10.757 18.4119 10.5239 18.3153 10.352 18.1434C10.1801 17.9715 10.0835 17.7384 10.0835 17.4953C10.0835 16.7659 10.3732 16.0664 10.8889 15.5507C11.4047 15.035 12.1041 14.7452 12.8335 14.7452C13.5628 14.7452 14.2623 15.035 14.778 15.5507C15.2937 16.0664 15.5835 16.7659 15.5835 17.4953C15.5835 18.8703 14.4147 19.7466 13.3835 20.5203ZM21.0835 14.7452C20.8404 14.7452 20.6072 14.8418 20.4353 15.0137C20.2634 15.1856 20.1668 15.4188 20.1668 15.6619V18.4119H19.2501C19.007 18.4119 18.7739 18.3153 18.602 18.1434C18.4301 17.9715 18.3335 17.7384 18.3335 17.4953V15.6619C18.3335 15.4188 18.2369 15.1856 18.065 15.0137C17.8931 14.8418 17.6599 14.7452 17.4168 14.7452C17.1737 14.7452 16.9405 14.8418 16.7686 15.0137C16.5967 15.1856 16.5001 15.4188 16.5001 15.6619V17.4953C16.5001 18.2246 16.7899 18.9241 17.3056 19.4398C17.8213 19.9555 18.5208 20.2453 19.2501 20.2453H20.1668V22.0786C20.1668 22.3217 20.2634 22.5549 20.4353 22.7268C20.6072 22.8987 20.8404 22.9953 21.0835 22.9953C21.3266 22.9953 21.5598 22.8987 21.7317 22.7268C21.9036 22.5549 22.0001 22.3217 22.0001 22.0786V15.6619C22.0001 15.4188 21.9036 15.1856 21.7317 15.0137C21.5598 14.8418 21.3266 14.7452 21.0835 14.7452ZM11.9168 11.9953V7.41192C11.9168 7.1688 11.8202 6.93564 11.6483 6.76374C11.4764 6.59183 11.2433 6.49525 11.0001 6.49525C10.757 6.49525 10.5239 6.59183 10.352 6.76374C10.1801 6.93564 10.0835 7.1688 10.0835 7.41192V11.0786H7.33348C7.09036 11.0786 6.8572 11.1752 6.6853 11.3471C6.51339 11.519 6.41681 11.7521 6.41681 11.9953C6.41681 12.2384 6.51339 12.4715 6.6853 12.6434C6.8572 12.8153 7.09036 12.9119 7.33348 12.9119H11.0001C11.2433 12.9119 11.4764 12.8153 11.6483 12.6434C11.8202 12.4715 11.9168 12.2384 11.9168 11.9953ZM21.0835 2.82858C20.8404 2.82858 20.6072 2.92516 20.4353 3.09707C20.2634 3.26898 20.1668 3.50214 20.1668 3.74525V5.92142C19.2117 4.48003 17.9303 3.2841 16.4264 2.43066C14.9226 1.57723 13.2388 1.09033 11.5116 1.00948C9.78434 0.928624 8.06238 1.25609 6.48541 1.96531C4.90843 2.67453 3.52087 3.74551 2.43529 5.09138C1.34971 6.43724 0.596697 8.02007 0.237353 9.71143C-0.12199 11.4028 -0.0775441 13.155 0.367085 14.826C0.811713 16.497 1.644 18.0396 2.79642 19.3287C3.94883 20.6178 5.38891 21.6171 6.99981 22.2454C7.10627 22.2865 7.21937 22.3076 7.33348 22.3078C7.54739 22.3081 7.75468 22.2336 7.91946 22.0972C8.08423 21.9608 8.19611 21.771 8.23571 21.5608C8.27532 21.3506 8.24016 21.1331 8.13632 20.9461C8.03249 20.7591 7.86651 20.6143 7.66714 20.5368C6.2995 20.0079 5.07868 19.1587 4.10716 18.0604C3.13565 16.9621 2.44179 15.6467 2.08383 14.2248C1.72587 12.8028 1.71426 11.3157 2.04997 9.88833C2.38568 8.46094 3.05892 7.13493 4.01317 6.02158C4.96742 4.90824 6.17483 4.04007 7.53405 3.48994C8.89327 2.9398 10.3646 2.72377 11.8246 2.85998C13.2846 2.99618 14.6906 3.48064 15.9246 4.27269C17.1586 5.06475 18.1846 6.14128 18.9165 7.41192H16.5001C16.257 7.41192 16.0239 7.50849 15.852 7.6804C15.6801 7.85231 15.5835 8.08547 15.5835 8.32858C15.5835 8.5717 15.6801 8.80486 15.852 8.97676C16.0239 9.14867 16.257 9.24525 16.5001 9.24525H19.2501C19.9795 9.24525 20.679 8.95552 21.1947 8.43979C21.7104 7.92407 22.0001 7.2246 22.0001 6.49525V3.74525C22.0001 3.50214 21.9036 3.26898 21.7317 3.09707C21.5598 2.92516 21.3266 2.82858 21.0835 2.82858Z"/>
</g>
<defs>
<clipPath id="clip0_148_387">
<rect width="22" height="22" fill="white" transform="translate(0 0.995026)"/>
</clipPath>
</defs>
</svg>
