<svg width="20" height="20" viewBox="0 0 20 20" fill="currentColor" xmlns="http://www.w3.org/2000/svg">
<g clip-path="url(#clip0_240_914)">
<path d="M19.7643 7.9575C18.9735 6.20978 17.7271 4.70693 16.1558 3.60644C14.5846 2.50595 12.7462 1.84833 10.8335 1.7025V0.833333C10.8335 0.61232 10.7457 0.400358 10.5894 0.244078C10.4331 0.0877974 10.2212 0 10.0001 0C9.77912 0 9.56716 0.0877974 9.41088 0.244078C9.2546 0.400358 9.16681 0.61232 9.16681 0.833333V1.7025C7.25192 1.8468 5.41113 2.50366 3.83746 3.60419C2.26379 4.70471 1.01521 6.20837 0.222638 7.9575C0.0234272 8.45749 -0.0499779 8.99875 0.00886819 9.53374C0.0677143 10.0687 0.257012 10.5811 0.560138 11.0258C0.866472 11.4797 1.27954 11.8515 1.76308 12.1086C2.24662 12.3656 2.78586 12.5 3.33347 12.5H9.16681V17.5C9.16681 17.721 9.07901 17.933 8.92273 18.0893C8.76645 18.2455 8.55449 18.3333 8.33347 18.3333C8.11246 18.3333 7.9005 18.2455 7.74422 18.0893C7.58794 17.933 7.50014 17.721 7.50014 17.5C7.50014 17.279 7.41234 17.067 7.25606 16.9107C7.09978 16.7545 6.88782 16.6667 6.6668 16.6667C6.44579 16.6667 6.23383 16.7545 6.07755 16.9107C5.92127 17.067 5.83347 17.279 5.83347 17.5C5.83347 18.163 6.09686 18.7989 6.5657 19.2678C7.03455 19.7366 7.67043 20 8.33347 20C8.99651 20 9.6324 19.7366 10.1012 19.2678C10.5701 18.7989 10.8335 18.163 10.8335 17.5V12.5H16.6526C17.2004 12.5 17.7397 12.3656 18.2234 12.1086C18.7071 11.8515 19.1203 11.4798 19.4268 11.0258C19.7297 10.581 19.9189 10.0687 19.9777 9.53371C20.0366 8.99875 19.9633 8.45754 19.7643 7.9575ZM18.0468 10.0917C17.8942 10.3213 17.6869 10.5093 17.4435 10.6388C17.2001 10.7683 16.9283 10.8351 16.6526 10.8333H3.33347C3.0577 10.8351 2.78583 10.7682 2.54241 10.6385C2.299 10.5089 2.09172 10.3207 1.9393 10.0908C1.7882 9.87187 1.69387 9.6188 1.66478 9.35437C1.63569 9.08993 1.67275 8.8224 1.77264 8.57583C2.9843 5.53833 6.44514 3.33333 10.0001 3.33333C11.7282 3.32702 13.4216 3.81791 14.8783 4.74746C16.3351 5.67701 17.4937 7.00597 18.216 8.57583C18.3159 8.82266 18.3528 9.09051 18.3233 9.35517C18.2938 9.61983 18.1987 9.87295 18.0468 10.0917Z"/>
</g>
<defs>
<clipPath id="clip0_240_914">
<rect width="20" height="20" fill="white"/>
</clipPath>
</defs>
</svg>
