<svg width="15" height="17" viewBox="0 0 15 17" fill="none" xmlns="http://www.w3.org/2000/svg">
<path d="M12.1615 1.51582L7.72382 0.0361125C7.57853 -0.0122816 7.42146 -0.0122816 7.27616 0.0361125L2.83845 1.51582C2.13288 1.7502 1.51912 2.20096 1.08436 2.80407C0.649609 3.40719 0.415975 4.13197 0.416658 4.87545V8.49999C0.416658 13.8571 6.93332 16.8158 7.21241 16.9391C7.30295 16.9793 7.40092 17.0001 7.49999 17.0001C7.59906 17.0001 7.69703 16.9793 7.78757 16.9391C8.06666 16.8158 14.5833 13.8571 14.5833 8.49999V4.87545C14.584 4.13197 14.3504 3.40719 13.9156 2.80407C13.4809 2.20096 12.8671 1.7502 12.1615 1.51582ZM13.1667 8.49999C13.1667 12.3639 8.6907 14.8984 7.49999 15.5047C6.30787 14.9005 1.83332 12.3739 1.83332 8.49999V4.87545C1.83337 4.42939 1.97377 3.99466 2.23464 3.63285C2.49551 3.27103 2.86363 3.00048 3.28682 2.85953L7.49999 1.4549L11.7132 2.85953C12.1364 3.00048 12.5045 3.27103 12.7653 3.63285C13.0262 3.99466 13.1666 4.42939 13.1667 4.87545V8.49999Z" fill="white"/>
</svg>
