<svg width="266" height="156" viewBox="0 0 266 156" fill="none" xmlns="http://www.w3.org/2000/svg">
<g filter="url(#filter0_d_274_205)">
<rect x="18" y="18" width="230" height="120" rx="15" fill="white"/>
</g>
<g clip-path="url(#clip0_274_205)">
<path d="M96.2855 62.5134C97.0216 62.1057 97.5616 61.585 98.1599 61.0992C100.562 59.1488 104.295 57.6685 108.409 57.8144C110.571 57.8909 112.732 58.4223 114.444 59.2987C112.629 59.0628 110.696 59.4819 109.612 60.3461C108.734 61.0455 108.422 61.965 107.668 62.7192C106.291 64.0952 103.357 64.7754 100.702 64.3351" fill="#81C241"/>
<path d="M142.195 89.9766V86.4888C142.638 86.3954 143.014 86.2446 143.324 86.0376C143.632 85.8305 143.939 85.5335 144.243 85.1454C144.721 84.5579 144.978 83.8391 145.013 82.9909C145.048 82.1422 145.077 81.4302 145.101 80.8553C145.182 79.9201 145.269 79.2522 145.363 78.8509C145.503 78.2498 145.742 77.6553 146.08 77.067C146.64 76.1049 147.254 75.397 147.918 74.9423C148.63 74.4479 149.465 74.2009 150.422 74.2009V77.7685C149.675 77.9558 149.062 78.3974 148.584 79.0919C148.327 79.4529 148.163 79.8205 148.094 80.1947C148.024 80.5687 147.989 81.0434 147.989 81.6174V82.0586V82.3996C147.989 83.6289 147.907 84.5914 147.744 85.2859C147.58 85.9808 147.23 86.709 146.693 87.4709C146.075 88.3533 145.416 88.9911 144.715 89.3851C144.015 89.7798 143.175 89.9766 142.195 89.9766Z" fill="#E97224"/>
<path d="M153.922 74.1206C153.362 74.1206 152.925 73.914 152.609 73.4992C152.294 73.086 152.137 72.5983 152.137 72.0382C152.137 71.4908 152.292 71.024 152.601 70.6368C152.91 70.2496 153.351 70.0562 153.922 70.0562C154.436 70.0562 154.85 70.2696 155.165 70.6965C155.446 71.0839 155.585 71.5509 155.585 72.0983C155.585 72.6318 155.436 73.1022 155.139 73.5093C154.841 73.9172 154.436 74.1206 153.922 74.1206ZM152.399 75.1017H155.375V89.8965H152.399V75.1017Z" fill="#E97224"/>
<path d="M167.016 89.1761C166.163 89.6435 165.218 89.8766 164.18 89.8766C162.51 89.8766 161.005 89.316 159.663 88.195C158.263 87.0207 157.469 85.5522 157.283 83.7904C157.224 83.217 157.195 82.723 157.195 82.3091C157.195 79.8401 157.854 77.8576 159.173 76.3628C160.445 74.9216 162.067 74.2004 164.04 74.2004C165.93 74.2004 167.567 74.9009 168.95 76.3029C170.333 77.7043 171.024 79.446 171.024 81.5278V89.3561C171.024 91.1041 170.378 92.559 169.088 93.7199C167.856 94.8281 166.391 95.3816 164.694 95.3816H164.432C163.897 95.3816 163.456 95.3586 163.107 95.3119C162.758 95.2648 162.357 95.155 161.904 94.9814V91.6381C162.347 91.7984 162.735 91.9051 163.068 91.9586C163.4 92.0112 163.812 92.0383 164.302 92.0383C164.722 92.0383 165.165 91.9816 165.633 91.8684C166.099 91.7545 166.426 91.6447 166.612 91.5381C167.079 91.2707 167.405 91.0238 167.593 90.7971C167.896 90.4233 168.048 89.9431 168.048 89.3558V81.7481C168.048 80.5467 167.622 79.5556 166.77 78.775C165.918 77.9941 164.926 77.6039 163.794 77.6039C162.791 77.6039 161.921 78.0444 161.186 78.9255C160.451 79.8059 160.083 80.8271 160.083 81.9882C160.083 82.1884 160.101 82.4021 160.136 82.6287C160.311 83.8572 160.807 84.8246 161.624 85.5319C162.371 86.1859 163.234 86.5132 164.215 86.5132C165.382 86.5132 166.315 86.0727 167.016 85.1916V89.1761Z" fill="#E97224"/>
<path d="M179.268 89.9368C177.121 89.9368 175.417 89.1284 174.157 87.511C173.025 86.0544 172.459 84.2637 172.459 82.1384C172.459 79.9873 173.036 78.1635 174.192 76.6662C175.487 74.9959 177.232 74.1609 179.426 74.1609C181.573 74.1609 183.277 74.9693 184.537 76.5864C185.669 78.0426 186.235 79.8338 186.235 81.9584C186.235 84.1095 185.657 85.9344 184.502 87.4309C183.207 89.1011 181.463 89.9368 179.268 89.9368ZM179.566 77.4238C178.294 77.4238 177.284 77.9057 176.538 78.8685C175.861 79.7382 175.523 80.8014 175.523 82.0587C175.523 83.2758 175.843 84.2991 176.485 85.1284C177.209 86.0517 178.189 86.5129 179.426 86.5129C180.698 86.5129 181.707 86.0312 182.454 85.068C183.131 84.1991 183.469 83.1355 183.469 81.8776C183.469 80.6613 183.148 79.6378 182.507 78.8079C181.783 77.8854 180.803 77.4238 179.566 77.4238Z" fill="#E97224"/>
<path d="M190.926 89.9366L187.653 89.9166V81.1876C187.653 79.8534 187.865 78.6988 188.291 77.7243C188.717 76.75 189.397 75.9024 190.331 75.1817C190.902 74.7412 191.439 74.4243 191.941 74.2305C192.443 74.0371 192.991 73.9407 193.586 73.9407C193.738 73.9407 193.919 73.9503 194.129 73.9705C194.339 73.9908 194.578 74.0277 194.846 74.0806V77.6243C194.555 77.5311 194.251 77.4842 193.936 77.4842C193.329 77.4842 192.746 77.7181 192.186 78.1849C191.778 78.5188 191.465 78.8994 191.25 79.3263C191.033 79.7534 190.926 80.2469 190.926 80.8079L190.926 89.9366Z" fill="#E97224"/>
<path d="M196.457 69.8965H199.398V73.9206H201.428V77.4441H199.398V84.1049C199.398 84.4661 199.453 84.7807 199.564 85.048C199.675 85.3157 199.853 85.5901 200.098 85.8709C200.565 86.4055 201.113 86.6733 201.744 86.6733H202.233V89.9364H201.962H201.761C201.235 89.9364 200.722 89.843 200.22 89.6556C199.602 89.4287 198.919 89.0206 198.172 88.4321C197.717 88.0704 197.326 87.5092 197 86.7471C196.638 85.9048 196.457 85.0485 196.457 84.1789V69.8965Z" fill="#E97224"/>
<path d="M214.504 85.4524V89.5765C213.418 90.177 212.344 90.4772 211.283 90.4772C209.649 90.4772 208.132 89.79 206.732 88.415C205.856 87.5612 205.226 86.6503 204.841 85.6822C204.456 84.7146 204.264 83.5573 204.264 82.2089C204.264 80.0064 204.955 78.128 206.338 76.5729C207.72 75.0184 209.375 74.2407 211.3 74.2407C213.272 74.2407 214.965 75.005 216.377 76.5328C217.788 78.0617 218.494 79.9336 218.494 82.1491V89.8966H215.413V82.0487C215.413 80.8077 215.002 79.7635 214.18 78.9159C213.357 78.0683 212.385 77.6444 211.265 77.6444C210.145 77.6444 209.193 78.0913 208.412 78.986C207.63 79.8799 207.239 80.9678 207.239 82.2492C207.239 83.5701 207.633 84.7013 208.421 85.6424C209.209 86.5834 210.174 87.0542 211.318 87.0542C212.006 87.0542 212.598 86.9309 213.095 86.6838C213.591 86.4364 214.06 86.0262 214.504 85.4524Z" fill="#E97224"/>
<path d="M48 64.468H53.2508C57.3439 64.468 60.8592 65.741 63.7957 68.2879C66.732 70.8341 68.2 73.9642 68.2 77.6781C68.2 81.321 66.8658 84.4645 64.1975 87.1077C61.5289 89.7518 58.2722 91.0737 54.4275 91.0737H48V64.468ZM53.2508 86.007C53.2508 86.0955 53.4419 86.1399 53.8247 86.1399C54.7812 86.1399 55.8622 85.9189 57.0671 85.4767C58.6928 84.8756 59.9841 84.0267 60.9406 82.93C62.1838 81.4975 62.8058 79.7296 62.8058 77.6246C62.8058 75.2903 61.9166 73.3987 60.1376 71.9485C58.052 70.2503 55.7946 69.4016 53.3656 69.4016L53.2508 69.4549V86.007Z" fill="#006838"/>
<path d="M79.7235 91.0735C76.2035 91.0735 73.4108 89.748 71.3447 87.0975C69.4894 84.7099 68.5617 81.7739 68.5617 78.2908C68.5617 74.7641 69.5084 71.7741 71.4024 69.3204C73.5258 66.5819 76.3851 65.2129 79.9817 65.2129C83.5009 65.2129 86.2942 66.5381 88.3601 69.1886C90.2152 71.5769 91.1435 74.5129 91.1435 77.9956C91.1435 81.5225 90.1964 84.5129 88.3026 86.966C86.1796 89.7043 83.3198 91.0735 79.7235 91.0735ZM80.2113 70.5621C78.1261 70.5621 76.4711 71.3519 75.2471 72.93C74.1376 74.3557 73.5829 76.0987 73.5829 78.1594C73.5829 80.1551 74.1089 81.8324 75.161 83.1917C76.3467 84.7048 77.9534 85.4614 79.9815 85.4614C82.0662 85.4614 83.7208 84.672 84.9452 83.0936C86.0545 81.6684 86.6097 79.9248 86.6097 77.8636C86.6097 75.8693 86.0834 74.1915 85.0313 72.832C83.8452 71.3193 82.2389 70.5621 80.2113 70.5621Z" fill="#006838"/>
<path d="M110.336 88.948C108.94 89.7143 107.332 90.6826 103.225 90.975C100.494 91.1697 98.0214 90.0562 95.8221 88.2185C93.5266 86.2936 92.2255 83.8867 91.9196 80.9984C91.8239 80.0576 91.7762 79.2482 91.7762 78.5699C91.7762 74.5229 92.8567 71.2736 95.0186 68.8232C97.1035 66.4601 99.7621 65.2786 102.995 65.2786C106.094 65.2786 108.777 66.427 111.044 68.7246C113.31 71.0216 114.444 73.877 114.444 77.2898V90.1216C114.444 92.9877 113.386 95.3729 111.271 97.2758C109.251 99.0922 106.85 99.9999 104.068 99.9999H103.64C102.762 99.9999 102.038 99.9617 101.467 99.8852C100.895 99.8082 100.237 99.6276 99.4943 99.3436V93.8632C100.221 94.1257 100.857 94.3006 101.403 94.3882C101.948 94.4752 102.622 94.5194 103.425 94.5194C104.114 94.5194 104.841 94.4264 105.606 94.2402C106.371 94.0537 106.907 93.8737 107.213 93.6986C107.978 93.2611 108.513 92.8563 108.82 92.4845C109.317 91.8721 109.566 91.0844 109.566 90.1216V77.651C109.566 75.6818 108.868 74.0572 107.471 72.7776C106.075 71.4975 104.449 70.858 102.593 70.858C100.948 70.858 99.5234 71.5796 98.3182 73.0241C97.1127 74.4677 96.5104 76.1416 96.5104 78.0449C96.5104 78.3728 96.539 78.7232 96.5967 79.0949C96.8833 81.108 97.6964 82.6942 99.0356 83.8538C100.259 84.9257 101.675 85.4614 103.282 85.4614C105.195 85.4614 108.884 84.427 110.032 82.9834L110.336 88.948Z" fill="#006838"/>
<path d="M134.14 83.2004L134.216 89.5516C132.437 90.5363 128.855 91.9592 127.114 91.9592C124.436 91.9592 121.949 90.8329 119.654 88.579C118.219 87.1796 117.187 85.6865 116.555 84.0994C115.924 82.5134 115.608 80.6158 115.608 78.4056C115.608 74.7954 116.742 71.7163 119.008 69.1673C121.275 66.6189 123.987 65.3438 127.143 65.3438C130.376 65.3438 133.15 66.5965 135.464 69.1016C137.778 71.6071 138.936 74.6757 138.936 78.3069V91.0078H133.886V78.1427C133.886 76.1078 133.212 74.3966 131.864 73.007C130.515 71.6177 128.922 70.9228 127.086 70.9228C125.249 70.9228 123.69 71.6561 122.409 73.1215C121.127 74.5874 120.486 76.3705 120.486 78.4713C120.486 80.6369 121.132 82.4914 122.423 84.0339C123.715 85.576 125.297 86.3473 127.172 86.3473C128.3 86.3473 129.233 86.026 130.084 85.7407C131.82 85.1579 133.413 84.1414 134.14 83.2004Z" fill="#006838"/>
<path d="M112.214 58.426C111.927 58.448 111.633 58.438 111.344 58.435C110.212 58.4233 109.079 58.567 108.006 58.8572C105.85 59.4414 104.013 60.5899 102.01 61.4578C100.279 62.2075 98.2509 62.7491 96.3567 62.4713C96.3327 62.4851 96.3099 62.4999 96.2855 62.5133L100.703 64.3347C103.357 64.7755 106.291 64.0946 107.668 62.7191C108.423 61.9649 108.735 61.0452 109.612 60.346C110.696 59.482 112.629 59.0627 114.444 59.2986C113.763 58.9497 113.009 58.6587 112.214 58.426Z" fill="#599F4D"/>
</g>
<defs>
<filter id="filter0_d_274_205" x="0" y="0" width="266" height="156" filterUnits="userSpaceOnUse" color-interpolation-filters="sRGB">
<feFlood flood-opacity="0" result="BackgroundImageFix"/>
<feColorMatrix in="SourceAlpha" type="matrix" values="0 0 0 0 0 0 0 0 0 0 0 0 0 0 0 0 0 0 127 0" result="hardAlpha"/>
<feMorphology radius="15" operator="erode" in="SourceAlpha" result="effect1_dropShadow_274_205"/>
<feOffset/>
<feGaussianBlur stdDeviation="16.5"/>
<feComposite in2="hardAlpha" operator="out"/>
<feColorMatrix type="matrix" values="0 0 0 0 0 0 0 0 0 0 0 0 0 0 0 0 0 0 0.1 0"/>
<feBlend mode="normal" in2="BackgroundImageFix" result="effect1_dropShadow_274_205"/>
<feBlend mode="normal" in="SourceGraphic" in2="effect1_dropShadow_274_205" result="shape"/>
</filter>
<clipPath id="clip0_274_205">
<rect width="171" height="44" fill="white" transform="translate(48 56)"/>
</clipPath>
</defs>
</svg>
